<?xml version="1.0" encoding="UTF-8"?>
<svg xmlns="http://www.w3.org/2000/svg" viewBox="0 0 79.94 37.19">
  <defs>
    <style>
      .cls-1 {
        fill: #231f20;
      }

      .cls-1, .cls-2 {
        stroke-width: 0px;
      }

      .cls-2 {
        fill: #f6eb16;
        mix-blend-mode: multiply;
      }

      .cls-3 {
        isolation: isolate;
      }
    </style>
  </defs>
  <g class="cls-3">
    <g id="Layer_2" data-name="Layer 2">
      <g id="Layer_1-2" data-name="Layer 1">
        <g>
          <path class="cls-1" d="M7.91,1.45c.23-.24.46-.27.67-.01.26.32-.01.42-.01.84s-.32.57-.02.86c.33.3.47,0,.91,0s.55.26.87-.05c.3-.28.03-.4.03-.81s-.28-.51-.02-.84c.21-.26.45-.24.69,0s0,.35,0,.69,0,.34,0,.68-.05.34-.05.69.04.34.04.69-.03.34-.03.69.27.45.03.69-.43.23-.68,0c-.22-.2,0-.31,0-.61s-.02-.3-.02-.6.28-.44.03-.61c-.37-.25-.45,0-.89,0s-.5-.22-.87.03c-.25.17-.04.27-.04.57s.05.3.05.6.21.41-.02.62c-.25.22-.46.24-.69,0s.04-.35.04-.69,0-.34,0-.68,0-.34,0-.69,0-.34,0-.69.03-.35-.04-.68c-.07-.36-.21-.44.03-.69Z"/>
          <path class="cls-1" d="M13.25,5.63c-.21,0-.41-.02-.57-.08-.19-.07-.34-.18-.47-.33s-.21-.34-.27-.55c-.05-.18-.08-.39-.08-.62s0-.46.06-.66c.06-.2.18-.35.3-.49.12-.14.26-.26.44-.34.18-.08.38-.11.61-.11s.43.05.61.12c.18.08.33.19.45.32s.18.32.24.51.12.4.12.63c0,.26-.05.48-.12.68-.07.2-.15.37-.28.51-.13.14-.28.24-.45.31-.17.07-.37.09-.58.09ZM13.26,5.12c.27,0,.45-.11.58-.3s.19-.45.19-.78-.04-.6-.17-.79-.34-.29-.61-.29-.45.13-.57.32c-.12.19-.21.44-.21.76s.08.58.2.77c.12.19.31.3.58.3Z"/>
          <path class="cls-1" d="M15.73,2.56c.28.24.1.35.18.72s.07.37.15.73-.21.75.17.76.13-.38.23-.74.05-.38.15-.74-.04-.45.23-.71c.21-.2.37-.21.58-.02.27.25.1.37.2.73s.09.36.19.72-.18.72.19.72.12-.35.2-.71.04-.37.12-.74-.1-.46.18-.71c.25-.22.48-.3.65-.02.2.33-.1.38-.21.75s-.11.37-.21.75-.09.38-.19.76.05.48-.24.74c-.23.21-.39.21-.63,0-.28-.25-.13-.35-.23-.72s-.04-.38-.14-.74.16-.69-.21-.69-.08.34-.18.7-.1.36-.2.73.05.45-.23.7c-.23.21-.36.21-.59,0-.29-.26-.11-.36-.21-.74s-.1-.38-.2-.75-.15-.36-.25-.74-.3-.38-.22-.76c.08-.35.45-.21.71.02Z"/>
          <path class="cls-1" d="M21.7,2.57c.18.12-.16.29.01.41.2-.29.43-.44.7-.49.07-.01.14.01.22.01.2,0,.34.05.46.14.12.09.23.17.28.34.12-.17.26-.27.41-.36.16-.1.34-.17.53-.17.31,0,.54.09.68.27.14.18.21.46.21.85,0,.33,0,.33,0,.66s-.05.33-.05.66.27.42.04.66-.43.24-.61-.01c-.26-.37-.02-.44-.02-.88s0-.45,0-.9c0-.15,0-.27-.02-.36-.02-.1-.06-.16-.1-.22-.04-.06-.06-.11-.11-.13-.06-.02-.12-.02-.19-.02-.11,0-.19.05-.28.09-.08.04-.19.05-.25.12-.06.07-.06.17-.09.26-.03.09-.05.17-.05.26,0,.3,0,.3,0,.6s-.04.3-.04.6.23.38.01.59c-.23.22-.39.23-.61,0s.01-.3.01-.61-.04-.31-.04-.62,0-.31,0-.62c0-.26.02-.45-.06-.55-.08-.1-.21-.15-.34-.15-.06,0-.12.03-.2.06s-.14.08-.21.14c-.07.06-.14.13-.19.22-.05.1-.05.21-.05.35,0,.45-.07.45-.07.9s.3.54.05.9c-.18.26-.47.26-.67.02-.24-.29.05-.4.05-.77s.02-.37.02-.75-.06-.37-.06-.75-.12-.4.02-.75c.11-.29.36-.16.61.01Z"/>
          <path class="cls-1" d="M26.67,1.45c.23.23.25.42.02.65s-.43.22-.66,0-.11-.34.03-.63c.15-.31.38-.24.62,0ZM26.66,2.56c.24.28.02.37.02.74s-.01.37-.01.75-.03.37-.03.75.25.44,0,.73c-.2.24-.42.28-.63.03-.24-.28.03-.39.03-.76s-.02-.37-.02-.75,0-.37,0-.75-.14-.41,0-.75c.13-.31.42-.23.63,0Z"/>
          <path class="cls-1" d="M28.16,5.79c.03.16.11.25.2.32.1.06.25.11.47.11.17,0,.33,0,.43-.08.1-.07.19-.19.24-.34.05-.14.01-.35.01-.6,0-.1.12-.17.03-.21-.1.15-.23.29-.39.37s-.34.12-.53.12c-.39,0-.69-.14-.9-.41-.11-.14-.2-.32-.25-.52-.04-.17-.02-.37-.02-.58s-.02-.41.03-.58c.06-.2.17-.35.29-.5.23-.28.52-.44.9-.44.36,0,.65.15.88.45.18-.05-.16-.27,0-.36.27-.16.42-.24.64-.01s-.02.34-.02.65,0,.32,0,.64.04.32.04.64-.06.32-.06.64c0,.25.03.47,0,.66-.05.25-.15.45-.28.6-.12.14-.28.24-.47.31-.16.05-.35.04-.56.04-.42,0-.72-.06-.93-.21-.21-.15-.33-.37-.37-.7.19-.26.31-.07.62,0ZM29.56,3.94c0-.31-.08-.54-.21-.7-.13-.16-.3-.25-.55-.25-.23,0-.44.07-.56.23s-.2.43-.2.74.11.54.24.71c.12.17.28.28.5.28.24,0,.42-.1.56-.26.13-.16.2-.38.2-.67,0-.05.02-.05.02-.09Z"/>
          <path class="cls-1" d="M31.63,1.45c.24.3.02.38.02.76s-.09.39-.01.77c.12-.17.28-.27.44-.35.16-.08.32-.12.5-.12.34,0,.61.06.77.26.14.18.19.46.19.81,0,.33.02.33.02.66s0,.33,0,.66.22.42,0,.66-.41.22-.64,0,.04-.32.04-.63-.04-.31-.04-.63.03-.31.03-.63c0-.24-.07-.41-.15-.51-.08-.1-.21-.14-.37-.14-.11,0-.22.02-.31.06-.09.04-.16.11-.22.18-.07.07-.14.13-.18.22-.04.09-.05.19-.05.28,0,.45.03.45.03.89s.2.52-.06.88c-.18.26-.42.26-.63.03-.23-.25,0-.36,0-.7s0-.34,0-.68.04-.34.04-.69,0-.34,0-.69,0-.34,0-.69-.13-.37,0-.68.4-.24.6,0Z"/>
          <path class="cls-1" d="M34.08,3.07c-.17-.19-.19-.32-.01-.52.15-.17.35.21.46,0,.2-.35-.23-.47.02-.79.19-.25.39-.25.58,0,.25.32-.23.47.04.77.24.27.4-.19.69.02.21.15.22.37.01.52-.29.21-.47-.27-.72,0-.26.29,0,.39,0,.78s0,.39,0,.78c0,.15,0,.29.06.36.06.07.18.08.3.08.06,0,.13.02.18.01.06,0,.12-.04.17-.06.08.24.13.25.1.49-.18.06-.38.09-.58.09-.32,0-.56-.08-.68-.25-.13-.17-.17-.44-.17-.78,0-.38,0-.38,0-.75s.14-.4-.03-.74c-.11-.22-.27.15-.42-.02Z"/>
          <path class="cls-1" d="M38.28,2.56c.28.24.1.35.18.72s.07.37.15.73-.21.75.17.76.13-.38.23-.74.05-.38.15-.74-.04-.45.23-.71c.21-.2.37-.21.58-.02.27.25.1.37.2.73s.09.36.19.72-.18.72.19.72.12-.35.2-.71.04-.37.12-.74-.1-.46.18-.71c.25-.22.48-.3.65-.02.2.33-.1.38-.21.75s-.11.37-.21.75-.09.38-.19.76.05.48-.24.74c-.23.21-.39.21-.63,0-.28-.25-.13-.35-.23-.72s-.04-.38-.14-.74.16-.69-.21-.69-.08.34-.18.7-.1.36-.2.73.05.45-.23.7c-.23.21-.36.21-.59,0-.29-.26-.11-.36-.21-.74s-.1-.38-.2-.75-.15-.36-.25-.74-.3-.38-.22-.76c.08-.35.45-.21.71.02Z"/>
          <path class="cls-1" d="M44.72,4.67c-.05.31-.17.55-.37.72-.2.17-.5.25-.88.25-.21,0-.4-.05-.56-.11-.19-.07-.34-.17-.46-.31-.13-.15-.26-.31-.32-.52-.05-.18-.05-.39-.05-.62,0-.26.02-.49.09-.69s.17-.37.29-.51c.12-.14.28-.24.45-.31.17-.07.36-.11.57-.11.22,0,.4.07.56.14.16.07.31.14.42.27.11.13.17.29.22.47.05.18.1.37.1.59,0,.14.13.24,0,.29-.32.13-.35,0-.69,0s-.35.02-.69.02-.37-.15-.69-.02c0,.27.08.49.2.66.13.17.31.23.57.23.2,0,.36,0,.46-.08.1-.08.14-.23.18-.37.25-.19.35-.12.62.02ZM44.15,3.77c0-.25-.06-.44-.17-.59-.11-.14-.28-.22-.53-.22s-.43.06-.55.2c-.12.14-.18.38-.2.62.34.12.37-.08.73-.04s.38.14.72.03Z"/>
          <path class="cls-1" d="M49.46,4.51c-.04.36-.15.63-.36.84-.21.2-.51.29-.9.29-.23,0-.42-.06-.6-.13-.17-.08-.31-.17-.42-.31s-.24-.28-.29-.48c-.06-.19-.06-.41-.06-.65s.01-.46.08-.66.16-.37.28-.51.27-.24.45-.32c.17-.08.37-.12.59-.12.2,0,.36.06.5.12.14.06.27.1.36.19.09.09.15.21.2.33.05.12.11.25.13.38-.3.11-.31.13-.63.1-.03-.17-.09-.31-.17-.42-.08-.11-.22-.15-.42-.15-.14,0-.26,0-.35.07-.09.06-.16.15-.22.24-.06.1-.07.21-.09.34-.02.13-.08.25-.08.38,0,.15.05.29.08.42s.06.24.11.33.12.17.22.22c.09.06.2.11.33.11.19,0,.35-.06.45-.17.1-.11.16-.26.18-.46.24-.22.35-.16.63,0Z"/>
          <path class="cls-1" d="M51.41,5.63c-.21,0-.41-.02-.57-.08-.19-.07-.34-.18-.47-.33s-.21-.34-.27-.55c-.05-.18-.08-.39-.08-.62s0-.46.06-.66c.06-.2.18-.35.3-.49.12-.14.26-.26.44-.34.18-.08.38-.11.61-.11s.43.05.61.12c.18.08.33.19.45.32s.18.32.24.51.12.4.12.63c0,.26-.05.48-.12.68-.07.2-.15.37-.28.51-.13.14-.28.24-.45.31-.17.07-.37.09-.58.09ZM51.41,5.12c.27,0,.45-.11.58-.3s.19-.45.19-.78-.04-.6-.17-.79-.34-.29-.61-.29-.45.13-.57.32c-.12.19-.21.44-.21.76s.08.58.2.77c.12.19.31.3.58.3Z"/>
          <path class="cls-1" d="M54.19,2.56c.18.13-.09.23.01.43.13-.18.27-.31.43-.4.16-.08.33-.1.52-.1.34,0,.57.09.73.3.14.18.25.44.25.78,0,.33-.03.33-.03.66s.02.33.02.66.23.43,0,.67-.41.22-.64,0,0-.31,0-.63.03-.31.03-.63-.03-.31-.03-.63c0-.24-.03-.42-.11-.52-.08-.1-.22-.13-.39-.13-.11,0-.21.02-.31.06-.09.04-.17.09-.24.16-.07.07-.1.15-.14.24-.04.09-.08.18-.08.28,0,.45,0,.45,0,.89s.28.54.02.91c-.18.26-.44.21-.64-.03-.24-.29-.03-.36-.03-.74s0-.37,0-.75,0-.37,0-.75-.11-.39.03-.74c.11-.3.34-.18.59,0Z"/>
          <path class="cls-1" d="M56.65,3.07c-.17-.19-.19-.32-.01-.52.15-.17.35.21.46,0,.2-.35-.23-.47.02-.79.19-.25.39-.25.58,0,.25.32-.23.47.04.77.24.27.4-.19.69.02.21.15.22.37.01.52-.29.21-.47-.27-.72,0-.26.29,0,.39,0,.78s0,.39,0,.78c0,.15,0,.29.06.36.06.07.18.08.3.08.06,0,.13.02.18.01.06,0,.12-.04.17-.06.08.24.13.25.1.49-.18.06-.38.09-.58.09-.32,0-.56-.08-.68-.25-.13-.17-.17-.44-.17-.78,0-.38,0-.38,0-.75s.14-.4-.03-.74c-.11-.22-.27.15-.42-.02Z"/>
          <path class="cls-1" d="M59.67,2.56c.18.13-.06.23.01.43.1-.16.21-.27.35-.36.14-.08.29-.1.45-.1.06,0,.11,0,.16,0s.1-.01.14,0c-.02.3-.04.3-.1.6-.04-.01-.08,0-.13-.01-.05,0-.1,0-.15,0-.12,0-.22.01-.31.05-.09.04-.16.09-.22.16s-.14.13-.17.21c-.03.08-.02.18-.02.26,0,.44-.02.44-.02.88s.28.52.02.88c-.18.26-.43.24-.63,0-.24-.29,0-.38,0-.75s-.02-.37-.02-.75.02-.37.02-.75-.14-.4,0-.75c.11-.3.36-.17.61,0Z"/>
          <path class="cls-1" d="M62,1.45c.23.23.25.42.02.65s-.43.22-.66,0-.11-.34.03-.63c.15-.31.38-.24.62,0ZM61.99,2.56c.24.28.02.37.02.74s-.01.37-.01.75-.03.37-.03.75.25.44,0,.73c-.2.24-.42.28-.63.03-.24-.28.03-.39.03-.76s-.02-.37-.02-.75,0-.37,0-.75-.14-.41,0-.75c.13-.31.42-.23.63,0Z"/>
          <path class="cls-1" d="M63.47,1.45c.24.29.02.37.02.75s-.08.38-.01.76c.11-.16.27-.25.42-.33.15-.08.31-.12.51-.12s.4-.01.55.06c.15.08.26.21.36.35.1.14.19.29.24.49.05.19.07.41.07.64,0,.25-.04.47-.1.67s-.14.37-.25.51c-.11.14-.27.2-.42.28-.16.07-.31.15-.5.15-.17,0-.32-.06-.47-.13-.15-.07-.29-.16-.41-.32-.09.15.15.27,0,.36-.26.15-.41.22-.62,0-.23-.25-.02-.34-.02-.69s.03-.34.03-.68,0-.34,0-.69-.04-.34-.04-.69.06-.34.06-.69-.19-.39-.05-.7.44-.22.64.02ZM63.46,4.15c0,.19.05.35.09.47.04.12.09.23.15.3.07.07.14.15.23.18.09.03.19.04.29.04.1,0,.19-.07.28-.11s.19-.07.25-.15c.07-.08.1-.2.14-.34.04-.13.06-.3.06-.49s-.01-.35-.05-.48c-.04-.13-.09-.24-.16-.32s-.12-.18-.2-.22c-.09-.04-.19-.02-.29-.02-.14,0-.26,0-.36.05-.1.05-.16.14-.23.22-.06.08-.11.18-.13.3-.03.12-.05.24-.05.39,0,.07.03.07.02.15,0,.02-.04.02-.04.04Z"/>
          <path class="cls-1" d="M66.95,2.56c.22.22.01.31.01.62s0,.31,0,.63-.02.31-.02.63c0,.25.05.44.13.53.08.09.22.11.38.11.09,0,.18,0,.27-.03.09-.03.16-.1.23-.16s.13-.14.17-.23c.04-.09.07-.19.07-.31,0-.45,0-.45,0-.89s-.23-.51.03-.87c.18-.26.4-.26.61-.02.24.28-.02.37-.02.75s.02.37.02.75,0,.37,0,.75.23.46,0,.75c-.2.24-.38.19-.63.01-.18-.13.12-.26.01-.45-.13.18-.28.32-.43.41s-.32.15-.5.15c-.34,0-.57-.13-.71-.31-.15-.18-.25-.45-.25-.82,0-.33,0-.33,0-.66s0-.33,0-.66-.11-.35.03-.65.38-.22.6,0Z"/>
          <path class="cls-1" d="M69.38,3.07c-.17-.19-.19-.32-.01-.52.15-.17.35.21.46,0,.2-.35-.23-.47.02-.79.19-.25.39-.25.58,0,.25.32-.23.47.04.77.24.27.4-.19.69.02.21.15.22.37.01.52-.29.21-.47-.27-.72,0-.26.29,0,.39,0,.78s0,.39,0,.78c0,.15,0,.29.06.36.06.07.18.08.3.08.06,0,.13.02.18.01.06,0,.12-.04.17-.06.08.24.13.25.1.49-.18.06-.38.09-.58.09-.32,0-.56-.08-.68-.25-.13-.17-.17-.44-.17-.78,0-.38,0-.38,0-.75s.14-.4-.03-.74c-.11-.22-.27.15-.42-.02Z"/>
          <path class="cls-1" d="M74.29,4.67c-.05.31-.17.55-.37.72-.2.17-.5.25-.88.25-.21,0-.4-.05-.56-.11-.19-.07-.34-.17-.46-.31-.13-.15-.26-.31-.32-.52-.05-.18-.05-.39-.05-.62,0-.26.02-.49.09-.69s.17-.37.29-.51c.12-.14.28-.24.45-.31.17-.07.36-.11.57-.11.22,0,.4.07.56.14.16.07.31.14.42.27.11.13.17.29.22.47.05.18.1.37.1.59,0,.14.13.24,0,.29-.32.13-.35,0-.69,0s-.35.02-.69.02-.37-.15-.69-.02c0,.27.08.49.2.66.13.17.31.23.57.23.2,0,.36,0,.46-.08.1-.08.14-.23.18-.37.25-.19.35-.12.62.02ZM73.72,3.77c0-.25-.06-.44-.17-.59-.11-.14-.28-.22-.53-.22s-.43.06-.55.2c-.12.14-.18.38-.2.62.34.12.37-.08.73-.04s.38.14.72.03Z"/>
          <path class="cls-1" d="M4.84,14.62c-.04.36-.15.63-.36.84-.21.2-.51.29-.9.29-.23,0-.42-.06-.6-.13-.17-.08-.31-.17-.42-.31s-.24-.28-.29-.48c-.06-.19-.06-.41-.06-.65s.01-.46.08-.66.16-.37.28-.51.27-.24.45-.32c.17-.08.37-.12.59-.12.2,0,.36.06.5.12.14.06.27.1.36.19.09.09.15.21.2.33.05.12.11.25.13.38-.3.11-.31.13-.63.1-.03-.17-.09-.31-.17-.42-.08-.11-.22-.15-.42-.15-.14,0-.26,0-.35.07-.09.06-.16.15-.22.24-.06.1-.07.21-.09.34-.02.13-.08.25-.08.38,0,.15.05.29.08.42s.06.24.11.33.12.17.22.22c.09.06.2.11.33.11.19,0,.35-.06.45-.17.1-.11.16-.26.18-.46.24-.22.35-.16.63,0Z"/>
          <path class="cls-1" d="M6.15,12.68c.18.13-.06.23.01.43.1-.16.21-.27.35-.36.14-.08.29-.1.45-.1.06,0,.11,0,.16,0s.1-.01.14,0c-.02.3-.04.3-.1.6-.04-.01-.08,0-.13-.01-.05,0-.1,0-.15,0-.12,0-.22.01-.31.05-.09.04-.16.09-.22.16s-.14.13-.17.21c-.03.08-.02.18-.02.26,0,.44-.02.44-.02.88s.28.52.02.88c-.18.26-.43.24-.63,0-.24-.29,0-.38,0-.75s-.02-.37-.02-.75.02-.37.02-.75-.14-.4,0-.75c.11-.3.36-.17.61,0Z"/>
          <path class="cls-1" d="M10.27,14.78c-.05.31-.17.55-.37.72-.2.17-.5.25-.88.25-.21,0-.4-.05-.56-.11-.19-.07-.34-.17-.46-.31-.13-.15-.26-.31-.32-.52-.05-.18-.05-.39-.05-.62,0-.26.02-.49.09-.69s.17-.37.29-.51c.12-.14.28-.24.45-.31.17-.07.36-.11.57-.11.22,0,.4.07.56.14.16.07.31.14.42.27.11.13.17.29.22.47.05.18.1.37.1.59,0,.14.13.24,0,.29-.32.13-.35,0-.69,0s-.35.02-.69.02-.37-.15-.69-.02c0,.27.08.49.2.66.13.17.31.23.57.23.2,0,.36,0,.46-.08.1-.08.14-.23.18-.37.25-.19.35-.12.62.02ZM9.7,13.88c0-.25-.06-.44-.17-.59-.11-.14-.28-.22-.53-.22s-.43.06-.55.2c-.12.14-.18.38-.2.62.34.12.37-.08.73-.04s.38.14.72.03Z"/>
          <path class="cls-1" d="M12.8,15.27c-.11.13-.24.26-.4.34s-.35.12-.57.12c-.14,0-.26-.04-.38-.08-.12-.04-.21-.08-.3-.16-.09-.07-.19-.14-.24-.25s-.05-.25-.05-.41c0-.21.03-.38.12-.51.09-.13.21-.23.35-.3.14-.07.31-.12.48-.15.18-.03.35-.05.53-.06.21-.01.24.08.44.01.06-.02-.01-.09-.01-.16,0-.23-.04-.4-.15-.48-.1-.09-.25-.11-.42-.11-.2,0-.34.04-.43.1-.09.07-.16.17-.19.3-.29.03-.35.11-.59-.05.05-.29.19-.52.4-.65.2-.13.48-.21.84-.21.23,0,.43,0,.58.07.15.06.25.18.33.29.09.11.18.22.22.37.04.15.05.32.05.49,0,.31,0,.31,0,.62s-.03.31-.03.62.23.39.01.62-.31.12-.59,0c-.19-.08.08-.21,0-.39ZM12.38,14.26c-.19.01-.34.05-.46.08-.12.03-.21.06-.27.11-.06.05-.13.1-.15.16-.02.06-.03.14-.03.21,0,.13.08.22.15.29.08.07.18.13.34.13.28,0,.48-.09.61-.23.13-.15.2-.34.2-.59,0-.09.07-.12,0-.17-.15-.13-.2,0-.4,0Z"/>
          <path class="cls-1" d="M13.94,13.18c-.17-.19-.19-.32-.01-.52.15-.17.35.21.46,0,.2-.35-.23-.47.02-.79.19-.25.39-.25.58,0,.25.32-.23.47.04.77.24.27.4-.19.69.02.21.15.22.37.01.52-.29.21-.47-.27-.72,0-.26.29,0,.39,0,.78s0,.39,0,.78c0,.15,0,.29.06.36.06.07.18.08.3.08.06,0,.13.02.18.01.06,0,.12-.04.17-.06.08.24.13.25.1.49-.18.06-.38.09-.58.09-.32,0-.56-.08-.68-.25-.13-.17-.17-.44-.17-.78,0-.38,0-.38,0-.75s.14-.4-.03-.74c-.11-.22-.27.15-.42-.02Z"/>
          <path class="cls-1" d="M16.99,11.56c.23.23.25.42.02.65s-.43.22-.66,0-.11-.34.03-.63c.15-.31.38-.24.62,0ZM16.98,12.68c.24.28.02.37.02.74s-.01.37-.01.75-.03.37-.03.75.25.44,0,.73c-.2.24-.42.28-.63.03-.24-.28.03-.39.03-.76s-.02-.37-.02-.75,0-.37,0-.75-.14-.41,0-.75c.13-.31.42-.23.63,0Z"/>
          <path class="cls-1" d="M18.24,12.68c.31.24.14.37.26.74s.12.38.24.76-.14.77.25.78.15-.39.27-.77.09-.39.22-.77-.04-.49.27-.74c.27-.22.53-.32.7-.01.19.35-.14.38-.29.75s-.15.37-.29.75-.14.38-.28.75,0,.47-.31.73c-.25.2-.38.23-.63.02-.31-.25-.13-.38-.27-.75s-.16-.37-.3-.74-.15-.37-.29-.75-.35-.36-.28-.75.44-.22.73,0Z"/>
          <path class="cls-1" d="M23.39,14.78c-.05.31-.17.55-.37.72-.2.17-.5.25-.88.25-.21,0-.4-.05-.56-.11-.19-.07-.34-.17-.46-.31-.13-.15-.26-.31-.32-.52-.05-.18-.05-.39-.05-.62,0-.26.02-.49.09-.69s.17-.37.29-.51c.12-.14.28-.24.45-.31.17-.07.36-.11.57-.11.22,0,.4.07.56.14.16.07.31.14.42.27.11.13.17.29.22.47.05.18.1.37.1.59,0,.14.13.24,0,.29-.32.13-.35,0-.69,0s-.35.02-.69.02-.37-.15-.69-.02c0,.27.08.49.2.66.13.17.31.23.57.23.2,0,.36,0,.46-.08.1-.08.14-.23.18-.37.25-.19.35-.12.62.02ZM22.82,13.88c0-.25-.06-.44-.17-.59-.11-.14-.28-.22-.53-.22s-.43.06-.55.2c-.12.14-.18.38-.2.62.34.12.37-.08.73-.04s.38.14.72.03Z"/>
          <path class="cls-1" d="M26.02,14.76c.01.1.04.17.09.23.04.06.08.12.14.16.06.04.13.09.21.1.08.01.17.02.26.02.21,0,.35-.07.44-.14.09-.07.16-.15.16-.27,0-.1-.04-.18-.1-.25-.06-.07-.17-.12-.35-.15-.23-.04-.43-.09-.6-.13-.17-.04-.32-.09-.44-.16-.12-.07-.18-.17-.24-.28s-.12-.23-.12-.41c0-.14.05-.26.11-.37s.12-.22.23-.3.23-.14.38-.18c.15-.04.31-.06.48-.06.22,0,.41,0,.56.05.15.05.26.13.35.21.09.08.17.17.22.27.05.1.09.24.12.36-.27.1-.29.07-.57.04-.04-.15-.13-.23-.22-.3-.09-.07-.23-.11-.44-.11-.12,0-.22,0-.3.03-.08.02-.16.02-.2.06-.05.03-.08.08-.09.13-.02.04-.02.09-.02.13,0,.07,0,.12.02.17.01.04.07.06.1.08s.09.04.15.06c.07.02.14.09.24.11.18.03.18.03.36.06.19.03.35.06.48.12s.24.11.32.19.13.18.16.28c.03.1.07.22.07.35,0,.27-.15.47-.35.64s-.49.28-.89.28c-.17,0-.33,0-.49-.03-.15-.03-.28-.13-.4-.21-.12-.08-.2-.18-.28-.31-.08-.13-.16-.29-.17-.48.24-.19.32-.03.62.02Z"/>
          <path class="cls-1" d="M29.92,15.75c-.21,0-.41-.02-.57-.08-.19-.07-.34-.18-.47-.33s-.21-.34-.27-.55c-.05-.18-.08-.39-.08-.62s0-.46.06-.66c.06-.2.18-.35.3-.49.12-.14.26-.26.44-.34.18-.08.38-.11.61-.11s.43.05.61.12c.18.08.33.19.45.32s.18.32.24.51.12.4.12.63c0,.26-.05.48-.12.68-.07.2-.15.37-.28.51-.13.14-.28.24-.45.31-.17.07-.37.09-.58.09ZM29.92,15.23c.27,0,.45-.11.58-.3s.19-.45.19-.78-.04-.6-.17-.79-.34-.29-.61-.29-.45.13-.57.32c-.12.19-.21.44-.21.76s.08.58.2.77c.12.19.31.3.58.3Z"/>
          <path class="cls-1" d="M32.73,11.56c.23.25.02.33.02.68s-.01.34-.01.68-.03.34-.03.69,0,.34,0,.69.05.34.05.69.2.43-.03.68c-.21.23-.42.25-.63.01-.23-.25,0-.35,0-.69s0-.34,0-.68,0-.34,0-.69.05-.34.05-.69-.04-.34-.04-.69-.12-.36.02-.68.39-.23.6,0Z"/>
          <path class="cls-1" d="M34.18,12.67c.22.22.01.31.01.62s0,.31,0,.63-.02.31-.02.63c0,.25.05.44.13.53.08.09.22.11.38.11.09,0,.18,0,.27-.03.09-.03.16-.1.23-.16s.13-.14.17-.23c.04-.09.07-.19.07-.31,0-.45,0-.45,0-.89s-.23-.51.03-.87c.18-.26.4-.26.61-.02.24.28-.02.37-.02.75s.02.37.02.75,0,.37,0,.75.23.46,0,.75c-.2.24-.38.19-.63.01-.18-.13.12-.26.01-.45-.13.18-.28.32-.43.41s-.32.15-.5.15c-.34,0-.57-.13-.71-.31-.15-.18-.25-.45-.25-.82,0-.33,0-.33,0-.66s0-.33,0-.66-.11-.35.03-.65.38-.22.6,0Z"/>
          <path class="cls-1" d="M36.61,13.18c-.17-.19-.19-.32-.01-.52.15-.17.35.21.46,0,.2-.35-.23-.47.02-.79.19-.25.39-.25.58,0,.25.32-.23.47.04.77.24.27.4-.19.69.02.21.15.22.37.01.52-.29.21-.47-.27-.72,0-.26.29,0,.39,0,.78s0,.39,0,.78c0,.15,0,.29.06.36.06.07.18.08.3.08.06,0,.13.02.18.01.06,0,.12-.04.17-.06.08.24.13.25.1.49-.18.06-.38.09-.58.09-.32,0-.56-.08-.68-.25-.13-.17-.17-.44-.17-.78,0-.38,0-.38,0-.75s.14-.4-.03-.74c-.11-.22-.27.15-.42-.02Z"/>
          <path class="cls-1" d="M39.66,11.56c.23.23.25.42.02.65s-.43.22-.66,0-.11-.34.03-.63c.15-.31.38-.24.62,0ZM39.65,12.68c.24.28.02.37.02.74s-.01.37-.01.75-.03.37-.03.75.25.44,0,.73c-.2.24-.42.28-.63.03-.24-.28.03-.39.03-.76s-.02-.37-.02-.75,0-.37,0-.75-.14-.41,0-.75c.13-.31.42-.23.63,0Z"/>
          <path class="cls-1" d="M41.82,15.75c-.21,0-.41-.02-.57-.08-.19-.07-.34-.18-.47-.33s-.21-.34-.27-.55c-.05-.18-.08-.39-.08-.62s0-.46.06-.66c.06-.2.18-.35.3-.49.12-.14.26-.26.44-.34.18-.08.38-.11.61-.11s.43.05.61.12c.18.08.33.19.45.32s.18.32.24.51.12.4.12.63c0,.26-.05.48-.12.68-.07.2-.15.37-.28.51-.13.14-.28.24-.45.31-.17.07-.37.09-.58.09ZM41.83,15.23c.27,0,.45-.11.58-.3s.19-.45.19-.78-.04-.6-.17-.79-.34-.29-.61-.29-.45.13-.57.32c-.12.19-.21.44-.21.76s.08.58.2.77c.12.19.31.3.58.3Z"/>
          <path class="cls-1" d="M44.61,12.68c.18.13-.09.23.01.43.13-.18.27-.31.43-.4.16-.08.33-.1.52-.1.34,0,.57.09.73.3.14.18.25.44.25.78,0,.33-.03.33-.03.66s.02.33.02.66.23.43,0,.67-.41.22-.64,0,0-.31,0-.63.03-.31.03-.63-.03-.31-.03-.63c0-.24-.03-.42-.11-.52-.08-.1-.22-.13-.39-.13-.11,0-.21.02-.31.06-.09.04-.17.09-.24.16-.07.07-.1.15-.14.24-.04.09-.08.18-.08.28,0,.45,0,.45,0,.89s.28.54.02.91c-.18.26-.44.21-.64-.03-.24-.29-.03-.36-.03-.74s0-.37,0-.75,0-.37,0-.75-.11-.39.03-.74c.11-.3.34-.18.59,0Z"/>
          <path class="cls-1" d="M47.77,14.76c.01.1.04.17.09.23.04.06.08.12.14.16.06.04.13.09.21.1.08.01.17.02.26.02.21,0,.35-.07.44-.14.09-.07.16-.15.16-.27,0-.1-.04-.18-.1-.25-.06-.07-.17-.12-.35-.15-.23-.04-.43-.09-.6-.13-.17-.04-.32-.09-.44-.16-.12-.07-.18-.17-.24-.28s-.12-.23-.12-.41c0-.14.05-.26.11-.37s.12-.22.23-.3.23-.14.38-.18c.15-.04.31-.06.48-.06.22,0,.41,0,.56.05.15.05.26.13.35.21.09.08.17.17.22.27.05.1.09.24.12.36-.27.1-.29.07-.57.04-.04-.15-.13-.23-.22-.3-.09-.07-.23-.11-.44-.11-.12,0-.22,0-.3.03-.08.02-.16.02-.2.06-.05.03-.08.08-.09.13-.02.04-.02.09-.02.13,0,.07,0,.12.02.17.01.04.07.06.1.08s.09.04.15.06c.07.02.14.09.24.11.18.03.18.03.36.06.19.03.35.06.48.12s.24.11.32.19.13.18.16.28c.03.1.07.22.07.35,0,.27-.15.47-.35.64s-.49.28-.89.28c-.17,0-.33,0-.49-.03-.15-.03-.28-.13-.4-.21-.12-.08-.2-.18-.28-.31-.08-.13-.16-.29-.17-.48.24-.19.32-.03.62.02Z"/>
          <path class="cls-1" d="M51.55,13.18c-.17-.19-.19-.32-.01-.52.15-.17.35.21.46,0,.2-.35-.23-.47.02-.79.19-.25.39-.25.58,0,.25.32-.23.47.04.77.24.27.4-.19.69.02.21.15.22.37.01.52-.29.21-.47-.27-.72,0-.26.29,0,.39,0,.78s0,.39,0,.78c0,.15,0,.29.06.36.06.07.18.08.3.08.06,0,.13.02.18.01.06,0,.12-.04.17-.06.08.24.13.25.1.49-.18.06-.38.09-.58.09-.32,0-.56-.08-.68-.25-.13-.17-.17-.44-.17-.78,0-.38,0-.38,0-.75s.14-.4-.03-.74c-.11-.22-.27.15-.42-.02Z"/>
          <path class="cls-1" d="M55.23,15.75c-.21,0-.41-.02-.57-.08-.19-.07-.34-.18-.47-.33s-.21-.34-.27-.55c-.05-.18-.08-.39-.08-.62s0-.46.06-.66c.06-.2.18-.35.3-.49.12-.14.26-.26.44-.34.18-.08.38-.11.61-.11s.43.05.61.12c.18.08.33.19.45.32s.18.32.24.51.12.4.12.63c0,.26-.05.48-.12.68-.07.2-.15.37-.28.51-.13.14-.28.24-.45.31-.17.07-.37.09-.58.09ZM55.23,15.23c.27,0,.45-.11.58-.3s.19-.45.19-.78-.04-.6-.17-.79-.34-.29-.61-.29-.45.13-.57.32c-.12.19-.21.44-.21.76s.08.58.2.77c.12.19.31.3.58.3Z"/>
          <path class="cls-1" d="M59.47,11.56c.23.23.25.42.02.65s-.43.22-.66,0-.11-.34.03-.63c.15-.31.38-.24.62,0ZM59.46,12.68c.24.28.02.37.02.74s-.01.37-.01.75-.03.37-.03.75.25.44,0,.73c-.2.24-.42.28-.63.03-.24-.28.03-.39.03-.76s-.02-.37-.02-.75,0-.37,0-.75-.14-.41,0-.75c.13-.31.42-.23.63,0Z"/>
          <path class="cls-1" d="M60.92,12.68c.18.12-.16.29.01.41.2-.29.43-.44.7-.49.07-.01.14.01.22.01.2,0,.34.05.46.14.12.09.23.17.28.34.12-.17.26-.27.41-.36.16-.1.34-.17.53-.17.31,0,.54.09.68.27.14.18.21.46.21.85,0,.33,0,.33,0,.66s-.05.33-.05.66.27.42.04.66-.43.24-.61-.01c-.26-.37-.02-.44-.02-.88s0-.45,0-.9c0-.15,0-.27-.02-.36-.02-.1-.06-.16-.1-.22-.04-.06-.06-.11-.11-.13-.06-.02-.12-.02-.19-.02-.11,0-.19.05-.28.09-.08.04-.19.05-.25.12-.06.07-.06.17-.09.26-.03.09-.05.17-.05.26,0,.3,0,.3,0,.6s-.04.3-.04.6.23.38.01.59c-.23.22-.39.23-.61,0s.01-.3.01-.61-.04-.31-.04-.62,0-.31,0-.62c0-.26.02-.45-.06-.55-.08-.1-.21-.15-.34-.15-.06,0-.12.03-.2.06s-.14.08-.21.14c-.07.06-.14.13-.19.22-.05.1-.05.21-.05.35,0,.45-.07.45-.07.9s.3.54.05.9c-.18.26-.47.26-.67.02-.24-.29.05-.4.05-.77s.02-.37.02-.75-.06-.37-.06-.75-.12-.4.02-.75c.11-.29.36-.16.61.01Z"/>
          <path class="cls-1" d="M65.26,12.68c.21-.23.36-.19.61-.02.17.12-.1.24,0,.42.12-.17.27-.26.43-.35s.31-.13.51-.13.39-.02.54.06c.15.07.26.21.36.35.1.14.2.3.25.49.05.19.07.41.07.65s-.04.46-.1.66-.14.37-.25.51c-.11.14-.26.21-.42.28-.16.07-.31.15-.51.15-.16,0-.3-.05-.45-.12s-.29-.15-.42-.32c-.08.36,0,.36,0,.73s.23.46,0,.73c-.21.24-.44.25-.65.01-.23-.25.02-.36.02-.7s0-.34,0-.68-.04-.34-.04-.69.06-.34.06-.69.02-.35-.05-.68c-.07-.35-.19-.43.04-.69ZM65.86,14.22c0,.2.04.35.08.48.04.13.08.24.15.31.07.08.14.16.23.19.09.03.2.05.3.05s.19-.07.28-.11.19-.07.25-.15c.07-.08.1-.2.14-.34.04-.13.06-.29.06-.49s-.01-.36-.05-.49c-.04-.13-.09-.24-.16-.32-.06-.08-.12-.18-.2-.22-.09-.03-.19-.01-.28-.01-.23,0-.43.06-.57.21-.15.15-.2.41-.2.74,0,.07-.02.07-.02.14Z"/>
          <path class="cls-1" d="M69.36,12.68c.18.13-.06.23.01.43.1-.16.21-.27.35-.36.14-.08.29-.1.45-.1.06,0,.11,0,.16,0s.1-.01.14,0c-.02.3-.04.3-.1.6-.04-.01-.08,0-.13-.01-.05,0-.1,0-.15,0-.12,0-.22.01-.31.05-.09.04-.16.09-.22.16s-.14.13-.17.21c-.03.08-.02.18-.02.26,0,.44-.02.44-.02.88s.28.52.02.88c-.18.26-.43.24-.63,0-.24-.29,0-.38,0-.75s-.02-.37-.02-.75.02-.37.02-.75-.14-.4,0-.75c.11-.3.36-.17.61,0Z"/>
          <path class="cls-1" d="M72.24,15.75c-.21,0-.41-.02-.57-.08-.19-.07-.34-.18-.47-.33s-.21-.34-.27-.55c-.05-.18-.08-.39-.08-.62s0-.46.06-.66c.06-.2.18-.35.3-.49.12-.14.26-.26.44-.34.18-.08.38-.11.61-.11s.43.05.61.12c.18.08.33.19.45.32s.18.32.24.51.12.4.12.63c0,.26-.05.48-.12.68-.07.2-.15.37-.28.51-.13.14-.28.24-.45.31-.17.07-.37.09-.58.09ZM72.24,15.23c.27,0,.45-.11.58-.3s.19-.45.19-.78-.04-.6-.17-.79-.34-.29-.61-.29-.45.13-.57.32c-.12.19-.21.44-.21.76s.08.58.2.77c.12.19.31.3.58.3Z"/>
          <path class="cls-1" d="M74.68,12.68c.31.24.14.37.26.74s.12.38.24.76-.14.77.25.78.15-.39.27-.77.09-.39.22-.77-.04-.49.27-.74c.27-.22.53-.32.7-.01.19.35-.14.38-.29.75s-.15.37-.29.75-.14.38-.28.75,0,.47-.31.73c-.25.2-.38.23-.63.02-.31-.25-.13-.38-.27-.75s-.16-.37-.3-.74-.15-.37-.29-.75-.35-.36-.28-.75.44-.22.73,0Z"/>
          <path class="cls-1" d="M79.83,14.78c-.05.31-.17.55-.37.72-.2.17-.5.25-.88.25-.21,0-.4-.05-.56-.11-.19-.07-.34-.17-.46-.31-.13-.15-.26-.31-.32-.52-.05-.18-.05-.39-.05-.62,0-.26.02-.49.09-.69s.17-.37.29-.51c.12-.14.28-.24.45-.31.17-.07.36-.11.57-.11.22,0,.4.07.56.14.16.07.31.14.42.27.11.13.17.29.22.47.05.18.1.37.1.59,0,.14.13.24,0,.29-.32.13-.35,0-.69,0s-.35.02-.69.02-.37-.15-.69-.02c0,.27.08.49.2.66.13.17.31.23.57.23.2,0,.36,0,.46-.08.1-.08.14-.23.18-.37.25-.19.35-.12.62.02ZM79.26,13.88c0-.25-.06-.44-.17-.59-.11-.14-.28-.22-.53-.22s-.43.06-.55.2c-.12.14-.18.38-.2.62.34.12.37-.08.73-.04s.38.14.72.03Z"/>
          <path class="cls-1" d="M3.77,23.29c-.17-.19-.19-.32-.01-.52.15-.17.35.21.46,0,.2-.35-.23-.47.02-.79.19-.25.39-.25.58,0,.25.32-.23.47.04.77.24.27.4-.19.69.02.21.15.22.37.01.52-.29.21-.47-.27-.72,0-.26.29,0,.39,0,.78s0,.39,0,.78c0,.15,0,.29.06.36.06.07.18.08.3.08.06,0,.13.02.18.01.06,0,.12-.04.17-.06.08.24.13.25.1.49-.18.06-.38.09-.58.09-.32,0-.56-.08-.68-.25-.13-.17-.17-.44-.17-.78,0-.38,0-.38,0-.75s.14-.4-.03-.74c-.11-.22-.27.15-.42-.02Z"/>
          <path class="cls-1" d="M6.8,21.67c.24.3.02.38.02.76s-.09.39-.01.77c.12-.17.28-.27.44-.35.16-.08.32-.12.5-.12.34,0,.61.06.77.26.14.18.19.46.19.81,0,.33.02.33.02.66s0,.33,0,.66.22.42,0,.66-.41.22-.64,0,.04-.32.04-.63-.04-.31-.04-.63.03-.31.03-.63c0-.24-.07-.41-.15-.51-.08-.1-.21-.14-.37-.14-.11,0-.22.02-.31.06-.09.04-.16.11-.22.18-.07.07-.14.13-.18.22-.04.09-.05.19-.05.28,0,.45.03.45.03.89s.2.52-.06.88c-.18.26-.42.26-.63.03-.23-.25,0-.36,0-.7s0-.34,0-.68.04-.34.04-.69,0-.34,0-.69,0-.34,0-.69-.13-.37,0-.68.4-.24.6,0Z"/>
          <path class="cls-1" d="M12.08,24.9c-.05.31-.17.55-.37.72-.2.17-.5.25-.88.25-.21,0-.4-.05-.56-.11-.19-.07-.34-.17-.46-.31-.13-.15-.26-.31-.32-.52-.05-.18-.05-.39-.05-.62,0-.26.02-.49.09-.69s.17-.37.29-.51c.12-.14.28-.24.45-.31.17-.07.36-.11.57-.11.22,0,.4.07.56.14.16.07.31.14.42.27.11.13.17.29.22.47.05.18.1.37.1.59,0,.14.13.24,0,.29-.32.13-.35,0-.69,0s-.35.02-.69.02-.37-.15-.69-.02c0,.27.08.49.2.66.13.17.31.23.57.23.2,0,.36,0,.46-.08.1-.08.14-.23.18-.37.25-.19.35-.12.62.02ZM11.51,23.99c0-.25-.06-.44-.17-.59-.11-.14-.28-.22-.53-.22s-.43.06-.55.2c-.12.14-.18.38-.2.62.34.12.37-.08.73-.04s.38.14.72.03Z"/>
          <path class="cls-1" d="M16.82,24.74c-.04.36-.15.63-.36.84-.21.2-.51.29-.9.29-.23,0-.42-.06-.6-.13-.17-.08-.31-.17-.42-.31s-.24-.28-.29-.48c-.06-.19-.06-.41-.06-.65s.01-.46.08-.66.16-.37.28-.51.27-.24.45-.32c.17-.08.37-.12.59-.12.2,0,.36.06.5.12.14.06.27.1.36.19.09.09.15.21.2.33.05.12.11.25.13.38-.3.11-.31.13-.63.1-.03-.17-.09-.31-.17-.42-.08-.11-.22-.15-.42-.15-.14,0-.26,0-.35.07-.09.06-.16.15-.22.24-.06.1-.07.21-.09.34-.02.13-.08.25-.08.38,0,.15.05.29.08.42s.06.24.11.33.12.17.22.22c.09.06.2.11.33.11.19,0,.35-.06.45-.17.1-.11.16-.26.18-.46.24-.22.35-.16.63,0Z"/>
          <path class="cls-1" d="M18.13,22.79c.22.22.01.31.01.62s0,.31,0,.63-.02.31-.02.63c0,.25.05.44.13.53.08.09.22.11.38.11.09,0,.18,0,.27-.03.09-.03.16-.1.23-.16s.13-.14.17-.23c.04-.09.07-.19.07-.31,0-.45,0-.45,0-.89s-.23-.51.03-.87c.18-.26.4-.26.61-.02.24.28-.02.37-.02.75s.02.37.02.75,0,.37,0,.75.23.46,0,.75c-.2.24-.38.19-.63.01-.18-.13.12-.26.01-.45-.13.18-.28.32-.43.41s-.32.15-.5.15c-.34,0-.57-.13-.71-.31-.15-.18-.25-.45-.25-.82,0-.33,0-.33,0-.66s0-.33,0-.66-.11-.35.03-.65.38-.22.6,0Z"/>
          <path class="cls-1" d="M21.44,22.79c.18.13-.06.23.01.43.1-.16.21-.27.35-.36.14-.08.29-.1.45-.1.06,0,.11,0,.16,0s.1-.01.14,0c-.02.3-.04.3-.1.6-.04-.01-.08,0-.13-.01-.05,0-.1,0-.15,0-.12,0-.22.01-.31.05-.09.04-.16.09-.22.16s-.14.13-.17.21c-.03.08-.02.18-.02.26,0,.44-.02.44-.02.88s.28.52.02.88c-.18.26-.43.24-.63,0-.24-.29,0-.38,0-.75s-.02-.37-.02-.75.02-.37.02-.75-.14-.4,0-.75c.11-.3.36-.17.61,0Z"/>
          <path class="cls-1" d="M23.74,22.79c.18.13-.06.23.01.43.1-.16.21-.27.35-.36.14-.08.29-.1.45-.1.06,0,.11,0,.16,0s.1-.01.14,0c-.02.3-.04.3-.1.6-.04-.01-.08,0-.13-.01-.05,0-.1,0-.15,0-.12,0-.22.01-.31.05-.09.04-.16.09-.22.16s-.14.13-.17.21c-.03.08-.02.18-.02.26,0,.44-.02.44-.02.88s.28.52.02.88c-.18.26-.43.24-.63,0-.24-.29,0-.38,0-.75s-.02-.37-.02-.75.02-.37.02-.75-.14-.4,0-.75c.11-.3.36-.17.61,0Z"/>
          <path class="cls-1" d="M27.86,24.9c-.05.31-.17.55-.37.72-.2.17-.5.25-.88.25-.21,0-.4-.05-.56-.11-.19-.07-.34-.17-.46-.31-.13-.15-.26-.31-.32-.52-.05-.18-.05-.39-.05-.62,0-.26.02-.49.09-.69s.17-.37.29-.51c.12-.14.28-.24.45-.31.17-.07.36-.11.57-.11.22,0,.4.07.56.14.16.07.31.14.42.27.11.13.17.29.22.47.05.18.1.37.1.59,0,.14.13.24,0,.29-.32.13-.35,0-.69,0s-.35.02-.69.02-.37-.15-.69-.02c0,.27.08.49.2.66.13.17.31.23.57.23.2,0,.36,0,.46-.08.1-.08.14-.23.18-.37.25-.19.35-.12.62.02ZM27.29,23.99c0-.25-.06-.44-.17-.59-.11-.14-.28-.22-.53-.22s-.43.06-.55.2c-.12.14-.18.38-.2.62.34.12.37-.08.73-.04s.38.14.72.03Z"/>
          <path class="cls-1" d="M29.24,22.79c.18.13-.09.23.01.43.13-.18.27-.31.43-.4.16-.08.33-.1.52-.1.34,0,.57.09.73.3.14.18.25.44.25.78,0,.33-.03.33-.03.66s.02.33.02.66.23.43,0,.67-.41.22-.64,0,0-.31,0-.63.03-.31.03-.63-.03-.31-.03-.63c0-.24-.03-.42-.11-.52-.08-.1-.22-.13-.39-.13-.11,0-.21.02-.31.06-.09.04-.17.09-.24.16-.07.07-.1.15-.14.24-.04.09-.08.18-.08.28,0,.45,0,.45,0,.89s.28.54.02.91c-.18.26-.44.21-.64-.03-.24-.29-.03-.36-.03-.74s0-.37,0-.75,0-.37,0-.75-.11-.39.03-.74c.11-.3.34-.18.59,0Z"/>
          <path class="cls-1" d="M31.7,23.29c-.17-.19-.19-.32-.01-.52.15-.17.35.21.46,0,.2-.35-.23-.47.02-.79.19-.25.39-.25.58,0,.25.32-.23.47.04.77.24.27.4-.19.69.02.21.15.22.37.01.52-.29.21-.47-.27-.72,0-.26.29,0,.39,0,.78s0,.39,0,.78c0,.15,0,.29.06.36.06.07.18.08.3.08.06,0,.13.02.18.01.06,0,.12-.04.17-.06.08.24.13.25.1.49-.18.06-.38.09-.58.09-.32,0-.56-.08-.68-.25-.13-.17-.17-.44-.17-.78,0-.38,0-.38,0-.75s.14-.4-.03-.74c-.11-.22-.27.15-.42-.02Z"/>
          <path class="cls-1" d="M36.14,22.79c.22.22.01.31.01.62s0,.31,0,.63-.02.31-.02.63c0,.25.05.44.13.53.08.09.22.11.38.11.09,0,.18,0,.27-.03.09-.03.16-.1.23-.16s.13-.14.17-.23c.04-.09.07-.19.07-.31,0-.45,0-.45,0-.89s-.23-.51.03-.87c.18-.26.4-.26.61-.02.24.28-.02.37-.02.75s.02.37.02.75,0,.37,0,.75.23.46,0,.75c-.2.24-.38.19-.63.01-.18-.13.12-.26.01-.45-.13.18-.28.32-.43.41s-.32.15-.5.15c-.34,0-.57-.13-.71-.31-.15-.18-.25-.45-.25-.82,0-.33,0-.33,0-.66s0-.33,0-.66-.11-.35.03-.65.38-.22.6,0Z"/>
          <path class="cls-1" d="M39.28,24.87c.01.1.04.17.09.23.04.06.08.12.14.16.06.04.13.09.21.1.08.01.17.02.26.02.21,0,.35-.07.44-.14.09-.07.16-.15.16-.27,0-.1-.04-.18-.1-.25-.06-.07-.17-.12-.35-.15-.23-.04-.43-.09-.6-.13-.17-.04-.32-.09-.44-.16-.12-.07-.18-.17-.24-.28s-.12-.23-.12-.41c0-.14.05-.26.11-.37s.12-.22.23-.3.23-.14.38-.18c.15-.04.31-.06.48-.06.22,0,.41,0,.56.05.15.05.26.13.35.21.09.08.17.17.22.27.05.1.09.24.12.36-.27.1-.29.07-.57.04-.04-.15-.13-.23-.22-.3-.09-.07-.23-.11-.44-.11-.12,0-.22,0-.3.03-.08.02-.16.02-.2.06-.05.03-.08.08-.09.13-.02.04-.02.09-.02.13,0,.07,0,.12.02.17.01.04.07.06.1.08s.09.04.15.06c.07.02.14.09.24.11.18.03.18.03.36.06.19.03.35.06.48.12s.24.11.32.19.13.18.16.28c.03.1.07.22.07.35,0,.27-.15.47-.35.64s-.49.28-.89.28c-.17,0-.33,0-.49-.03-.15-.03-.28-.13-.4-.21-.12-.08-.2-.18-.28-.31-.08-.13-.16-.29-.17-.48.24-.19.32-.03.62.02Z"/>
          <path class="cls-1" d="M44.41,24.9c-.05.31-.17.55-.37.72-.2.17-.5.25-.88.25-.21,0-.4-.05-.56-.11-.19-.07-.34-.17-.46-.31-.13-.15-.26-.31-.32-.52-.05-.18-.05-.39-.05-.62,0-.26.02-.49.09-.69s.17-.37.29-.51c.12-.14.28-.24.45-.31.17-.07.36-.11.57-.11.22,0,.4.07.56.14.16.07.31.14.42.27.11.13.17.29.22.47.05.18.1.37.1.59,0,.14.13.24,0,.29-.32.13-.35,0-.69,0s-.35.02-.69.02-.37-.15-.69-.02c0,.27.08.49.2.66.13.17.31.23.57.23.2,0,.36,0,.46-.08.1-.08.14-.23.18-.37.25-.19.35-.12.62.02ZM43.84,23.99c0-.25-.06-.44-.17-.59-.11-.14-.28-.22-.53-.22s-.43.06-.55.2c-.12.14-.18.38-.2.62.34.12.37-.08.73-.04s.38.14.72.03Z"/>
          <path class="cls-1" d="M45.79,22.79c.18.13-.06.23.01.43.1-.16.21-.27.35-.36.14-.08.29-.1.45-.1.06,0,.11,0,.16,0s.1-.01.14,0c-.02.3-.04.3-.1.6-.04-.01-.08,0-.13-.01-.05,0-.1,0-.15,0-.12,0-.22.01-.31.05-.09.04-.16.09-.22.16s-.14.13-.17.21c-.03.08-.02.18-.02.26,0,.44-.02.44-.02.88s.28.52.02.88c-.18.26-.43.24-.63,0-.24-.29,0-.38,0-.75s-.02-.37-.02-.75.02-.37.02-.75-.14-.4,0-.75c.11-.3.36-.17.61,0Z"/>
          <path class="cls-1" d="M51.47,24.9c-.05.31-.17.55-.37.72-.2.17-.5.25-.88.25-.21,0-.4-.05-.56-.11-.19-.07-.34-.17-.46-.31-.13-.15-.26-.31-.32-.52-.05-.18-.05-.39-.05-.62,0-.26.02-.49.09-.69s.17-.37.29-.51c.12-.14.28-.24.45-.31.17-.07.36-.11.57-.11.22,0,.4.07.56.14.16.07.31.14.42.27.11.13.17.29.22.47.05.18.1.37.1.59,0,.14.13.24,0,.29-.32.13-.35,0-.69,0s-.35.02-.69.02-.37-.15-.69-.02c0,.27.08.49.2.66.13.17.31.23.57.23.2,0,.36,0,.46-.08.1-.08.14-.23.18-.37.25-.19.35-.12.62.02ZM50.9,23.99c0-.25-.06-.44-.17-.59-.11-.14-.28-.22-.53-.22s-.43.06-.55.2c-.12.14-.18.38-.2.62.34.12.37-.08.73-.04s.38.14.72.03Z"/>
          <path class="cls-1" d="M51.88,22.78c.13-.35.4-.16.74,0,.25.12.14.25.29.49s.02.5.3.5.18-.25.33-.49.03-.38.29-.51c.3-.15.57-.3.66.02.11.41-.22.35-.45.71s-.42.28-.47.7c-.03.31.16.26.34.53s.17.26.34.53.5.26.32.51c-.22.29-.38.18-.71.02-.29-.15-.16-.28-.33-.56s-.03-.53-.36-.53-.17.27-.34.55-.07.39-.35.55c-.3.16-.52.3-.7,0-.17-.26.19-.27.37-.53s.17-.26.34-.52.36-.2.32-.51c-.04-.43-.12-.44-.44-.73-.34-.32-.63-.3-.48-.71Z"/>
          <path class="cls-1" d="M55.12,22.79c.21-.23.36-.19.61-.02.17.12-.1.24,0,.42.12-.17.27-.26.43-.35s.31-.13.51-.13.39-.02.54.06c.15.07.26.21.36.35.1.14.2.3.25.49.05.19.07.41.07.65s-.04.46-.1.66-.14.37-.25.51c-.11.14-.26.21-.42.28-.16.07-.31.15-.51.15-.16,0-.3-.05-.45-.12s-.29-.15-.42-.32c-.08.36,0,.36,0,.73s.23.46,0,.73c-.21.24-.44.25-.65.01-.23-.25.02-.36.02-.7s0-.34,0-.68-.04-.34-.04-.69.06-.34.06-.69.02-.35-.05-.68c-.07-.35-.19-.43.04-.69ZM55.73,24.33c0,.2.04.35.08.48.04.13.08.24.15.31.07.08.14.16.23.19.09.03.2.05.3.05s.19-.07.28-.11.19-.07.25-.15c.07-.08.1-.2.14-.34.04-.13.06-.29.06-.49s-.01-.36-.05-.49c-.04-.13-.09-.24-.16-.32-.06-.08-.12-.18-.2-.22-.09-.03-.19-.01-.28-.01-.23,0-.43.06-.57.21-.15.15-.2.41-.2.74,0,.07-.02.07-.02.14Z"/>
          <path class="cls-1" d="M61.12,24.9c-.05.31-.17.55-.37.72-.2.17-.5.25-.88.25-.21,0-.4-.05-.56-.11-.19-.07-.34-.17-.46-.31-.13-.15-.26-.31-.32-.52-.05-.18-.05-.39-.05-.62,0-.26.02-.49.09-.69s.17-.37.29-.51c.12-.14.28-.24.45-.31.17-.07.36-.11.57-.11.22,0,.4.07.56.14.16.07.31.14.42.27.11.13.17.29.22.47.05.18.1.37.1.59,0,.14.13.24,0,.29-.32.13-.35,0-.69,0s-.35.02-.69.02-.37-.15-.69-.02c0,.27.08.49.2.66.13.17.31.23.57.23.2,0,.36,0,.46-.08.1-.08.14-.23.18-.37.25-.19.35-.12.62.02ZM60.55,23.99c0-.25-.06-.44-.17-.59-.11-.14-.28-.22-.53-.22s-.43.06-.55.2c-.12.14-.18.38-.2.62.34.12.37-.08.73-.04s.38.14.72.03Z"/>
          <path class="cls-1" d="M62.51,22.79c.18.13-.06.23.01.43.1-.16.21-.27.35-.36.14-.08.29-.1.45-.1.06,0,.11,0,.16,0s.1-.01.14,0c-.02.3-.04.3-.1.6-.04-.01-.08,0-.13-.01-.05,0-.1,0-.15,0-.12,0-.22.01-.31.05-.09.04-.16.09-.22.16s-.14.13-.17.21c-.03.08-.02.18-.02.26,0,.44-.02.44-.02.88s.28.52.02.88c-.18.26-.43.24-.63,0-.24-.29,0-.38,0-.75s-.02-.37-.02-.75.02-.37.02-.75-.14-.4,0-.75c.11-.3.36-.17.61,0Z"/>
          <path class="cls-1" d="M64.84,21.67c.23.23.25.42.02.65s-.43.22-.66,0-.11-.34.03-.63c.15-.31.38-.24.62,0ZM64.83,22.79c.24.28.02.37.02.74s-.01.37-.01.75-.03.37-.03.75.25.44,0,.73c-.2.24-.42.28-.63.03-.24-.28.03-.39.03-.76s-.02-.37-.02-.75,0-.37,0-.75-.14-.41,0-.75c.13-.31.42-.23.63,0Z"/>
          <path class="cls-1" d="M68.25,24.9c-.05.31-.17.55-.37.72-.2.17-.5.25-.88.25-.21,0-.4-.05-.56-.11-.19-.07-.34-.17-.46-.31-.13-.15-.26-.31-.32-.52-.05-.18-.05-.39-.05-.62,0-.26.02-.49.09-.69s.17-.37.29-.51c.12-.14.28-.24.45-.31.17-.07.36-.11.57-.11.22,0,.4.07.56.14.16.07.31.14.42.27.11.13.17.29.22.47.05.18.1.37.1.59,0,.14.13.24,0,.29-.32.13-.35,0-.69,0s-.35.02-.69.02-.37-.15-.69-.02c0,.27.08.49.2.66.13.17.31.23.57.23.2,0,.36,0,.46-.08.1-.08.14-.23.18-.37.25-.19.35-.12.62.02ZM67.68,23.99c0-.25-.06-.44-.17-.59-.11-.14-.28-.22-.53-.22s-.43.06-.55.2c-.12.14-.18.38-.2.62.34.12.37-.08.73-.04s.38.14.72.03Z"/>
          <path class="cls-1" d="M69.63,22.79c.18.13-.09.23.01.43.13-.18.27-.31.43-.4.16-.08.33-.1.52-.1.34,0,.57.09.73.3.14.18.25.44.25.78,0,.33-.03.33-.03.66s.02.33.02.66.23.43,0,.67-.41.22-.64,0,0-.31,0-.63.03-.31.03-.63-.03-.31-.03-.63c0-.24-.03-.42-.11-.52-.08-.1-.22-.13-.39-.13-.11,0-.21.02-.31.06-.09.04-.17.09-.24.16-.07.07-.1.15-.14.24-.04.09-.08.18-.08.28,0,.45,0,.45,0,.89s.28.54.02.91c-.18.26-.44.21-.64-.03-.24-.29-.03-.36-.03-.74s0-.37,0-.75,0-.37,0-.75-.11-.39.03-.74c.11-.3.34-.18.59,0Z"/>
          <path class="cls-1" d="M74.9,24.74c-.04.36-.15.63-.36.84-.21.2-.51.29-.9.29-.23,0-.42-.06-.6-.13-.17-.08-.31-.17-.42-.31s-.24-.28-.29-.48c-.06-.19-.06-.41-.06-.65s.01-.46.08-.66.16-.37.28-.51.27-.24.45-.32c.17-.08.37-.12.59-.12.2,0,.36.06.5.12.14.06.27.1.36.19.09.09.15.21.2.33.05.12.11.25.13.38-.3.11-.31.13-.63.1-.03-.17-.09-.31-.17-.42-.08-.11-.22-.15-.42-.15-.14,0-.26,0-.35.07-.09.06-.16.15-.22.24-.06.1-.07.21-.09.34-.02.13-.08.25-.08.38,0,.15.05.29.08.42s.06.24.11.33.12.17.22.22c.09.06.2.11.33.11.19,0,.35-.06.45-.17.1-.11.16-.26.18-.46.24-.22.35-.16.63,0Z"/>
          <path class="cls-1" d="M78.09,24.9c-.05.31-.17.55-.37.72-.2.17-.5.25-.88.25-.21,0-.4-.05-.56-.11-.19-.07-.34-.17-.46-.31-.13-.15-.26-.31-.32-.52-.05-.18-.05-.39-.05-.62,0-.26.02-.49.09-.69s.17-.37.29-.51c.12-.14.28-.24.45-.31.17-.07.36-.11.57-.11.22,0,.4.07.56.14.16.07.31.14.42.27.11.13.17.29.22.47.05.18.1.37.1.59,0,.14.13.24,0,.29-.32.13-.35,0-.69,0s-.35.02-.69.02-.37-.15-.69-.02c0,.27.08.49.2.66.13.17.31.23.57.23.2,0,.36,0,.46-.08.1-.08.14-.23.18-.37.25-.19.35-.12.62.02ZM77.52,23.99c0-.25-.06-.44-.17-.59-.11-.14-.28-.22-.53-.22s-.43.06-.55.2c-.12.14-.18.38-.2.62.34.12.37-.08.73-.04s.38.14.72.03Z"/>
          <path class="cls-1" d="M4.35,35.49c-.11.13-.24.26-.4.34s-.35.12-.57.12c-.14,0-.26-.04-.38-.08-.12-.04-.21-.08-.3-.16-.09-.07-.19-.14-.24-.25s-.05-.25-.05-.41c0-.21.03-.38.12-.51.09-.13.21-.23.35-.3.14-.07.31-.12.48-.15.18-.03.35-.05.53-.06.21-.01.24.08.44.01.06-.02-.01-.09-.01-.16,0-.23-.04-.4-.15-.48-.1-.09-.25-.11-.42-.11-.2,0-.34.04-.43.1-.09.07-.16.17-.19.3-.29.03-.35.11-.59-.05.05-.29.19-.52.4-.65.2-.13.48-.21.84-.21.23,0,.43,0,.58.07.15.06.25.18.33.29.09.11.18.22.22.37.04.15.05.32.05.49,0,.31,0,.31,0,.62s-.03.31-.03.62.23.39.01.62-.31.12-.59,0c-.19-.08.08-.21,0-.39ZM3.93,34.48c-.19.01-.34.05-.46.08-.12.03-.21.06-.27.11-.06.05-.13.1-.15.16-.02.06-.03.14-.03.21,0,.13.08.22.15.29.08.07.18.13.34.13.28,0,.48-.09.61-.23.13-.15.2-.34.2-.59,0-.09.07-.12,0-.17-.15-.13-.2,0-.4,0Z"/>
          <path class="cls-1" d="M6.37,32.9c.18.13-.09.23.01.43.13-.18.27-.31.43-.4.16-.08.33-.1.52-.1.34,0,.57.09.73.3.14.18.25.44.25.78,0,.33-.03.33-.03.66s.02.33.02.66.23.43,0,.67-.41.22-.64,0,0-.31,0-.63.03-.31.03-.63-.03-.31-.03-.63c0-.24-.03-.42-.11-.52-.08-.1-.22-.13-.39-.13-.11,0-.21.02-.31.06-.09.04-.17.09-.24.16-.07.07-.1.15-.14.24-.04.09-.08.18-.08.28,0,.45,0,.45,0,.89s.28.54.02.91c-.18.26-.44.21-.64-.03-.24-.29-.03-.36-.03-.74s0-.37,0-.75,0-.37,0-.75-.11-.39.03-.74c.11-.3.34-.18.59,0Z"/>
          <path class="cls-1" d="M11.16,35.47c-.12.17-.26.31-.41.39-.15.08-.33.12-.53.12s-.37-.07-.52-.14c-.15-.08-.27-.17-.37-.31-.1-.14-.22-.28-.27-.48-.05-.19-.04-.41-.04-.65,0-.22,0-.43.06-.62.05-.19.13-.36.23-.5.1-.14.23-.25.38-.33s.32-.14.51-.14c.04,0,.07.04.11.04s.08-.04.12-.04c.13.02.24.08.36.14s.24.14.35.27c.07-.36,0-.36,0-.72s-.23-.45,0-.73c.2-.24.44-.25.65-.01.23.25-.02.36-.02.7s0,.34,0,.68.04.34.04.69-.06.34-.06.69.05.34.05.69.22.44-.01.7c-.21.23-.36.13-.64,0-.2-.09.11-.25.02-.43ZM11.15,34.33c0-.19-.04-.34-.08-.47-.04-.13-.08-.24-.15-.31s-.14-.16-.23-.19c-.09-.03-.2-.05-.3-.05-.23,0-.39.13-.52.3-.13.17-.22.42-.22.77,0,.19.04.35.07.49.04.13.08.24.15.33.06.08.13.15.22.19.08.04.18.05.28.05.23,0,.45-.04.59-.2.14-.16.18-.43.18-.76,0-.08.01-.08.01-.16Z"/>
          <path class="cls-1" d="M16.08,35.47c-.12.17-.26.31-.41.39-.15.08-.33.12-.53.12s-.37-.07-.52-.14c-.15-.08-.27-.17-.37-.31-.1-.14-.22-.28-.27-.48-.05-.19-.04-.41-.04-.65,0-.22,0-.43.06-.62.05-.19.13-.36.23-.5.1-.14.23-.25.38-.33s.32-.14.51-.14c.04,0,.07.04.11.04s.08-.04.12-.04c.13.02.24.08.36.14s.24.14.35.27c.07-.36,0-.36,0-.72s-.23-.45,0-.73c.2-.24.44-.25.65-.01.23.25-.02.36-.02.7s0,.34,0,.68.04.34.04.69-.06.34-.06.69.05.34.05.69.22.44-.01.7c-.21.23-.36.13-.64,0-.2-.09.11-.25.02-.43ZM16.08,34.33c0-.19-.04-.34-.08-.47-.04-.13-.08-.24-.15-.31s-.14-.16-.23-.19c-.09-.03-.2-.05-.3-.05-.23,0-.39.13-.52.3-.13.17-.22.42-.22.77,0,.19.04.35.07.49.04.13.08.24.15.33.06.08.13.15.22.19.08.04.18.05.28.05.23,0,.45-.04.59-.2.14-.16.18-.43.18-.76,0-.08.01-.08.01-.16Z"/>
          <path class="cls-1" d="M20.09,35.01c-.05.31-.17.55-.37.72-.2.17-.5.25-.88.25-.21,0-.4-.05-.56-.11-.19-.07-.34-.17-.46-.31-.13-.15-.26-.31-.32-.52-.05-.18-.05-.39-.05-.62,0-.26.02-.49.09-.69s.17-.37.29-.51c.12-.14.28-.24.45-.31.17-.07.36-.11.57-.11.22,0,.4.07.56.14.16.07.31.14.42.27.11.13.17.29.22.47.05.18.1.37.1.59,0,.14.13.24,0,.29-.32.13-.35,0-.69,0s-.35.02-.69.02-.37-.15-.69-.02c0,.27.08.49.2.66.13.17.31.23.57.23.2,0,.36,0,.46-.08.1-.08.14-.23.18-.37.25-.19.35-.12.62.02ZM19.52,34.11c0-.25-.06-.44-.17-.59-.11-.14-.28-.22-.53-.22s-.43.06-.55.2c-.12.14-.18.38-.2.62.34.12.37-.08.73-.04s.38.14.72.03Z"/>
          <path class="cls-1" d="M21.3,34.98c.01.1.04.17.09.23.04.06.08.12.14.16.06.04.13.09.21.1.08.01.17.02.26.02.21,0,.35-.07.44-.14.09-.07.16-.15.16-.27,0-.1-.04-.18-.1-.25-.06-.07-.17-.12-.35-.15-.23-.04-.43-.09-.6-.13-.17-.04-.32-.09-.44-.16-.12-.07-.18-.17-.24-.28s-.12-.23-.12-.41c0-.14.05-.26.11-.37s.12-.22.23-.3.23-.14.38-.18c.15-.04.31-.06.48-.06.22,0,.41,0,.56.05.15.05.26.13.35.21.09.08.17.17.22.27.05.1.09.24.12.36-.27.1-.29.07-.57.04-.04-.15-.13-.23-.22-.3-.09-.07-.23-.11-.44-.11-.12,0-.22,0-.3.03-.08.02-.16.02-.2.06-.05.03-.08.08-.09.13-.02.04-.02.09-.02.13,0,.07,0,.12.02.17.01.04.07.06.1.08s.09.04.15.06c.07.02.14.09.24.11.18.03.18.03.36.06.19.03.35.06.48.12s.24.11.32.19.13.18.16.28c.03.1.07.22.07.35,0,.27-.15.47-.35.64s-.49.28-.89.28c-.17,0-.33,0-.49-.03-.15-.03-.28-.13-.4-.21-.12-.08-.2-.18-.28-.31-.08-.13-.16-.29-.17-.48.24-.19.32-.03.62.02Z"/>
          <path class="cls-1" d="M24.57,31.79c.23.23.25.42.02.65s-.43.22-.66,0-.11-.34.03-.63c.15-.31.38-.24.62,0ZM24.56,32.9c.24.28.02.37.02.74s-.01.37-.01.75-.03.37-.03.75.25.44,0,.73c-.2.24-.42.28-.63.03-.24-.28.03-.39.03-.76s-.02-.37-.02-.75,0-.37,0-.75-.14-.41,0-.75c.13-.31.42-.23.63,0Z"/>
          <path class="cls-1" d="M26.06,36.13c.03.16.11.25.2.32.1.06.25.11.47.11.17,0,.33,0,.43-.08.1-.07.19-.19.24-.34.05-.14.01-.35.01-.6,0-.1.12-.17.03-.21-.1.15-.23.29-.39.37s-.34.12-.53.12c-.39,0-.69-.14-.9-.41-.11-.14-.2-.32-.25-.52-.04-.17-.02-.37-.02-.58s-.02-.41.03-.58c.06-.2.17-.35.29-.5.23-.28.52-.44.9-.44.36,0,.65.15.88.45.18-.05-.16-.27,0-.36.27-.16.42-.24.64-.01s-.02.34-.02.65,0,.32,0,.64.04.32.04.64-.06.32-.06.64c0,.25.03.47,0,.66-.05.25-.15.45-.28.6-.12.14-.28.24-.47.31-.16.05-.35.04-.56.04-.42,0-.72-.06-.93-.21-.21-.15-.33-.37-.37-.7.19-.26.31-.07.62,0ZM27.46,34.28c0-.31-.08-.54-.21-.7-.13-.16-.3-.25-.55-.25-.23,0-.44.07-.56.23s-.2.43-.2.74.11.54.24.71c.12.17.28.28.5.28.24,0,.42-.1.56-.26.13-.16.2-.38.2-.67,0-.05.02-.05.02-.09Z"/>
          <path class="cls-1" d="M29.51,32.9c.18.13-.09.23.01.43.13-.18.27-.31.43-.4.16-.08.33-.1.52-.1.34,0,.57.09.73.3.14.18.25.44.25.78,0,.33-.03.33-.03.66s.02.33.02.66.23.43,0,.67-.41.22-.64,0,0-.31,0-.63.03-.31.03-.63-.03-.31-.03-.63c0-.24-.03-.42-.11-.52-.08-.1-.22-.13-.39-.13-.11,0-.21.02-.31.06-.09.04-.17.09-.24.16-.07.07-.1.15-.14.24-.04.09-.08.18-.08.28,0,.45,0,.45,0,.89s.28.54.02.91c-.18.26-.44.21-.64-.03-.24-.29-.03-.36-.03-.74s0-.37,0-.75,0-.37,0-.75-.11-.39.03-.74c.11-.3.34-.18.59,0Z"/>
          <path class="cls-1" d="M35,35.97c-.21,0-.41-.02-.57-.08-.19-.07-.34-.18-.47-.33s-.21-.34-.27-.55c-.05-.18-.08-.39-.08-.62s0-.46.06-.66c.06-.2.18-.35.3-.49.12-.14.26-.26.44-.34.18-.08.38-.11.61-.11s.43.05.61.12c.18.08.33.19.45.32s.18.32.24.51.12.4.12.63c0,.26-.05.48-.12.68-.07.2-.15.37-.28.51-.13.14-.28.24-.45.31-.17.07-.37.09-.58.09ZM35.01,35.46c.27,0,.45-.11.58-.3s.19-.45.19-.78-.04-.6-.17-.79-.34-.29-.61-.29-.45.13-.57.32c-.12.19-.21.44-.21.76s.08.58.2.77c.12.19.31.3.58.3Z"/>
          <path class="cls-1" d="M37.36,33.41c-.11-.2-.32.18-.47.01-.17-.2-.16-.33,0-.52.15-.17.25.11.46.03.08-.03.02-.12.02-.2,0-.31.04-.58.2-.75s.41-.23.71-.23c.2,0,.39.01.55.07.03.25,0,.27-.1.5-.11-.03-.23-.05-.34-.05-.14,0-.24.04-.31.12-.07.08-.16.19-.16.34,0,.1-.05.16.04.19.34.09.4-.19.68.02.21.15.22.35.02.5-.28.21-.47-.27-.7,0-.27.31,0,.41,0,.82s.02.41.02.83.22.5-.03.82c-.19.25-.44.26-.63,0-.25-.33-.04-.41-.04-.83s0-.41.06-.82.19-.47-.01-.83Z"/>
          <path class="cls-1" d="M42.11,31.79c.3,0,.55.02.74.09s.34.18.45.3c.11.12.16.25.21.4s.07.27.07.41c0,.27,0,.51-.1.69-.1.18-.3.32-.52.43.02.33.16.29.29.59s.14.3.27.6.47.34.27.6c-.22.29-.44.22-.74,0-.36-.27-.14-.43-.31-.84s-.2-.4-.39-.8c-.03,0-.07-.02-.1-.02-.04,0-.07.03-.12.03-.35,0-.47-.27-.7,0-.27.31,0,.4,0,.81s.27.51.02.83c-.21.26-.45.22-.68-.02s0-.34,0-.68-.03-.34-.03-.68.06-.34.06-.69-.05-.34-.05-.69,0-.34,0-.69-.23-.45,0-.7.35.03.69.04.34-.02.68-.02ZM42.16,33.69c.15,0,.27-.04.37-.07.1-.03.18-.07.24-.13.06-.06.13-.12.15-.21.02-.08.03-.19.03-.29,0-.1-.07-.18-.09-.25-.03-.08-.04-.16-.11-.22-.06-.06-.16-.08-.27-.11-.11-.03-.24-.05-.4-.05-.34,0-.43-.25-.68,0s0,.33,0,.66-.2.39-.04.68c.18.33.41,0,.78,0Z"/>
          <path class="cls-1" d="M44.49,36.42c.09.03.19.04.31.04.11,0,.2-.02.26-.07s.15-.15.21-.31c.05-.14.13-.15.1-.3-.08-.38-.2-.35-.35-.71s-.12-.37-.27-.74-.17-.35-.32-.72-.5-.39-.3-.73c.19-.32.44-.21.74,0s.14.36.27.72.09.38.22.74-.08.7.3.7.14-.35.26-.71.09-.37.22-.73-.06-.49.24-.73c.27-.21.53-.3.7,0,.19.36-.12.39-.27.76s-.17.37-.31.74-.14.38-.28.76-.11.39-.26.77c-.07.18-.18.31-.24.44-.06.13-.09.27-.16.37-.07.09-.18.16-.28.21-.1.05-.23.07-.38.07-.1,0-.18-.05-.26-.06-.08-.01-.16-.01-.25-.04-.06-.25,0-.26.11-.49Z"/>
          <path class="cls-1" d="M49.5,35.47c-.12.17-.26.31-.41.39-.15.08-.33.12-.53.12s-.37-.07-.52-.14c-.15-.08-.27-.17-.37-.31-.1-.14-.22-.28-.27-.48-.05-.19-.04-.41-.04-.65,0-.22,0-.43.06-.62.05-.19.13-.36.23-.5.1-.14.23-.25.38-.33s.32-.14.51-.14c.04,0,.07.04.11.04s.08-.04.12-.04c.13.02.24.08.36.14s.24.14.35.27c.07-.36,0-.36,0-.72s-.23-.45,0-.73c.2-.24.44-.25.65-.01.23.25-.02.36-.02.7s0,.34,0,.68.04.34.04.69-.06.34-.06.69.05.34.05.69.22.44-.01.7c-.21.23-.36.13-.64,0-.2-.09.11-.25.02-.43ZM49.49,34.33c0-.19-.04-.34-.08-.47-.04-.13-.08-.24-.15-.31s-.14-.16-.23-.19c-.09-.03-.2-.05-.3-.05-.23,0-.39.13-.52.3-.13.17-.22.42-.22.77,0,.19.04.35.07.49.04.13.08.24.15.33.06.08.13.15.22.19.08.04.18.05.28.05.23,0,.45-.04.59-.2.14-.16.18-.43.18-.76,0-.08.01-.08.01-.16Z"/>
          <path class="cls-1" d="M53.5,35.01c-.05.31-.17.55-.37.72-.2.17-.5.25-.88.25-.21,0-.4-.05-.56-.11-.19-.07-.34-.17-.46-.31-.13-.15-.26-.31-.32-.52-.05-.18-.05-.39-.05-.62,0-.26.02-.49.09-.69s.17-.37.29-.51c.12-.14.28-.24.45-.31.17-.07.36-.11.57-.11.22,0,.4.07.56.14.16.07.31.14.42.27.11.13.17.29.22.47.05.18.1.37.1.59,0,.14.13.24,0,.29-.32.13-.35,0-.69,0s-.35.02-.69.02-.37-.15-.69-.02c0,.27.08.49.2.66.13.17.31.23.57.23.2,0,.36,0,.46-.08.1-.08.14-.23.18-.37.25-.19.35-.12.62.02ZM52.93,34.11c0-.25-.06-.44-.17-.59-.11-.14-.28-.22-.53-.22s-.43.06-.55.2c-.12.14-.18.38-.2.62.34.12.37-.08.73-.04s.38.14.72.03Z"/>
          <path class="cls-1" d="M54.92,31.78c.2.29-.07.34-.15.68s.08.42-.16.68c-.17.18-.35.21-.48,0-.17-.29.04-.33.09-.67s-.1-.39.07-.68.46-.25.64,0Z"/>
          <path class="cls-1" d="M56.08,34.98c.01.1.04.17.09.23.04.06.08.12.14.16.06.04.13.09.21.1.08.01.17.02.26.02.21,0,.35-.07.44-.14.09-.07.16-.15.16-.27,0-.1-.04-.18-.1-.25-.06-.07-.17-.12-.35-.15-.23-.04-.43-.09-.6-.13-.17-.04-.32-.09-.44-.16-.12-.07-.18-.17-.24-.28s-.12-.23-.12-.41c0-.14.05-.26.11-.37s.12-.22.23-.3.23-.14.38-.18c.15-.04.31-.06.48-.06.22,0,.41,0,.56.05.15.05.26.13.35.21.09.08.17.17.22.27.05.1.09.24.12.36-.27.1-.29.07-.57.04-.04-.15-.13-.23-.22-.3-.09-.07-.23-.11-.44-.11-.12,0-.22,0-.3.03-.08.02-.16.02-.2.06-.05.03-.08.08-.09.13-.02.04-.02.09-.02.13,0,.07,0,.12.02.17.01.04.07.06.1.08s.09.04.15.06c.07.02.14.09.24.11.18.03.18.03.36.06.19.03.35.06.48.12s.24.11.32.19.13.18.16.28c.03.1.07.22.07.35,0,.27-.15.47-.35.64s-.49.28-.89.28c-.17,0-.33,0-.49-.03-.15-.03-.28-.13-.4-.21-.12-.08-.2-.18-.28-.31-.08-.13-.16-.29-.17-.48.24-.19.32-.03.62.02Z"/>
          <path class="cls-1" d="M60.13,32.9c.21-.23.36-.19.61-.02.17.12-.1.24,0,.42.12-.17.27-.26.43-.35s.31-.13.51-.13.39-.02.54.06c.15.07.26.21.36.35.1.14.2.3.25.49.05.19.07.41.07.65s-.04.46-.1.66-.14.37-.25.51c-.11.14-.26.21-.42.28-.16.07-.31.15-.51.15-.16,0-.3-.05-.45-.12s-.29-.15-.42-.32c-.08.36,0,.36,0,.73s.23.46,0,.73c-.21.24-.44.25-.65.01-.23-.25.02-.36.02-.7s0-.34,0-.68-.04-.34-.04-.69.06-.34.06-.69.02-.35-.05-.68c-.07-.35-.19-.43.04-.69ZM60.74,34.44c0,.2.04.35.08.48.04.13.08.24.15.31.07.08.14.16.23.19.09.03.2.05.3.05s.19-.07.28-.11.19-.07.25-.15c.07-.08.1-.2.14-.34.04-.13.06-.29.06-.49s-.01-.36-.05-.49c-.04-.13-.09-.24-.16-.32-.06-.08-.12-.18-.2-.22-.09-.03-.19-.01-.28-.01-.23,0-.43.06-.57.21-.15.15-.2.41-.2.74,0,.07-.02.07-.02.14Z"/>
          <path class="cls-1" d="M64.24,32.9c.18.13-.06.23.01.43.1-.16.21-.27.35-.36.14-.08.29-.1.45-.1.06,0,.11,0,.16,0s.1-.01.14,0c-.02.3-.04.3-.1.6-.04-.01-.08,0-.13-.01-.05,0-.1,0-.15,0-.12,0-.22.01-.31.05-.09.04-.16.09-.22.16s-.14.13-.17.21c-.03.08-.02.18-.02.26,0,.44-.02.44-.02.88s.28.52.02.88c-.18.26-.43.24-.63,0-.24-.29,0-.38,0-.75s-.02-.37-.02-.75.02-.37.02-.75-.14-.4,0-.75c.11-.3.36-.17.61,0Z"/>
          <path class="cls-1" d="M67.12,35.97c-.21,0-.41-.02-.57-.08-.19-.07-.34-.18-.47-.33s-.21-.34-.27-.55c-.05-.18-.08-.39-.08-.62s0-.46.06-.66c.06-.2.18-.35.3-.49.12-.14.26-.26.44-.34.18-.08.38-.11.61-.11s.43.05.61.12c.18.08.33.19.45.32s.18.32.24.51.12.4.12.63c0,.26-.05.48-.12.68-.07.2-.15.37-.28.51-.13.14-.28.24-.45.31-.17.07-.37.09-.58.09ZM67.12,35.46c.27,0,.45-.11.58-.3s.19-.45.19-.78-.04-.6-.17-.79-.34-.29-.61-.29-.45.13-.57.32c-.12.19-.21.44-.21.76s.08.58.2.77c.12.19.31.3.58.3Z"/>
          <path class="cls-1" d="M69.48,33.41c-.11-.2-.32.18-.47.01-.17-.2-.16-.33.01-.52.15-.17.25.11.46.03.08-.03.02-.12.02-.21,0-.31.03-.58.2-.75s.42-.23.71-.23c.2,0,.39.01.56.07.03.25,0,.27-.1.5-.11-.03-.23-.05-.34-.05-.14,0-.24.04-.31.12-.07.08-.16.19-.16.34,0,.1-.05.16.04.19.34.09.4-.19.68.02.21.15.23.35.02.5-.28.21-.47-.27-.7,0-.27.31,0,.41,0,.82s.02.41.02.83.22.49-.03.82c-.19.25-.44.26-.63,0-.25-.33-.04-.41-.04-.83s0-.41.06-.82.19-.47-.01-.84ZM71.91,31.79c.23.23.25.42.02.65s-.43.22-.66,0-.11-.34.03-.63c.15-.31.38-.24.62,0ZM71.9,32.9c.24.28.02.37.02.74s-.01.37-.01.75-.03.37-.03.75.25.44,0,.73c-.2.24-.42.28-.63.04-.24-.28.03-.39.03-.76s-.02-.37-.02-.75,0-.37,0-.75-.14-.41,0-.75c.13-.31.42-.23.63,0Z"/>
          <path class="cls-1" d="M73.38,31.79c.23.25.02.33.02.68s-.01.34-.01.68-.03.34-.03.69,0,.34,0,.69.05.34.05.69.2.43-.03.68c-.21.23-.42.25-.63.01-.23-.25,0-.35,0-.69s0-.34,0-.68,0-.34,0-.69.05-.34.05-.69-.04-.34-.04-.69-.12-.36.02-.68.39-.23.6,0Z"/>
          <path class="cls-1" d="M76.8,35.01c-.05.31-.17.55-.37.72-.2.17-.5.25-.88.25-.21,0-.4-.05-.56-.11-.19-.07-.34-.17-.46-.31-.13-.15-.26-.31-.32-.52-.05-.18-.05-.39-.05-.62,0-.26.02-.49.09-.69s.17-.37.29-.51c.12-.14.28-.24.45-.31.17-.07.36-.11.57-.11.22,0,.4.07.56.14.16.07.31.14.42.27.11.13.17.29.22.47.05.18.1.37.1.59,0,.14.13.24,0,.29-.32.13-.35,0-.69,0s-.35.02-.69.02-.37-.15-.69-.02c0,.27.08.49.2.66.13.17.31.23.57.23.2,0,.36,0,.46-.08.1-.08.14-.23.18-.37.25-.19.35-.12.62.02ZM76.23,34.11c0-.25-.06-.44-.17-.59-.11-.14-.28-.22-.53-.22s-.43.06-.55.2c-.12.14-.18.38-.2.62.34.12.37-.08.73-.04s.38.14.72.03Z"/>
          <path class="cls-1" d="M78.08,34.54c0-.1,0-.2.02-.29.03-.09.08-.16.12-.23.05-.07.12-.12.18-.18.06-.07.11-.13.18-.2.08-.08.04-.12.12-.21.07-.08.17-.14.22-.23.05-.09.06-.22.06-.36,0-.18-.05-.32-.14-.42-.1-.1-.23-.16-.41-.16-.22,0-.38.05-.49.16s-.21.22-.26.45c-.29.07-.3.08-.57-.04.03-.15.09-.28.16-.42s.12-.27.23-.37.24-.19.39-.25.34-.09.56-.09c.38,0,.7.08.91.28.21.19.29.47.29.78,0,.18-.02.34-.07.47-.05.13-.09.26-.17.35-.17.18-.21.13-.38.31-.1.1-.13.23-.2.34-.06.1-.1.21-.1.34,0,.04.02.1-.02.1-.31.04-.31-.02-.62-.04-.06,0,0-.03,0-.09ZM78.69,35.11c.25.3.27.48.02.79-.21.25-.45.24-.65,0-.25-.3-.12-.41.03-.77.13-.32.4-.26.61,0Z"/>
        </g>
        <path class="cls-2" d="M41.34.92c.08.04.16.04.24,0,.04-.03.07-.03.11,0,.08.04.16.04.24,0,.15-.09.33.03.47-.1.73,0,1.46.01,2.19.02q.67,0,.7.74c-.06.1-.06.21,0,.31-.01.04,0,.08.02.11.04.06.08.11.09.18,0,.05,0,.11,0,.16-.01.07-.05.12-.09.17,0,.21-.01.42-.02.63-.02.06-.06.1-.09.16-.04.28-.1.56.11.79.03.04.06.08.1.12.24.07.34.24.34.52-.01.39,0,.78,0,1.17-.02.06-.06.1-.09.16-.06.25-.03.51-.03.76-.03.06-.07.11-.12.16h0s-.07.08-.1.13c-.03.03-.03.06-.02.1-.39.42-.88.52-1.39.55h0c-.55.15-1.11.03-1.67.06-3.73.19-7.46.12-11.2.15-.39,0-.75-.22-1.14-.09h-.03s-.03,0-.03,0c-.16-.06-.33-.12-.49.01h0c-.81-.17-1.64.03-2.44-.15h.01c-.42-.16-.87.07-1.29-.12h0c-.58-.13-1.16-.06-1.75,0h0c-.05-.05-.1-.03-.15,0l-.03-.02h-.03c-.26-.08-.52-.06-.78.01l-.03-.02-.03.02c-.08,0-.15.1-.24.03h0c-.49-.15-.98-.04-1.47-.08-.2-.02-.42.08-.61-.08h0c-.28-.08-.55-.1-.83.01h0c-.85.19-1.68-.05-2.51-.14-.09,0-.18-.06-.28-.05-1.08.08-2.15-.14-3.23-.15-1.62-.01-3.24-.16-4.86-.12-.31,0-.6-.11-.9-.19-.31-.08-.6-.11-.91,0h0c-.73-.15-1.48.03-2.21-.15h.01c-.32,0-.61-.27-.95-.12h0c-.16.09-.31.12-.46-.02h0c-.14-.12-.34.03-.48-.12h0c-.62-.11-1.25-.1-1.87,0h0s-.07.04-.11,0h0c-.28-.2-.71,0-.9-.44-.02-.14.06-.24.12-.34.09-.39-.48-.58-.23-1.01,0-.12.06-.21.12-.3,0-.06.03-.1.08-.13.08,0,.15-.02.23-.02-.06-.17.4.08.15-.24h-.02c.03-.06.08-.11.15-.13.72,0,1.45.05,2.17-.03.05-.03.09-.08.14-.1.19.01.38.03.56-.02.05-.04.1-.09.16-.1l.53-.03c-.01-.81-.04-.84-.75-.85-.15,0-.31,0-.46,0-.51-.02-1.01-.07-1.28-.67-.02-.12.03-.22.09-.31.02-.04.04-.09.05-.13,0-.05,0-.09,0-.14-.02-.07-.05-.13-.08-.18-.04-.06-.06-.13-.06-.21.01-.05.04-.09.08-.12.03.01.07,0,.09-.02.05-.04.09-.08.15-.11.15,0,.29.03.44-.03.05-.03.09-.08.14-.1.07,0,.14-.02.21-.03.04-.03.08-.07.12-.11h0c.04-.05.08-.1.14-.13.04,0,.07,0,.1-.03.05-.03.09-.08.14-.1.06,0,.13,0,.19,0,.04.03.09.07.13.09.23.22.47.07.71.02.07-.06.17-.04.24-.11.06,0,.12,0,.19,0,.05.03.1.06.14.09.04,0,.08,0,.13,0,.08-.05.17-.03.24-.1.07,0,.14,0,.21,0,.05.04.09.08.13.13h0c.04.06.09.04.14,0,.22,0,.44,0,.66,0,.15.11.18-.08.27-.13.1,0,.2,0,.3,0,.09.12.18.05.27,0h.55s.07.06.12.08c.04,0,.09,0,.13,0,.04-.03.09-.06.13-.09.34,0,.67,0,1.01,0,.05.05.11.11.16,0,.18-.2.35.01.53,0,.28-.02.56.04.84-.04.05-.03.09-.08.14-.1.34,0,.69.05,1.03-.03.04-.02.07-.02.11,0,.35.06.71.09,1.06-.02.04-.02.08-.05.12-.08.29,0,.59,0,.88.01.06.02.11.06.15.1.08.03.16.03.24,0,.05-.03.09-.08.14-.1.17,0,.34,0,.52,0,.14.06.29.07.43,0h.04c.06.04.13.03.2,0,1.26,0,2.51,0,3.77,0,.05.04.11.05.16,0,.22-.11.43.25.64,0,.06.03.13.04.19,0h.05c.08.04.17.06.26.08.04,0,.09.02.13.03.08-.06.15-.06.23,0,.1.04.14-.03.19-.1.06.01.11.06.16.1.54.08,1.07.03,1.61.03.05.03.09.07.14.1.5.08,1,.03,1.5.03.07.06.17.05.25.11.51.06,1.01.06,1.52,0,.05-.04.09-.08.15-.11.59.15,1.18.17,1.78.14.07,0,.11.06.17.09.21.08.42.04.63.04,1.79,0,3.58.02,5.37,0,.63,0,1.25.24,1.89.13.05.04.11.05.16,0,.14,0,.28,0,.43,0,.05.03.09.07.14.1.23.07.46.03.69.04.4.02.8-.05,1.2.12.13.06.31.05.45-.04.08-.03.17-.02.23-.09.38.1.76.23,1.16.11.08-.05.15-.05.23,0Z"/>
      </g>
    </g>
  </g>
</svg>