<?xml version="1.0" encoding="UTF-8"?>
<svg xmlns="http://www.w3.org/2000/svg" viewBox="0 0 250.26 116.67">
  <defs>
    <style>
      .cls-1 {
        fill: #231f20;
      }

      .cls-1, .cls-2 {
        stroke-width: 0px;
      }

      .cls-2 {
        fill: #f6eb16;
        mix-blend-mode: multiply;
      }

      .cls-3 {
        isolation: isolate;
      }
    </style>
  </defs>
  <g class="cls-3">
    <g id="Layer_2" data-name="Layer 2">
      <g id="Layer_1-2" data-name="Layer 1">
        <g>
          <path class="cls-1" d="M18.8,4.54c.79-.69,1.29-.72,2.1-.05.67.55-.03.89-.03,1.76s-.09.87-.09,1.74-.6,1.22.04,1.81c.68.64.99-.14,1.92-.14s.93.11,1.86.11,1.16.58,1.84-.06c.64-.59,0-.84,0-1.71s.03-.87.03-1.74-.68-1.2,0-1.75c.81-.67,1.24-.58,2.03.11.69.6.09.82.09,1.74s-.08.92-.08,1.84.09.92.09,1.84,0,.92,0,1.84-.01.92-.01,1.84.07.92.07,1.85.61,1.23-.09,1.84c-.79.69-1.32.72-2.1.02-.7-.63-.11-.95-.11-1.89s.18-.94.18-1.89.54-1.15-.13-1.82-.87,0-1.8,0-.93-.01-1.86-.01-1.27-.77-1.92-.11,0,1,0,1.94.02.94.02,1.89.69,1.21,0,1.84c-.78.7-1.32.79-2.11.1-.69-.6-.05-.97-.05-1.89s.2-.92.2-1.84-.02-.92-.02-1.84-.06-.92-.06-1.84-.07-.92-.07-1.84.22-.94.02-1.84c-.21-.96-.64-1.22.05-1.83Z"/>
          <path class="cls-1" d="M35.81,17.67c-.67,0-1.27-.05-1.8-.24-.59-.22-1.07-.58-1.48-1.04s-.66-1.06-.85-1.74c-.16-.58-.25-1.21-.25-1.94s-.03-1.45.18-2.06c.2-.61.57-1.1.95-1.54s.82-.81,1.38-1.05c.56-.24,1.2-.36,1.91-.36s1.36.14,1.92.39c.56.25,1.03.58,1.41,1.02s.56.99.75,1.6c.19.61.39,1.24.39,1.97,0,.82-.17,1.52-.39,2.14-.22.62-.47,1.17-.87,1.6-.4.43-.87.76-1.42.98s-1.16.28-1.82.28ZM35.83,16.07c.84,0,1.43-.34,1.82-.93s.61-1.4.61-2.44-.14-1.87-.52-2.46c-.39-.59-1.07-.91-1.9-.91s-1.4.4-1.79,1c-.39.6-.66,1.37-.66,2.38s.24,1.82.61,2.43c.38.6.97.94,1.83.94Z"/>
          <path class="cls-1" d="M43.86,8.05c.73.49.24.82.43,1.68s.15.87.34,1.72.1.88.29,1.74-.4,1.77.48,1.79.17-.96.41-1.81.34-.82.58-1.67.17-.87.41-1.72-.22-1.19.49-1.72,1.11-.52,1.83.02.24.85.47,1.69.09.89.32,1.74.36.82.59,1.67-.42,1.79.46,1.77.17-.93.37-1.79.18-.86.37-1.72.2-.86.4-1.72-.37-1.27.35-1.78c.85-.59,1.45-.73,2.1.07.62.75-.24.93-.51,1.87s-.16.97-.42,1.9-.44.89-.71,1.83-.12.98-.38,1.92.2,1.32-.58,1.91-1.23.56-2.03,0c-.72-.51-.12-.91-.35-1.76s-.26-.85-.49-1.7-.25-.85-.48-1.7.4-1.75-.49-1.76-.16.93-.39,1.78-.2.86-.43,1.71-.43.8-.66,1.66.31,1.16-.41,1.67c-.8.56-1.12.64-1.89.05s-.32-.91-.59-1.85-.25-.94-.51-1.88-.35-.91-.61-1.85-.04-1-.3-1.94-.95-.93-.68-1.87c.31-1.07,1.29-.56,2.18.04Z"/>
          <path class="cls-1" d="M62.58,8.05c.55.39-.51.91.04,1.3.63-.9,1.35-1.39,2.21-1.54.22-.04.45.04.69.04.61.02,1.06.16,1.44.45.38.3.72.55.89,1.05.38-.54.83-.84,1.29-1.13.51-.31,1.06-.53,1.67-.53.96,0,1.69.29,2.15.85.45.55.66,1.46.66,2.67,0,1.03.01,1.03.01,2.06s-.14,1.03-.14,2.07.85,1.33.13,2.07-1.22.62-1.94-.06c-.68-.64-.07-.89-.07-1.82s0-.94,0-1.88.01-.94.01-1.88c0-.46-.09-.82-.15-1.12-.06-.3-.05-.56-.16-.74-.11-.17-.27-.28-.44-.34-.17-.07-.37.01-.59.01-.35,0-.68-.11-.95.02-.27.13-.39.42-.57.64-.18.22-.33.42-.42.7s-.15.53-.15.82c0,.94-.13.94-.13,1.88s.03.94.03,1.89.72,1.21.03,1.86c-.72.68-1.21.67-1.92-.02s-.11-.93-.11-1.9-.03-.97-.03-1.95.2-.97.2-1.95c0-.81-.16-1.41-.4-1.71-.24-.3-.63-.42-1.04-.42-.17,0-.37.11-.61.19-.24.08-.47.19-.7.37s-.33.46-.49.76c-.16.3-.46.61-.46,1.04,0,.94.16.94.16,1.87s.08.94.08,1.87.51,1.18-.17,1.83c-.71.68-1.12.63-1.84-.05s-.16-.85-.16-1.79.05-.94.05-1.87,0-.94,0-1.88-.09-.94-.09-1.88-.37-1.07.02-1.92c.42-.9,1.2-.48,1.98.07Z"/>
          <path class="cls-1" d="M78.44,4.54c.72.72.77,1.32.05,2.04s-1.34.69-2.07-.03-.35-1.07.09-1.99c.46-.98,1.2-.74,1.93-.02ZM78.41,8.04c.68.65.05.91.05,1.85s-.04.94-.04,1.87-.09.94-.09,1.88,0,.94,0,1.88.83,1.29.15,1.94c-.72.68-1.29.6-2.01-.08-.68-.65-.06-.91-.06-1.85s0-.94,0-1.87.03-.94.03-1.88-.01-.94-.01-1.88-.28-.98.13-1.83c.46-.94,1.13-.71,1.85-.03Z"/>
          <path class="cls-1" d="M83.37,18.17c.1.51.34.8.64,1,.31.2.79.34,1.49.34.53,0,1.02-.03,1.35-.25s.59-.61.74-1.05c.15-.45.05-1.09.05-1.87,0-.32.38-.53.09-.67-.32.48-.73.91-1.22,1.17s-1.05.38-1.67.38-1.11-.12-1.56-.31c-.49-.21-.92-.52-1.27-.95-.36-.45-.48-1.04-.64-1.68-.14-.54-.34-1.11-.34-1.78s.16-1.26.31-1.8c.18-.62.38-1.19.76-1.66.37-.44.8-.78,1.29-1s1.02-.3,1.61-.3,1.13.06,1.6.31.83.67,1.18,1.14c.26-.5-.51-.87-.02-1.16.83-.49,1.36-.77,2.03-.08s-.16,1.08-.16,2.08.16,1,.16,1.99-.03,1-.03,2-.01,1-.01,2c0,.78-.2,1.44-.32,2.03-.17.78-.4,1.38-.78,1.84s-.82.76-1.41.96c-.5.17-1.07.22-1.73.22-.58,0-1.1.09-1.55,0-.57-.12-1.09-.3-1.46-.57-.66-.48-.89-1.25-1.01-2.29.59-.81.93-.26,1.89-.03ZM87.77,12.37c0-.98-.26-1.69-.65-2.19-.39-.5-.95-.78-1.72-.78-.72,0-1.37.21-1.77.73-.41.52-.62,1.35-.62,2.33s.36,1.69.74,2.22c.39.54.87.89,1.56.89.77,0,1.33-.31,1.76-.81.42-.5.63-1.19.63-2.1,0-.15.07-.14.07-.29Z"/>
          <path class="cls-1" d="M94.52,4.53c.76.93.06,1.18.06,2.38s-.28,1.23-.04,2.4c.38-.54.88-.85,1.39-1.11.5-.26.99-.39,1.56-.39.68,0,1.28-.03,1.73.23.5.29.78.81,1,1.42.17.48.33,1.05.33,1.72,0,1.03,0,1.03,0,2.07s-.03,1.04-.03,2.07.72,1.34,0,2.08-1.2.6-1.91-.1-.1-.89-.1-1.87.08-.98.08-1.96-.09-.98-.09-1.96c0-.76-.14-1.28-.4-1.58s-.64-.47-1.16-.47c-.36,0-.66.13-.95.26-.3.13-.59.23-.8.44-.21.22-.35.48-.47.76-.12.28-.06.57-.06.87,0,.93-.18.93-.18,1.86s.15.93.15,1.87.63,1.27-.05,1.91c-.71.68-1.32.66-2.04,0-.67-.63.12-.95.12-1.87s-.03-.92-.03-1.84-.02-.92-.02-1.84.03-.92.03-1.84-.13-.92-.13-1.84-.03-.92-.03-1.85-.23-.98.19-1.8c.48-.94,1.23-.79,1.85-.02Z"/>
          <path class="cls-1" d="M102.46,9.62c-.54-.61-.58-1.01-.05-1.62.47-.54,1.11.64,1.46.02.62-1.1-.71-1.48.07-2.47.6-.78,1.22-.78,1.82,0,.78,1-.72,1.48.12,2.43.75.84,1.26-.59,2.17.07.66.48.7,1.15.04,1.62-.91.66-1.34-.66-2.25,0-.66.48-.01.8-.01,1.61s.01.82.01,1.64-.14.82-.14,1.64c0,.48.22.83.41,1.04s.47.4.84.4c.2,0,.38-.09.56-.12.18-.02.38-.06.55-.12.24.75.4.77.28,1.54-.56.19-1.17.36-1.82.36-1,0-1.68-.35-2.08-.89-.39-.54-.61-1.33-.61-2.4,0-1.18-.1-1.18-.1-2.37s.7-1.34.17-2.39c-.34-.68-.99.54-1.46,0Z"/>
          <path class="cls-1" d="M115.63,8.05c.73.49.24.82.43,1.68s.15.87.34,1.72.1.88.29,1.74-.4,1.77.48,1.79.17-.96.41-1.81.34-.82.58-1.67.17-.87.41-1.72-.22-1.19.49-1.72,1.11-.52,1.83.02.24.85.47,1.69.09.89.32,1.74.36.82.59,1.67-.42,1.79.46,1.77.17-.93.37-1.79.18-.86.37-1.72.2-.86.4-1.72-.37-1.27.35-1.78c.85-.59,1.45-.73,2.1.07.62.75-.24.93-.51,1.87s-.16.97-.42,1.9-.44.89-.71,1.83-.12.98-.38,1.92.2,1.32-.58,1.91-1.23.56-2.03,0c-.72-.51-.12-.91-.35-1.76s-.26-.85-.49-1.7-.25-.85-.48-1.7.4-1.75-.49-1.76-.16.93-.39,1.78-.2.86-.43,1.71-.43.8-.66,1.66.31,1.16-.41,1.67c-.8.56-1.12.64-1.89.05s-.32-.91-.59-1.85-.25-.94-.51-1.88-.35-.91-.61-1.85-.04-1-.3-1.94-.95-.93-.68-1.87c.31-1.07,1.29-.56,2.18.04Z"/>
          <path class="cls-1" d="M136.09,14.65c-.16.98-.54,1.73-1.17,2.26-.35.29-.8.48-1.32.61-.43.11-.91.09-1.45.09-.67,0-1.24-.08-1.77-.27-.59-.21-1.16-.44-1.56-.9-.41-.47-.63-1.08-.82-1.76-.16-.57-.29-1.21-.29-1.92,0-.81.11-1.53.33-2.16.21-.63.54-1.15.92-1.58.39-.43.85-.76,1.39-.99.54-.22,1.14-.22,1.79-.22.7,0,1.3,0,1.81.23.51.22.89.58,1.23.98.34.4.64.85.8,1.41.16.56.25,1.19.25,1.87,0,.45.4.74-.02.91-1,.42-1.08.05-2.17.05s-1.08-.07-2.17-.07-1.16-.38-2.16.02c.02.86.3,1.48.7,2.01.39.53.92.9,1.72.9.63,0,1.05-.23,1.37-.48.31-.25.54-.6.64-1.07.77-.6,1.09-.41,1.93.06ZM134.3,11.82c0-.77-.2-1.39-.55-1.84-.35-.45-.89-.69-1.65-.69s-1.35.18-1.73.63-.57,1.18-.62,1.94c1.07.37,1.17-.25,2.29-.13s1.19.45,2.26.08Z"/>
          <path class="cls-1" d="M151.04,14.65c-.16.98-.54,1.73-1.17,2.26-.35.29-.8.48-1.32.61-.43.11-.91.09-1.45.09-.67,0-1.24-.08-1.77-.27-.59-.21-1.16-.44-1.56-.9-.41-.47-.63-1.08-.82-1.76-.16-.57-.29-1.21-.29-1.92,0-.81.11-1.53.33-2.16.21-.63.54-1.15.92-1.58.39-.43.85-.76,1.39-.99.54-.22,1.14-.22,1.79-.22.7,0,1.3,0,1.81.23.51.22.89.58,1.23.98.34.4.64.85.8,1.41.16.56.25,1.19.25,1.87,0,.45.4.74-.02.91-1,.42-1.08.05-2.17.05s-1.08-.07-2.17-.07-1.16-.38-2.16.02c.02.86.3,1.48.7,2.01.39.53.92.9,1.72.9.63,0,1.05-.23,1.37-.48.31-.25.54-.6.64-1.07.77-.6,1.09-.41,1.93.06ZM149.25,11.82c0-.77-.2-1.39-.55-1.84-.35-.45-.89-.69-1.65-.69s-1.35.18-1.73.63-.57,1.18-.62,1.94c1.07.37,1.17-.25,2.29-.13s1.19.45,2.26.08Z"/>
          <path class="cls-1" d="M155.64,8.04c.56.4-.28.73.03,1.34.41-.58.85-.98,1.35-1.25.5-.26,1.04-.33,1.62-.33.68,0,1.21.12,1.66.38.5.29.94.66,1.16,1.26.17.48.18,1.08.18,1.75,0,1.03.05,1.03.05,2.07s0,1.04,0,2.07.7,1.33-.02,2.08-1.29.7-2,0,.1-.99.1-1.97-.1-.98-.1-1.96.06-.98.06-1.96c0-.76-.2-1.28-.46-1.59s-.65-.45-1.17-.45c-.35,0-.67.05-.96.18s-.51.33-.72.55-.43.42-.55.71c-.12.28-.16.59-.16.9,0,.93.08.93.08,1.86s-.14.93-.14,1.87.77,1.27.09,1.92c-.71.68-1.33.66-2.04-.02s0-.97,0-1.91.1-.94.1-1.87-.02-.94-.02-1.88-.02-.94-.02-1.88-.38-1.01.02-1.86c.42-.9,1.08-.56,1.86,0Z"/>
          <path class="cls-1" d="M165.84,14.57c.03.31.14.53.27.73.13.2.26.38.45.5.19.12.41.27.66.32.25.04.54.06.83.06.66,0,1.1-.22,1.39-.43.29-.2.5-.46.5-.86,0-.31-.14-.56-.32-.78s-.53-.37-1.09-.46c-.72-.13-1.35-.28-1.89-.4-.55-.12-1.01-.28-1.38-.49-.37-.21-.56-.54-.74-.87-.19-.33-.37-.73-.37-1.3,0-.43.15-.8.33-1.16.19-.35.39-.69.72-.94.33-.25.73-.45,1.19-.58.46-.13.97-.19,1.51-.19.7,0,1.29.02,1.76.17.46.14.82.41,1.11.66s.53.53.68.85c.15.33.29.76.37,1.12-.84.31-.91.22-1.8.12-.14-.47-.4-.72-.68-.95-.28-.23-.71-.35-1.38-.35-.38,0-.69.03-.93.1s-.49.07-.63.18c-.15.11-.24.27-.3.4-.05.13-.06.28-.06.41,0,.21,0,.39.05.52.05.13.21.18.33.26.12.08.28.13.49.19.21.06.43.27.75.33.57.1.57.08,1.13.18.6.11,1.11.2,1.51.37.4.17.75.33.99.58s.4.55.49.88.21.69.21,1.09c0,.86-.46,1.48-1.09,2-.35.29-.74.6-1.29.73-.44.1-.95.22-1.51.22-.52,0-1.01-.2-1.5-.3-.48-.1-.87-.31-1.25-.55-.38-.24-.8-.45-1.03-.85-.24-.4-.33-.95-.37-1.57.74-.6.97-.11,1.9.04Z"/>
          <path class="cls-1" d="M176.22,8.04c.7.7.04.97.04,1.95s-.03.99-.03,1.97-.07.99-.07,1.97c0,.78.15,1.37.4,1.65s.68.33,1.19.33c.28,0,.57.03.85-.08s.51-.31.73-.51c.22-.2.4-.44.54-.73s.23-.6.23-.97c0-.93,0-.93,0-1.86s.11-.93.11-1.87-.78-1.23-.1-1.87c.72-.68,1.23-.64,1.95.04.68.65.05.9.05,1.84s0,.94,0,1.87,0,.94,0,1.88.05.94.05,1.88.61,1.22-.07,1.87-1.14.57-1.93.01c-.56-.4.24-.73-.08-1.34-.42.58-.81.92-1.3,1.18s-.99.51-1.54.51c-1.06,0-1.85-.32-2.31-.89-.46-.57-.69-1.46-.69-2.63,0-1.04.1-1.04.1-2.08s-.02-1.04-.02-2.08-.45-1.12-.02-2.07,1.23-.69,1.93,0Z"/>
          <path class="cls-1" d="M186.87,8.04c.56.41-.19.71.04,1.36.31-.49.67-.86,1.11-1.12.44-.26.91-.33,1.41-.33.2,0,.36,0,.49.01.13.01.32-.04.45-.01-.05.94-.13.94-.31,1.87-.13-.04-.24-.03-.39-.04-.15-.01-.31-.02-.47-.02-.37,0-.69.04-.97.17-.28.13-.51.3-.7.5-.19.21-.43.4-.53.65s-.06.55-.06.82c0,.92-.06.92-.06,1.83s.07.92.07,1.84.67,1.22,0,1.85c-.72.67-1.27.67-1.98,0s-.05-.94-.05-1.88.07-.94.07-1.87-.02-.94-.02-1.88-.08-.94-.08-1.88-.26-1.01.13-1.86c.42-.9,1.08-.56,1.86,0Z"/>
          <path class="cls-1" d="M200.04,14.65c-.16.98-.54,1.73-1.17,2.26-.35.29-.8.48-1.32.61-.43.11-.91.09-1.45.09-.67,0-1.24-.08-1.77-.27-.59-.21-1.16-.44-1.56-.9-.41-.47-.63-1.08-.82-1.76-.16-.57-.29-1.21-.29-1.92,0-.81.11-1.53.33-2.16.21-.63.54-1.15.92-1.58.39-.43.85-.76,1.39-.99.54-.22,1.14-.22,1.79-.22.7,0,1.3,0,1.81.23.51.22.89.58,1.23.98.34.4.64.85.8,1.41.16.56.25,1.19.25,1.87,0,.45.4.74-.02.91-1,.42-1.08.05-2.17.05s-1.08-.07-2.17-.07-1.16-.38-2.16.02c.02.86.3,1.48.7,2.01.39.53.92.9,1.72.9.63,0,1.05-.23,1.37-.48.31-.25.54-.6.64-1.07.77-.6,1.09-.41,1.93.06ZM198.25,11.82c0-.77-.2-1.39-.55-1.84-.35-.45-.89-.69-1.65-.69s-1.35.18-1.73.63-.57,1.18-.62,1.94c1.07.37,1.17-.25,2.29-.13s1.19.45,2.26.08Z"/>
          <path class="cls-1" d="M206.09,9.62c-.54-.61-.58-1.01-.05-1.62.47-.54,1.11.64,1.46.02.62-1.1-.71-1.48.07-2.47.6-.78,1.22-.78,1.82,0,.78,1-.72,1.48.12,2.43.74.84,1.26-.59,2.17.07.66.48.7,1.15.04,1.62-.91.66-1.34-.66-2.25,0-.66.48-.01.8-.01,1.61s.01.82.01,1.64-.14.82-.14,1.64c0,.48.22.83.41,1.04s.47.4.84.4c.2,0,.38-.09.56-.12.18-.02.38-.06.56-.12.24.74.4.77.28,1.54-.56.19-1.17.36-1.82.36-1,0-1.68-.35-2.08-.89-.39-.54-.61-1.33-.61-2.4,0-1.18-.1-1.18-.1-2.37s.7-1.34.17-2.39c-.34-.68-.99.54-1.46,0Z"/>
          <path class="cls-1" d="M215.85,4.53c.76.93.06,1.18.06,2.38s-.28,1.23-.04,2.4c.38-.54.88-.85,1.39-1.11.5-.26,1-.39,1.56-.39.68,0,1.28-.03,1.73.23.5.29.78.81,1,1.42.17.48.33,1.05.33,1.72,0,1.03,0,1.03,0,2.07s-.03,1.04-.03,2.07.72,1.34,0,2.08-1.2.6-1.91-.1-.1-.89-.1-1.87.08-.98.08-1.96-.09-.98-.09-1.96c0-.76-.14-1.28-.4-1.58s-.64-.47-1.16-.47c-.36,0-.66.13-.95.26-.29.13-.59.23-.8.44s-.35.48-.47.76c-.12.28-.06.57-.06.87,0,.93-.18.93-.18,1.86s.15.93.15,1.87.63,1.27-.05,1.91c-.71.68-1.32.66-2.04,0-.67-.63.12-.95.12-1.87s-.03-.92-.03-1.84-.02-.92-.02-1.84.03-.92.03-1.84-.13-.92-.13-1.84-.03-.92-.03-1.85-.23-.98.19-1.8c.48-.94,1.23-.79,1.85-.02Z"/>
          <path class="cls-1" d="M230.16,16.17c-.34.42-.76.8-1.25,1.08s-1.09.39-1.79.39c-.43,0-.81-.12-1.18-.24-.37-.11-.67-.27-.94-.5-.27-.23-.59-.44-.74-.8-.16-.36-.16-.8-.16-1.28,0-.65.09-1.19.37-1.6s.65-.73,1.1-.95c.45-.23.96-.37,1.51-.46.56-.09,1.11-.16,1.67-.18.67-.03.74.26,1.37.03.19-.07-.04-.29-.04-.49,0-.71-.12-1.24-.46-1.52-.33-.27-.8-.35-1.33-.35-.62,0-1.06.11-1.35.33s-.5.52-.59.93c-.91.1-1.09.35-1.85-.16.16-.92.6-1.62,1.24-2.05.64-.42,1.51-.65,2.62-.65.72,0,1.35.02,1.82.21.47.19.77.58,1.05.91.28.34.58.69.69,1.15.11.46.15.99.15,1.54,0,.98,0,.98,0,1.96s-.1.98-.1,1.96.72,1.23.03,1.93-.98.37-1.86,0c-.59-.24.25-.65.02-1.22ZM228.83,13c-.59.04-1.06.15-1.43.25-.37.1-.66.19-.85.34s-.4.31-.46.51c-.06.2-.09.44-.09.67,0,.41.24.69.49.92.25.23.58.41,1.07.41.87,0,1.49-.27,1.91-.73.42-.46.62-1.06.62-1.84,0-.27.23-.36.02-.54-.48-.41-.63,0-1.27.03Z"/>
          <path class="cls-1" d="M233.98,9.62c-.54-.61-.58-1.01-.05-1.62.47-.54,1.11.64,1.46.02.62-1.1-.71-1.48.07-2.47.6-.78,1.22-.78,1.82,0,.78,1-.72,1.48.12,2.43.74.84,1.26-.59,2.17.07.66.48.7,1.15.04,1.62-.91.66-1.34-.66-2.25,0-.66.48-.01.8-.01,1.61s.01.82.01,1.64-.14.82-.14,1.64c0,.48.22.83.41,1.04s.47.4.84.4c.2,0,.38-.09.56-.12.18-.02.38-.06.56-.12.24.74.4.77.28,1.54-.56.19-1.17.36-1.82.36-1,0-1.68-.35-2.08-.89-.39-.54-.61-1.33-.61-2.4,0-1.18-.1-1.18-.1-2.37s.7-1.34.17-2.39c-.34-.68-.99.54-1.46,0Z"/>
          <path class="cls-1" d="M8.35,41.35c-.41-.57-1,.58-1.46.04-.53-.61-.5-1.03.03-1.64.46-.53.78.35,1.44.1.25-.1.06-.38.06-.65,0-.99.1-1.81.62-2.35s1.31-.72,2.23-.72c.61,0,1.22.04,1.74.21.1.77.02.84-.3,1.55-.35-.11-.73-.17-1.07-.17-.43,0-.75.13-.98.37-.23.24-.5.58-.5,1.05,0,.3-.15.51.14.59,1.06.29,1.26-.58,2.14.07.65.48.71,1.09.06,1.58-.88.65-1.36-.72-2.19,0-.73.64,0,.95,0,1.92s.07.97.07,1.94-.1.97-.1,1.94.72,1.27.03,1.95-1.37.78-2.08.09.16-1.06.16-2.03-.16-.97-.16-1.94-.15-1,.03-1.96c.19-1.01.66-1.17.09-1.95ZM15.97,36.27c.72.72.77,1.32.05,2.04s-1.34.69-2.07-.03-.35-1.07.09-1.99c.46-.98,1.2-.74,1.93-.02ZM15.93,39.77c.68.65.05.91.05,1.85s-.04.94-.04,1.87-.09.94-.09,1.88,0,.94,0,1.88.83,1.29.15,1.94c-.72.68-1.29.6-2.01-.08-.68-.65-.06-.91-.06-1.85s0-.94,0-1.87.03-.94.03-1.88-.01-.94-.01-1.88-.28-.98.13-1.83c.46-.94,1.12-.71,1.84-.03Z"/>
          <path class="cls-1" d="M20.77,39.77c.56.41-.19.71.04,1.36.31-.49.67-.86,1.11-1.12.44-.26.91-.33,1.41-.33.2,0,.36,0,.49.01.13.01.32-.04.45-.01-.05.94-.13.94-.31,1.87-.13-.04-.24-.03-.39-.04-.15-.01-.31-.02-.47-.02-.37,0-.69.04-.97.17-.28.13-.51.3-.7.5-.19.21-.43.4-.53.65s-.06.55-.06.82c0,.92-.06.92-.06,1.83s.07.92.07,1.84.67,1.22,0,1.85c-.72.67-1.27.67-1.98,0s-.05-.94-.05-1.88.07-.94.07-1.87-.02-.94-.02-1.88-.08-.94-.08-1.88-.26-1.01.13-1.86c.42-.9,1.08-.56,1.86,0Z"/>
          <path class="cls-1" d="M27.53,46.29c.03.31.14.53.27.73.13.2.26.38.45.5.19.12.41.27.66.32.25.04.54.06.83.06.66,0,1.1-.22,1.39-.43.29-.2.5-.46.5-.86,0-.31-.14-.56-.32-.78s-.53-.37-1.09-.46c-.72-.13-1.35-.28-1.89-.4-.55-.12-1.01-.28-1.38-.49-.37-.21-.56-.54-.74-.87-.19-.33-.37-.73-.37-1.3,0-.43.15-.8.33-1.16.19-.35.39-.69.72-.94.33-.25.73-.45,1.19-.58.46-.13.97-.19,1.51-.19.7,0,1.29.02,1.76.17.46.14.82.41,1.11.66s.53.53.68.85c.15.33.29.76.37,1.12-.84.31-.91.22-1.8.12-.14-.47-.4-.72-.68-.95-.28-.23-.71-.35-1.38-.35-.38,0-.69.03-.93.1s-.49.07-.63.18c-.15.11-.24.27-.3.4-.05.13-.06.28-.06.41,0,.21,0,.39.05.52.05.13.21.18.33.26.12.08.28.13.49.19.21.06.43.27.75.33.57.1.57.08,1.13.18.6.11,1.11.2,1.51.37.4.17.75.33.99.58s.4.55.49.88.21.69.21,1.09c0,.86-.46,1.48-1.09,2-.35.29-.74.6-1.29.73-.44.1-.95.22-1.51.22-.52,0-1.01-.2-1.5-.3-.48-.1-.87-.31-1.25-.55-.38-.24-.8-.45-1.03-.85-.24-.4-.33-.95-.37-1.57.74-.6.97-.11,1.9.04Z"/>
          <path class="cls-1" d="M35.17,41.35c-.54-.61-.58-1.01-.05-1.62.47-.54,1.11.64,1.46.02.62-1.1-.71-1.48.07-2.47.6-.78,1.22-.78,1.82,0,.78,1-.72,1.48.12,2.43.75.84,1.26-.59,2.17.07.66.48.7,1.15.04,1.62-.91.66-1.34-.66-2.25,0-.66.48-.01.8-.01,1.61s.01.82.01,1.64-.14.82-.14,1.64c0,.48.22.83.41,1.04s.47.4.84.4c.2,0,.38-.09.56-.12.18-.02.38-.06.55-.12.24.75.4.77.28,1.54-.56.19-1.17.36-1.82.36-1,0-1.68-.35-2.08-.89-.39-.54-.61-1.33-.61-2.4,0-1.18-.1-1.18-.1-2.37s.7-1.34.17-2.39c-.34-.68-.99.54-1.46,0Z"/>
          <path class="cls-1" d="M46.34,41.35c-.54-.61-.58-1.01-.05-1.62.47-.54,1.11.64,1.46.02.62-1.1-.71-1.48.07-2.47.6-.78,1.22-.78,1.82,0,.78,1-.72,1.48.12,2.43.75.84,1.26-.59,2.17.07.66.48.7,1.15.04,1.62-.91.66-1.34-.66-2.25,0-.66.48-.01.8-.01,1.61s.01.82.01,1.64-.14.82-.14,1.64c0,.48.22.83.41,1.04s.47.4.84.4c.2,0,.38-.09.56-.12.18-.02.38-.06.55-.12.24.75.4.77.28,1.54-.56.19-1.17.36-1.82.36-1,0-1.68-.35-2.08-.89-.39-.54-.61-1.33-.61-2.4,0-1.18-.1-1.18-.1-2.37s.7-1.34.17-2.39c-.34-.68-.99.54-1.46,0Z"/>
          <path class="cls-1" d="M56.17,36.27c.72.72.77,1.32.05,2.04s-1.34.69-2.07-.03-.35-1.07.09-1.99c.46-.98,1.2-.74,1.93-.02ZM56.14,39.77c.68.65.05.91.05,1.85s-.04.94-.04,1.87-.09.94-.09,1.88,0,.94,0,1.88.83,1.29.15,1.94c-.72.68-1.29.6-2.01-.08-.68-.65-.06-.91-.06-1.85s0-.94,0-1.87.03-.94.03-1.88-.01-.94-.01-1.88-.28-.98.13-1.83c.46-.94,1.13-.71,1.85-.03Z"/>
          <path class="cls-1" d="M60.97,39.77c.55.39-.51.91.04,1.3.63-.9,1.35-1.39,2.21-1.54.22-.04.45.04.69.04.61.02,1.06.16,1.44.45.38.3.72.55.89,1.05.38-.54.83-.84,1.29-1.13.51-.31,1.06-.53,1.67-.53.96,0,1.69.29,2.15.85.45.55.66,1.46.66,2.67,0,1.03.01,1.03.01,2.06s-.14,1.03-.14,2.07.85,1.33.13,2.07-1.22.62-1.94-.06c-.68-.64-.07-.89-.07-1.82s0-.94,0-1.88.01-.94.01-1.88c0-.46-.09-.82-.15-1.12-.06-.3-.05-.56-.16-.74-.11-.17-.27-.28-.44-.34-.17-.07-.37.01-.59.01-.35,0-.68-.11-.95.02-.27.13-.39.42-.57.64-.18.22-.33.42-.42.7s-.15.53-.15.82c0,.94-.13.94-.13,1.88s.03.94.03,1.89.72,1.21.03,1.86c-.72.68-1.21.67-1.92-.02s-.11-.93-.11-1.9-.03-.97-.03-1.95.2-.97.2-1.95c0-.81-.16-1.41-.4-1.71-.24-.3-.63-.42-1.04-.42-.17,0-.37.11-.61.19-.24.08-.47.19-.7.37s-.33.46-.49.76c-.16.3-.46.61-.46,1.04,0,.94.16.94.16,1.87s.08.94.08,1.87.51,1.18-.17,1.83c-.71.68-1.12.63-1.84-.05s-.16-.85-.16-1.79.05-.94.05-1.87,0-.94,0-1.88-.09-.94-.09-1.88-.37-1.07.02-1.92c.42-.9,1.2-.48,1.98.07Z"/>
          <path class="cls-1" d="M82.84,46.38c-.16.98-.54,1.73-1.17,2.26-.35.29-.8.48-1.32.61-.43.11-.91.09-1.45.09-.67,0-1.24-.08-1.77-.27-.59-.21-1.16-.44-1.56-.9-.41-.47-.63-1.08-.82-1.76-.16-.57-.29-1.21-.29-1.92,0-.81.11-1.53.33-2.16.21-.63.54-1.15.92-1.58.39-.43.85-.76,1.39-.99.54-.22,1.14-.22,1.79-.22.7,0,1.3,0,1.81.23.51.22.89.58,1.23.98.34.4.64.85.8,1.41.16.56.25,1.19.25,1.87,0,.45.4.74-.02.91-1,.42-1.08.05-2.17.05s-1.08-.07-2.17-.07-1.16-.38-2.16.02c.02.86.3,1.48.7,2.01.39.53.92.9,1.72.9.63,0,1.05-.23,1.37-.48.31-.25.54-.6.64-1.07.77-.6,1.09-.41,1.93.06ZM81.05,43.55c0-.77-.2-1.39-.55-1.84-.35-.45-.89-.69-1.65-.69s-1.35.18-1.73.63-.57,1.18-.62,1.94c1.07.37,1.17-.25,2.29-.13s1.19.45,2.26.08Z"/>
          <path class="cls-1" d="M97.79,46.38c-.16.98-.54,1.73-1.17,2.26-.35.29-.8.48-1.32.61-.43.11-.91.09-1.45.09-.67,0-1.24-.08-1.77-.27-.59-.21-1.16-.44-1.56-.9-.41-.47-.63-1.08-.82-1.76-.16-.57-.29-1.21-.29-1.92,0-.81.11-1.53.33-2.16.21-.63.54-1.15.92-1.58.39-.43.85-.76,1.39-.99.54-.22,1.14-.22,1.79-.22.7,0,1.3,0,1.81.23.51.22.89.58,1.23.98.34.4.64.85.8,1.41.16.56.25,1.19.25,1.87,0,.45.4.74-.02.91-1,.42-1.08.05-2.17.05s-1.08-.07-2.17-.07-1.16-.38-2.16.02c.02.86.3,1.48.7,2.01.39.53.92.9,1.72.9.63,0,1.05-.23,1.37-.48.31-.25.54-.6.64-1.07.77-.6,1.09-.41,1.93.06ZM96,43.55c0-.77-.2-1.39-.55-1.84-.35-.45-.89-.69-1.65-.69s-1.35.18-1.73.63-.57,1.18-.62,1.94c1.07.37,1.17-.25,2.29-.13s1.19.45,2.26.08Z"/>
          <path class="cls-1" d="M99.33,39.76c.77-.87,1.26-.52,2.32-.04.8.37.45.77.91,1.52s.05,1.57.93,1.57.55-.79,1.05-1.54.1-1.19.91-1.59c.93-.46,1.46-.77,2.07.06.53.71-.45.74-.94,1.47s-.49.74-.98,1.47-1.02.58-1,1.46c.03.99.54.82,1.08,1.65s.45.89.99,1.71,1.74.82,1.16,1.61c-.68.92-1.25.47-2.28-.05-.9-.46-.57-.81-1.11-1.66s-.06-1.7-1.07-1.7-.54.84-1.09,1.7-.18,1.29-1.08,1.76c-.95.5-1.58.85-2.18-.06-.54-.82.53-.81,1.08-1.62s.48-.86,1.03-1.67,1.19-.6,1.22-1.58c.03-.9-.6-.72-1.1-1.47s-.3-.91-.97-1.51c-.76-.68-1.55-.85-.95-1.52Z"/>
          <path class="cls-1" d="M109.75,39.77c.7-.67,1.12-.59,1.92-.05.54.36-.31.74-.03,1.33.37-.52.86-.83,1.34-1.1s.98-.4,1.61-.4,1.23-.05,1.7.19.81.66,1.13,1.09c.32.43.62.93.78,1.53.16.61.23,1.29.23,2.04s-.12,1.45-.3,2.07-.44,1.16-.78,1.6c-.34.44-.83.65-1.31.88-.49.23-.98.48-1.6.48-.49,0-.94-.17-1.4-.36s-.91-.48-1.32-.99c-.26,1.11,0,1.14,0,2.28s.73,1.43-.02,2.29c-.65.75-1.32.72-2.05.05-.67-.62.07-.98.07-1.9s-.03-.92-.03-1.84-.11-.92-.11-1.84.19-.92.19-1.84-.15-.92-.15-1.84.22-.93.03-1.83c-.2-.95-.58-1.2.08-1.83ZM111.66,44.61c0,.61.13,1.11.26,1.52.13.4.26.74.48.98.21.24.44.5.72.6.28.1.62.14.93.14s.6-.23.87-.35c.28-.12.58-.22.79-.49.21-.26.31-.64.43-1.06.12-.42.18-.92.18-1.53s-.04-1.13-.16-1.54c-.12-.42-.29-.74-.5-1-.2-.26-.38-.57-.64-.68-.27-.11-.59-.04-.88-.04-.71,0-1.34.18-1.8.67-.46.48-.62,1.29-.62,2.33,0,.23-.05.23-.05.45Z"/>
          <path class="cls-1" d="M128.85,46.38c-.16.98-.54,1.73-1.17,2.26-.35.29-.8.48-1.32.61-.43.11-.91.09-1.45.09-.67,0-1.24-.08-1.77-.27-.59-.21-1.16-.44-1.56-.9-.41-.47-.63-1.08-.82-1.76-.16-.57-.29-1.21-.29-1.92,0-.81.11-1.53.33-2.16.21-.63.54-1.15.92-1.58.39-.43.85-.76,1.39-.99.54-.22,1.14-.22,1.79-.22.7,0,1.3,0,1.81.23.51.22.89.58,1.23.98.34.4.64.85.8,1.41.16.56.25,1.19.25,1.87,0,.45.4.74-.02.91-1,.42-1.08.05-2.17.05s-1.08-.07-2.17-.07-1.16-.38-2.16.02c.02.86.3,1.48.7,2.01.39.53.92.9,1.72.9.63,0,1.05-.23,1.37-.48.31-.25.54-.6.64-1.07.77-.6,1.09-.41,1.93.06ZM127.06,43.55c0-.77-.2-1.39-.55-1.84-.35-.45-.89-.69-1.65-.69s-1.35.18-1.73.63-.57,1.18-.62,1.94c1.07.37,1.17-.25,2.29-.13s1.19.45,2.26.08Z"/>
          <path class="cls-1" d="M139.51,45.88c-.05.53-.14.99-.32,1.41-.2.47-.49.86-.84,1.19s-.81.52-1.32.68c-.44.13-.92.2-1.48.2-.73,0-1.39,0-1.93-.23-.54-.23-.95-.64-1.3-1.07s-.67-.93-.85-1.54c-.17-.61-.26-1.29-.26-2.04s.12-1.43.32-2.05.48-1.16.85-1.6c.38-.44.89-.68,1.43-.92.54-.24,1.13-.46,1.82-.46.64,0,1.16.14,1.6.32.44.17.84.35,1.13.64.29.3.53.64.69,1.02.16.39.26.81.33,1.23-.93.36-.99.47-1.98.36-.09-.53-.25-1.04-.51-1.39-.26-.35-.71-.51-1.32-.51-.44,0-.76.17-1.05.36-.29.19-.62.34-.79.65-.17.31-.19.7-.26,1.09-.08.4-.13.79-.13,1.2,0,.47.03.9.11,1.31.08.41.12.8.29,1.1.17.29.44.53.73.71.29.17.67.25,1.08.25.6,0,1.09-.16,1.41-.49.31-.33.44-.88.52-1.49.8-.61,1.06-.19,2.03.07Z"/>
          <path class="cls-1" d="M141.14,41.35c-.54-.61-.58-1.01-.05-1.62.47-.54,1.11.64,1.46.02.62-1.1-.71-1.48.07-2.47.6-.78,1.22-.78,1.82,0,.78,1-.72,1.48.12,2.43.75.84,1.26-.59,2.17.07.66.48.7,1.15.04,1.62-.91.66-1.34-.66-2.25,0-.66.48-.01.8-.01,1.61s.01.82.01,1.64-.14.82-.14,1.64c0,.48.22.83.41,1.04s.47.4.84.4c.2,0,.38-.09.56-.12.18-.02.38-.06.55-.12.24.75.4.77.28,1.54-.56.19-1.17.36-1.82.36-1,0-1.68-.35-2.08-.89-.39-.54-.61-1.33-.61-2.4,0-1.18-.1-1.18-.1-2.37s.7-1.34.17-2.39c-.34-.68-.99.54-1.46,0Z"/>
          <path class="cls-1" d="M150.96,36.27c.72.72.77,1.32.05,2.04s-1.34.69-2.07-.03-.35-1.07.09-1.99c.46-.98,1.2-.74,1.93-.02ZM150.93,39.77c.68.65.05.91.05,1.85s-.04.94-.04,1.87-.09.94-.09,1.88,0,.94,0,1.88.83,1.29.15,1.94c-.72.68-1.29.6-2.01-.08-.68-.65-.06-.91-.06-1.85s0-.94,0-1.87.03-.94.03-1.88-.01-.94-.01-1.88-.28-.98.13-1.83c.46-.94,1.13-.71,1.85-.03Z"/>
          <path class="cls-1" d="M155.77,39.77c.56.4-.28.73.03,1.34.41-.58.85-.98,1.35-1.25.5-.26,1.04-.33,1.62-.33.68,0,1.21.12,1.66.38.5.29.94.66,1.16,1.26.17.48.18,1.08.18,1.75,0,1.03.05,1.03.05,2.07s0,1.04,0,2.07.7,1.33-.02,2.08-1.29.7-2,0,.1-.99.1-1.97-.1-.98-.1-1.96.06-.98.06-1.96c0-.76-.2-1.28-.46-1.59s-.65-.45-1.17-.45c-.35,0-.67.05-.96.18s-.51.33-.72.55-.43.42-.55.71c-.12.28-.16.59-.16.9,0,.93.08.93.08,1.86s-.14.93-.14,1.87.77,1.27.09,1.92c-.71.68-1.33.66-2.04-.02s0-.97,0-1.91.1-.94.1-1.87-.02-.94-.02-1.88-.02-.94-.02-1.88-.38-1.01.02-1.86c.42-.9,1.08-.56,1.86,0Z"/>
          <path class="cls-1" d="M166.64,49.9c.1.51.34.8.64,1,.31.2.79.34,1.49.34.53,0,1.02-.03,1.35-.25s.59-.61.74-1.05c.15-.45.05-1.09.05-1.87,0-.32.38-.53.09-.67-.32.48-.73.91-1.22,1.17s-1.05.38-1.67.38-1.11-.12-1.56-.31c-.49-.21-.92-.52-1.27-.95-.36-.45-.48-1.04-.64-1.68-.14-.54-.34-1.11-.34-1.78s.16-1.26.31-1.8c.18-.62.38-1.19.76-1.66.37-.44.8-.78,1.29-1s1.02-.3,1.61-.3,1.13.06,1.6.31.83.67,1.18,1.14c.26-.5-.51-.87-.02-1.16.83-.49,1.36-.77,2.03-.08s-.16,1.08-.16,2.08.16,1,.16,1.99-.03,1-.03,2-.01,1-.01,2c0,.78-.2,1.44-.32,2.03-.17.78-.4,1.38-.78,1.84s-.82.76-1.41.96c-.5.17-1.07.22-1.73.22-.58,0-1.1.09-1.55,0-.57-.12-1.09-.3-1.46-.57-.66-.48-.89-1.25-1.01-2.29.59-.81.93-.26,1.89-.03ZM171.04,44.1c0-.98-.26-1.69-.65-2.19-.39-.5-.95-.78-1.72-.78-.72,0-1.37.21-1.77.73-.41.52-.62,1.35-.62,2.33s.36,1.69.74,2.22c.39.54.87.89,1.56.89.77,0,1.33-.31,1.76-.81.42-.5.63-1.19.63-2.1,0-.15.07-.14.07-.29Z"/>
          <path class="cls-1" d="M181.96,39.77c.55.39-.51.91.04,1.3.63-.9,1.35-1.39,2.21-1.54.22-.04.45.04.69.04.61.02,1.06.16,1.44.45.38.3.72.55.89,1.05.38-.54.83-.84,1.29-1.13.51-.31,1.06-.53,1.67-.53.96,0,1.69.29,2.15.85.45.55.66,1.46.66,2.67,0,1.03.01,1.03.01,2.06s-.14,1.03-.14,2.07.85,1.33.13,2.07-1.22.62-1.94-.06c-.68-.64-.07-.89-.07-1.82s0-.94,0-1.88.01-.94.01-1.88c0-.46-.09-.82-.15-1.12-.06-.3-.05-.56-.16-.74-.11-.17-.27-.28-.44-.34-.17-.07-.37.01-.59.01-.35,0-.68-.11-.95.02-.27.13-.39.42-.57.64-.18.22-.33.42-.42.7s-.15.53-.15.82c0,.94-.13.94-.13,1.88s.03.94.03,1.89.72,1.21.03,1.86c-.72.68-1.21.67-1.92-.02s-.11-.93-.11-1.9-.03-.97-.03-1.95.2-.97.2-1.95c0-.81-.16-1.41-.4-1.71-.24-.3-.63-.42-1.04-.42-.17,0-.37.11-.61.19-.24.08-.47.19-.7.37s-.33.46-.49.76c-.16.3-.46.61-.46,1.04,0,.94.16.94.16,1.87s.08.94.08,1.87.51,1.18-.17,1.83c-.71.68-1.12.63-1.84-.05s-.16-.85-.16-1.79.05-.94.05-1.87,0-.94,0-1.88-.09-.94-.09-1.88-.37-1.07.02-1.92c.42-.9,1.2-.48,1.98.07Z"/>
          <path class="cls-1" d="M199.95,49.4c-.67,0-1.27-.05-1.8-.24-.59-.22-1.07-.58-1.48-1.04s-.66-1.06-.85-1.74c-.16-.58-.25-1.21-.25-1.94s-.03-1.45.18-2.06c.2-.61.57-1.1.95-1.54s.82-.81,1.38-1.05c.56-.24,1.2-.36,1.91-.36s1.36.14,1.92.39c.56.25,1.03.58,1.41,1.02s.56.99.75,1.6c.19.61.39,1.24.39,1.97,0,.82-.17,1.52-.39,2.14-.22.62-.47,1.17-.87,1.6-.4.43-.87.76-1.42.98s-1.16.28-1.82.28ZM199.97,47.79c.84,0,1.43-.34,1.82-.93s.61-1.4.61-2.44-.14-1.87-.53-2.46c-.39-.59-1.07-.91-1.9-.91s-1.4.4-1.79,1c-.39.6-.66,1.37-.66,2.38s.24,1.82.61,2.43c.38.6.97.94,1.83.94Z"/>
          <path class="cls-1" d="M206.18,41.35c-.54-.61-.58-1.01-.05-1.62.47-.54,1.11.64,1.46.02.62-1.1-.71-1.48.07-2.47.6-.78,1.22-.78,1.82,0,.78,1-.72,1.48.12,2.43.74.84,1.26-.59,2.17.07.66.48.7,1.15.04,1.62-.91.66-1.34-.66-2.25,0-.66.48-.01.8-.01,1.61s.01.82.01,1.64-.14.82-.14,1.64c0,.48.22.83.41,1.04s.47.4.84.4c.2,0,.38-.09.56-.12.18-.02.38-.06.56-.12.24.74.4.77.28,1.54-.56.19-1.17.36-1.82.36-1,0-1.68-.35-2.08-.89-.39-.54-.61-1.33-.61-2.4,0-1.18-.1-1.18-.1-2.37s.7-1.34.17-2.39c-.34-.68-.99.54-1.46,0Z"/>
          <path class="cls-1" d="M215.93,36.26c.76.93.06,1.18.06,2.38s-.28,1.23-.04,2.4c.38-.54.88-.85,1.39-1.11.5-.26,1-.39,1.56-.39.68,0,1.28-.03,1.73.23.5.29.78.81,1,1.42.17.48.33,1.05.33,1.72,0,1.03,0,1.03,0,2.07s-.03,1.04-.03,2.07.72,1.34,0,2.08-1.2.6-1.91-.1-.1-.89-.1-1.87.08-.98.08-1.96-.09-.98-.09-1.96c0-.76-.14-1.28-.4-1.58s-.64-.47-1.16-.47c-.36,0-.66.13-.95.26-.29.13-.59.23-.8.44s-.35.48-.47.76c-.12.28-.06.57-.06.87,0,.93-.18.93-.18,1.86s.15.93.15,1.87.63,1.27-.05,1.91c-.71.68-1.32.66-2.04,0-.67-.63.12-.95.12-1.87s-.03-.92-.03-1.84-.02-.92-.02-1.84.03-.92.03-1.84-.13-.92-.13-1.84-.03-.92-.03-1.85-.23-.98.19-1.8c.48-.94,1.23-.79,1.85-.02Z"/>
          <path class="cls-1" d="M232.77,46.38c-.16.98-.54,1.73-1.17,2.26-.35.29-.8.48-1.32.61-.43.11-.91.09-1.45.09-.67,0-1.24-.08-1.77-.27-.59-.21-1.16-.44-1.56-.9-.41-.47-.63-1.08-.82-1.76-.16-.57-.29-1.2-.29-1.92,0-.81.11-1.53.33-2.16.21-.63.54-1.15.92-1.58.39-.43.85-.76,1.39-.99.54-.22,1.14-.22,1.79-.22.7,0,1.3,0,1.81.23.51.22.89.58,1.22.98.34.4.64.85.8,1.41.16.56.25,1.19.25,1.87,0,.45.4.74-.02.91-1,.42-1.08.05-2.16.05s-1.08-.07-2.16-.07-1.16-.38-2.16.02c.02.86.3,1.48.7,2.01.39.53.92.9,1.72.9.63,0,1.05-.23,1.37-.48.31-.25.54-.6.64-1.07.77-.6,1.09-.41,1.93.06ZM230.98,43.55c0-.77-.2-1.39-.55-1.84-.35-.45-.89-.69-1.65-.69s-1.35.18-1.73.63-.57,1.18-.62,1.94c1.07.37,1.17-.25,2.29-.13s1.19.45,2.26.08Z"/>
          <path class="cls-1" d="M237.37,39.77c.56.41-.19.71.04,1.36.31-.49.67-.86,1.11-1.12.44-.26.91-.33,1.41-.33.2,0,.36,0,.49.01.13.01.32-.04.45-.01-.05.94-.13.94-.31,1.87-.13-.04-.24-.03-.39-.04-.15-.01-.31-.02-.47-.02-.37,0-.69.04-.97.17s-.51.3-.7.5c-.19.21-.43.4-.53.65-.1.26-.06.55-.06.82,0,.92-.06.92-.06,1.83s.07.92.07,1.84.67,1.22,0,1.85c-.72.67-1.27.67-1.99,0s-.05-.94-.05-1.88.07-.94.07-1.87-.02-.94-.02-1.88-.08-.94-.08-1.88-.26-1.01.13-1.86c.42-.9,1.08-.56,1.86,0Z"/>
          <path class="cls-1" d="M244.12,46.29c.04.31.14.53.27.73.13.2.26.38.45.5.19.12.41.27.66.32.25.04.54.06.83.06.66,0,1.1-.22,1.39-.43.29-.2.49-.46.49-.86,0-.31-.14-.56-.32-.78s-.53-.37-1.09-.46c-.72-.13-1.35-.28-1.89-.4-.54-.12-1.01-.28-1.38-.49s-.56-.54-.74-.87-.37-.73-.37-1.3c0-.43.15-.8.33-1.16.19-.35.39-.69.72-.94.33-.25.73-.45,1.19-.58.46-.13.97-.19,1.51-.19.7,0,1.29.02,1.76.17s.82.41,1.11.66c.29.25.53.53.68.85.15.33.29.76.37,1.12-.84.31-.91.22-1.8.12-.14-.47-.4-.72-.68-.95-.28-.23-.71-.35-1.38-.35-.38,0-.69.03-.93.1-.24.07-.49.07-.63.18-.14.11-.24.27-.3.4-.05.13-.06.28-.06.41,0,.21,0,.39.05.52.05.13.21.18.33.26.12.08.28.13.49.19.21.06.43.27.75.33.57.1.57.08,1.13.18.6.11,1.11.2,1.51.37.4.17.75.33.99.58.24.25.4.55.49.88.09.33.21.69.21,1.09,0,.86-.46,1.48-1.09,2-.35.29-.74.6-1.29.73-.44.1-.95.22-1.51.22-.52,0-1.01-.2-1.49-.3-.48-.1-.87-.31-1.25-.55-.38-.24-.8-.45-1.03-.85-.24-.4-.33-.95-.37-1.57.74-.6.97-.11,1.9.04Z"/>
          <path class="cls-1" d="M25.9,67.99c.76.93.06,1.18.06,2.38s-.28,1.23-.04,2.4c.38-.54.88-.85,1.39-1.11.5-.26.99-.39,1.56-.39.68,0,1.28-.03,1.73.23.5.29.78.81,1,1.42.17.48.33,1.05.33,1.72,0,1.03,0,1.03,0,2.07s-.03,1.04-.03,2.07.72,1.34,0,2.08-1.2.6-1.91-.1-.1-.89-.1-1.87.08-.98.08-1.96-.09-.98-.09-1.96c0-.76-.14-1.28-.4-1.58s-.64-.47-1.16-.47c-.36,0-.66.13-.95.26-.3.13-.59.23-.8.44-.21.22-.35.48-.47.76-.12.28-.06.57-.06.87,0,.93-.18.93-.18,1.86s.15.93.15,1.87.63,1.27-.05,1.91c-.71.68-1.32.66-2.04,0-.67-.63.12-.95.12-1.87s-.03-.92-.03-1.84-.02-.92-.02-1.84.03-.92.03-1.84-.13-.92-.13-1.84-.03-.92-.03-1.85-.23-.98.19-1.8c.48-.94,1.23-.79,1.85-.02Z"/>
          <path class="cls-1" d="M40.21,79.63c-.34.42-.76.8-1.25,1.08s-1.09.39-1.79.39c-.43,0-.81-.12-1.18-.24-.37-.11-.67-.27-.94-.5-.27-.23-.59-.44-.74-.8-.16-.36-.16-.8-.16-1.28,0-.65.09-1.19.37-1.6s.65-.73,1.1-.95c.45-.23.96-.37,1.51-.46.56-.09,1.11-.16,1.67-.18.67-.03.74.26,1.37.03.19-.07-.04-.29-.04-.49,0-.71-.13-1.24-.46-1.52-.33-.27-.8-.35-1.33-.35-.61,0-1.06.11-1.35.33-.3.22-.5.52-.59.93-.9.1-1.09.35-1.84-.16.16-.92.6-1.62,1.24-2.05.64-.42,1.51-.65,2.62-.65.72,0,1.35.02,1.82.21.47.19.77.58,1.05.91.28.34.58.69.69,1.15.11.46.15.99.15,1.54,0,.98,0,.98,0,1.96s-.1.98-.1,1.96.72,1.23.03,1.93-.98.37-1.86,0c-.59-.24.25-.65.02-1.22ZM38.88,76.45c-.59.04-1.06.15-1.43.25-.37.1-.66.19-.85.34-.2.15-.4.31-.46.51-.06.2-.09.44-.09.67,0,.41.24.69.49.92.25.23.58.41,1.07.41.87,0,1.5-.27,1.91-.73.42-.46.62-1.06.62-1.84,0-.27.23-.36.02-.54-.48-.41-.63,0-1.27.03Z"/>
          <path class="cls-1" d="M46,71.49c.79.49.33.85.62,1.74s.27.89.56,1.78.23.91.52,1.79-.28,1.81.66,1.82.25-.97.54-1.85.37-.86.67-1.74.25-.9.55-1.79-.18-1.28.61-1.78c.93-.59,1.53-.85,2.21.02.62.79-.35.95-.71,1.88s-.46.9-.82,1.84-.27.97-.63,1.91-.41.92-.77,1.86.17,1.34-.67,1.91-1.21.58-2.05,0-.36-.95-.71-1.89-.4-.92-.76-1.86-.3-.96-.65-1.9-.38-.93-.74-1.88-1.03-.93-.8-1.91c.27-1.15,1.39-.56,2.37.04Z"/>
          <path class="cls-1" d="M62.42,78.11c-.16.98-.54,1.73-1.17,2.26-.35.29-.8.48-1.32.61-.43.11-.91.09-1.45.09-.67,0-1.24-.08-1.77-.27-.59-.21-1.16-.44-1.56-.9-.41-.47-.63-1.08-.82-1.76-.16-.57-.29-1.21-.29-1.92,0-.81.11-1.53.33-2.16.21-.63.54-1.15.92-1.58.39-.43.85-.76,1.39-.99.54-.22,1.14-.22,1.79-.22.7,0,1.3,0,1.81.23.51.22.89.58,1.23.98.34.4.64.85.8,1.41.16.56.25,1.19.25,1.87,0,.45.4.74-.02.91-1,.42-1.08.05-2.17.05s-1.08-.07-2.17-.07-1.16-.38-2.16.02c.02.86.3,1.48.7,2.01.39.53.92.9,1.72.9.63,0,1.05-.23,1.37-.48.31-.25.54-.6.64-1.07.77-.6,1.09-.41,1.93.06ZM60.63,75.27c0-.77-.2-1.39-.55-1.84-.35-.45-.89-.69-1.65-.69s-1.35.18-1.73.63-.57,1.18-.62,1.94c1.07.37,1.17-.25,2.29-.13s1.19.45,2.26.08Z"/>
          <path class="cls-1" d="M74.84,79.63c-.34.42-.76.8-1.25,1.08s-1.09.39-1.79.39c-.43,0-.81-.12-1.18-.24-.37-.11-.67-.27-.94-.5-.27-.23-.59-.44-.74-.8-.16-.36-.16-.8-.16-1.28,0-.65.09-1.19.37-1.6s.65-.73,1.1-.95c.45-.23.96-.37,1.51-.46.56-.09,1.11-.16,1.67-.18.67-.03.74.26,1.37.03.19-.07-.04-.29-.04-.49,0-.71-.13-1.24-.46-1.52-.33-.27-.8-.35-1.33-.35-.61,0-1.06.11-1.35.33-.3.22-.5.52-.59.93-.9.1-1.09.35-1.84-.16.16-.92.6-1.62,1.24-2.05.64-.42,1.51-.65,2.62-.65.72,0,1.35.02,1.82.21.47.19.77.58,1.05.91.28.34.58.69.69,1.15.11.46.15.99.15,1.54,0,.98,0,.98,0,1.96s-.1.98-.1,1.96.72,1.23.03,1.93-.98.37-1.86,0c-.59-.24.25-.65.02-1.22ZM73.51,76.45c-.59.04-1.06.15-1.43.25-.37.1-.66.19-.85.34-.2.15-.4.31-.46.51-.06.2-.09.44-.09.67,0,.41.24.69.49.92.25.23.58.41,1.07.41.87,0,1.5-.27,1.91-.73.42-.46.62-1.06.62-1.84,0-.27.23-.36.02-.54-.48-.41-.63,0-1.27.03Z"/>
          <path class="cls-1" d="M85.1,78.02c.03.31.14.53.27.73.13.2.26.38.45.5.19.12.41.27.66.32.25.04.54.06.83.06.66,0,1.1-.22,1.39-.43.29-.2.5-.46.5-.86,0-.31-.14-.56-.32-.78s-.53-.37-1.09-.46c-.72-.13-1.35-.28-1.89-.4-.55-.12-1.01-.28-1.38-.49-.37-.21-.56-.54-.74-.87-.19-.33-.37-.73-.37-1.3,0-.43.15-.8.33-1.16.19-.35.39-.69.72-.94.33-.25.73-.45,1.19-.58.46-.13.97-.19,1.51-.19.7,0,1.29.02,1.76.17.46.14.82.41,1.11.66s.53.53.68.85c.15.33.29.76.37,1.12-.84.31-.91.22-1.8.12-.14-.47-.4-.72-.68-.95-.28-.23-.71-.35-1.38-.35-.38,0-.69.03-.93.1s-.49.07-.63.18c-.15.11-.24.27-.3.4-.05.13-.06.28-.06.41,0,.21,0,.39.05.52.05.13.21.18.33.26.12.08.28.13.49.19.21.06.43.27.75.33.57.1.57.08,1.13.18.6.11,1.11.2,1.51.37.4.17.75.33.99.58s.4.55.49.88.21.69.21,1.09c0,.86-.46,1.48-1.09,2-.35.29-.74.6-1.29.73-.44.1-.95.22-1.51.22-.52,0-1.01-.2-1.5-.3-.48-.1-.87-.31-1.25-.55-.38-.24-.8-.45-1.03-.85-.24-.4-.33-.95-.37-1.57.74-.6.97-.11,1.9.04Z"/>
          <path class="cls-1" d="M95.5,71.5c.55.39-.51.91.04,1.3.63-.9,1.35-1.39,2.21-1.54.22-.04.45.04.69.04.61.02,1.06.16,1.44.45.38.3.72.55.89,1.05.38-.54.83-.84,1.29-1.13.51-.31,1.06-.53,1.67-.53.96,0,1.69.29,2.15.85.45.55.66,1.46.66,2.67,0,1.03.01,1.03.01,2.06s-.14,1.03-.14,2.07.85,1.33.13,2.07-1.22.62-1.94-.06c-.68-.64-.07-.89-.07-1.82s0-.94,0-1.88.01-.94.01-1.88c0-.46-.09-.82-.15-1.12-.06-.3-.05-.56-.16-.74-.11-.17-.27-.28-.44-.34-.17-.07-.37.01-.59.01-.35,0-.68-.11-.95.02-.27.13-.39.42-.57.64-.18.22-.33.42-.42.7s-.15.53-.15.82c0,.94-.13.94-.13,1.88s.03.94.03,1.89.72,1.21.03,1.86c-.72.68-1.21.67-1.92-.02s-.11-.93-.11-1.9-.03-.97-.03-1.95.2-.97.2-1.95c0-.81-.16-1.41-.4-1.71-.24-.3-.63-.42-1.04-.42-.17,0-.37.11-.61.19-.24.08-.47.19-.7.37s-.33.46-.49.76c-.16.3-.46.61-.46,1.04,0,.94.16.94.16,1.87s.08.94.08,1.87.51,1.18-.17,1.83c-.71.68-1.12.63-1.84-.05s-.16-.85-.16-1.79.05-.94.05-1.87,0-.94,0-1.88-.09-.94-.09-1.88-.37-1.07.02-1.92c.42-.9,1.2-.48,1.98.07Z"/>
          <path class="cls-1" d="M113.49,81.13c-.67,0-1.27-.05-1.8-.24-.59-.22-1.07-.58-1.48-1.04s-.66-1.06-.85-1.74c-.16-.58-.25-1.21-.25-1.94s-.03-1.45.18-2.06c.2-.61.57-1.1.95-1.54s.82-.81,1.38-1.05c.56-.24,1.2-.36,1.91-.36s1.36.14,1.92.39c.56.25,1.03.58,1.41,1.02s.56.99.75,1.6c.19.61.39,1.24.39,1.97,0,.82-.17,1.52-.39,2.14-.22.62-.47,1.17-.87,1.6-.4.43-.87.76-1.42.98s-1.16.28-1.82.28ZM113.51,79.52c.84,0,1.43-.34,1.82-.93s.61-1.4.61-2.44-.14-1.87-.52-2.46c-.39-.59-1.07-.91-1.9-.91s-1.4.4-1.79,1c-.39.6-.66,1.37-.66,2.38s.24,1.82.61,2.43c.38.6.97.94,1.83.94Z"/>
          <path class="cls-1" d="M124.55,81.13c-.67,0-1.27-.05-1.8-.24-.59-.22-1.07-.58-1.48-1.04s-.66-1.06-.85-1.74c-.16-.58-.25-1.21-.25-1.94s-.03-1.45.18-2.06c.2-.61.57-1.1.95-1.54s.82-.81,1.38-1.05c.56-.24,1.2-.36,1.91-.36s1.36.14,1.92.39c.56.25,1.03.58,1.41,1.02s.56.99.75,1.6c.19.61.39,1.24.39,1.97,0,.82-.17,1.52-.39,2.14-.22.62-.47,1.17-.87,1.6-.4.43-.87.76-1.42.98s-1.16.28-1.82.28ZM124.57,79.52c.84,0,1.43-.34,1.82-.93s.61-1.4.61-2.44-.14-1.87-.52-2.46c-.39-.59-1.07-.91-1.9-.91s-1.4.4-1.79,1c-.39.6-.66,1.37-.66,2.38s.24,1.82.61,2.43c.38.6.97.94,1.83.94Z"/>
          <path class="cls-1" d="M130.78,73.08c-.54-.61-.58-1.01-.05-1.62.47-.54,1.11.64,1.46.02.62-1.1-.71-1.48.07-2.47.6-.78,1.22-.78,1.82,0,.78,1-.72,1.48.12,2.43.75.84,1.26-.59,2.17.07.66.48.7,1.15.04,1.62-.91.66-1.34-.66-2.25,0-.66.48-.01.8-.01,1.61s.01.82.01,1.64-.14.82-.14,1.64c0,.48.22.83.41,1.04s.47.4.84.4c.2,0,.38-.09.56-.12.18-.02.38-.06.55-.12.24.75.4.77.28,1.54-.56.19-1.17.36-1.82.36-1,0-1.68-.35-2.08-.89-.39-.54-.61-1.33-.61-2.4,0-1.18-.1-1.18-.1-2.37s.7-1.34.17-2.39c-.34-.68-.99.54-1.46,0Z"/>
          <path class="cls-1" d="M140.53,67.99c.76.93.06,1.18.06,2.38s-.28,1.23-.04,2.4c.38-.54.88-.85,1.39-1.11.5-.26.99-.39,1.56-.39.68,0,1.28-.03,1.73.23.5.29.78.81,1,1.42.17.48.33,1.05.33,1.72,0,1.03,0,1.03,0,2.07s-.03,1.04-.03,2.07.72,1.34,0,2.08-1.2.6-1.91-.1-.1-.89-.1-1.87.08-.98.08-1.96-.09-.98-.09-1.96c0-.76-.14-1.28-.4-1.58s-.64-.47-1.16-.47c-.36,0-.66.13-.95.26-.3.13-.59.23-.8.44-.21.22-.35.48-.47.76-.12.28-.06.57-.06.87,0,.93-.18.93-.18,1.86s.15.93.15,1.87.63,1.27-.05,1.91c-.71.68-1.32.66-2.04,0-.67-.63.12-.95.12-1.87s-.03-.92-.03-1.84-.02-.92-.02-1.84.03-.92.03-1.84-.13-.92-.13-1.84-.03-.92-.03-1.85-.23-.98.19-1.8c.48-.94,1.23-.79,1.85-.02Z"/>
          <path class="cls-1" d="M151.54,78.34c.62.9-.23,1.06-.49,2.12s.24,1.33-.52,2.12c-.53.55-1.11.64-1.5-.01-.54-.92.14-1.04.28-2.1s-.31-1.21.23-2.14,1.43-.8,2,.02Z"/>
          <path class="cls-1" d="M159.74,78.02c.03.31.14.53.27.73.13.2.26.38.45.5.19.12.41.27.66.32.25.04.54.06.83.06.66,0,1.1-.22,1.39-.43.29-.2.5-.46.5-.86,0-.31-.14-.56-.32-.78s-.53-.37-1.09-.46c-.72-.13-1.35-.28-1.89-.4-.55-.12-1.01-.28-1.38-.49-.37-.21-.56-.54-.74-.87-.19-.33-.37-.73-.37-1.3,0-.43.15-.8.33-1.16.19-.35.39-.69.72-.94.33-.25.73-.45,1.19-.58.46-.13.97-.19,1.51-.19.7,0,1.29.02,1.76.17.46.14.82.41,1.11.66s.53.53.68.85c.15.33.29.76.37,1.12-.84.31-.91.22-1.8.12-.14-.47-.4-.72-.68-.95-.28-.23-.71-.35-1.38-.35-.38,0-.69.03-.93.1s-.49.07-.63.18c-.15.11-.24.27-.3.4-.05.13-.06.28-.06.41,0,.21,0,.39.05.52.05.13.21.18.33.26.12.08.28.13.49.19.21.06.43.27.75.33.57.1.57.08,1.13.18.6.11,1.11.2,1.51.37.4.17.75.33.99.58s.4.55.49.88.21.69.21,1.09c0,.86-.46,1.48-1.09,2-.35.29-.74.6-1.29.73-.44.1-.95.22-1.51.22-.52,0-1.01-.2-1.5-.3-.48-.1-.87-.31-1.25-.55-.38-.24-.8-.45-1.03-.85-.24-.4-.33-.95-.37-1.57.74-.6.97-.11,1.9.04Z"/>
          <path class="cls-1" d="M173.75,79.63c-.34.42-.76.8-1.25,1.08s-1.09.39-1.79.39c-.43,0-.81-.12-1.18-.24-.37-.11-.67-.27-.94-.5-.27-.23-.59-.44-.74-.8-.16-.36-.16-.8-.16-1.28,0-.65.09-1.19.37-1.6s.65-.73,1.1-.95c.45-.23.96-.37,1.51-.46.56-.09,1.11-.16,1.67-.18.67-.03.74.26,1.37.03.19-.07-.04-.29-.04-.49,0-.71-.13-1.24-.46-1.52-.33-.27-.8-.35-1.33-.35-.61,0-1.06.11-1.35.33-.3.22-.5.52-.59.93-.9.1-1.09.35-1.84-.16.16-.92.6-1.62,1.24-2.05.64-.42,1.51-.65,2.62-.65.72,0,1.35.02,1.82.21.47.19.77.58,1.05.91.28.34.58.69.69,1.15.11.46.15.99.15,1.54,0,.98,0,.98,0,1.96s-.1.98-.1,1.96.72,1.23.03,1.93-.98.37-1.86,0c-.59-.24.25-.65.02-1.22ZM172.42,76.45c-.59.04-1.06.15-1.43.25-.37.1-.66.19-.85.34-.2.15-.4.31-.46.51-.06.2-.09.44-.09.67,0,.41.24.69.49.92.25.23.58.41,1.07.41.87,0,1.5-.27,1.91-.73.42-.46.62-1.06.62-1.84,0-.27.23-.36.02-.54-.48-.41-.63,0-1.27.03Z"/>
          <path class="cls-1" d="M179.02,73.08c-.41-.57-1,.57-1.46.04-.53-.61-.5-1.02.03-1.64.46-.53.78.34,1.44.09.25-.1.06-.37.06-.64,0-.99.11-1.8.63-2.35s1.3-.73,2.23-.73c.61,0,1.22.04,1.74.21.1.77.02.84-.3,1.55-.35-.11-.72-.17-1.07-.17-.43,0-.75.13-.98.37-.23.24-.49.58-.49,1.05,0,.3-.16.51.13.59,1.06.29,1.27-.59,2.15.06.65.48.71,1.1.05,1.58-.88.65-1.36-.72-2.19,0-.73.64,0,.95,0,1.92s.07.97.07,1.94-.09.97-.09,1.94.72,1.27.02,1.95-1.37.77-2.08.08.15-1.06.15-2.03-.15-.97-.15-1.94-.15-1,.03-1.96c.19-1.01.66-1.17.09-1.95Z"/>
          <path class="cls-1" d="M193.03,78.11c-.16.98-.54,1.73-1.17,2.26-.35.29-.8.48-1.32.61-.43.11-.91.09-1.45.09-.67,0-1.24-.08-1.77-.27-.59-.21-1.16-.44-1.56-.9-.41-.47-.63-1.08-.82-1.76-.16-.57-.29-1.21-.29-1.92,0-.81.11-1.53.33-2.16.21-.63.54-1.15.92-1.58.39-.43.85-.76,1.39-.99.54-.22,1.14-.22,1.79-.22.7,0,1.3,0,1.81.23.51.22.89.58,1.23.98.34.4.64.85.8,1.41.16.56.25,1.19.25,1.87,0,.45.4.74-.02.91-1,.42-1.08.05-2.17.05s-1.08-.07-2.17-.07-1.16-.38-2.16.02c.02.86.3,1.48.7,2.01.39.53.92.9,1.72.9.63,0,1.05-.23,1.37-.48.31-.25.54-.6.64-1.07.77-.6,1.09-.41,1.93.06ZM191.24,75.27c0-.77-.2-1.39-.55-1.84-.35-.45-.89-.69-1.65-.69s-1.35.18-1.73.63-.57,1.18-.62,1.94c1.07.37,1.17-.25,2.29-.13s1.19.45,2.26.08Z"/>
          <path class="cls-1" d="M197.41,78.34c.62.9-.23,1.06-.49,2.12s.24,1.33-.52,2.12c-.53.55-1.11.64-1.5-.01-.54-.92.14-1.04.28-2.1s-.31-1.21.23-2.14,1.43-.8,2,.02Z"/>
          <path class="cls-1" d="M209.77,79.63c-.34.42-.76.8-1.25,1.08s-1.09.39-1.79.39c-.43,0-.81-.12-1.18-.24-.37-.11-.67-.27-.94-.5-.27-.23-.59-.44-.74-.8-.16-.36-.16-.8-.16-1.28,0-.65.09-1.19.37-1.6s.65-.73,1.1-.95c.45-.23.96-.37,1.51-.46.56-.09,1.11-.16,1.67-.18.67-.03.74.26,1.37.03.19-.07-.04-.29-.04-.49,0-.71-.12-1.24-.46-1.52-.33-.27-.8-.35-1.33-.35-.62,0-1.06.11-1.35.33s-.5.52-.59.93c-.91.1-1.09.35-1.85-.16.16-.92.6-1.62,1.24-2.05.64-.42,1.51-.65,2.62-.65.72,0,1.35.02,1.82.21.47.19.77.58,1.05.91.28.34.58.69.69,1.15.11.46.15.99.15,1.54,0,.98,0,.98,0,1.96s-.1.98-.1,1.96.72,1.23.03,1.93-.98.37-1.86,0c-.59-.24.25-.65.02-1.22ZM208.44,76.45c-.59.04-1.06.15-1.43.25-.37.1-.66.19-.85.34s-.4.31-.46.51c-.06.2-.09.44-.09.67,0,.41.24.69.49.92.25.23.58.41,1.07.41.87,0,1.49-.27,1.91-.73.42-.46.62-1.06.62-1.84,0-.27.23-.36.02-.54-.48-.41-.63,0-1.27.03Z"/>
          <path class="cls-1" d="M216.35,71.49c.56.4-.28.73.03,1.34.41-.58.84-.98,1.35-1.25.5-.26,1.04-.33,1.62-.33.68,0,1.21.12,1.66.38.5.29.94.66,1.16,1.26.17.48.18,1.08.18,1.75,0,1.03.05,1.03.05,2.07s0,1.04,0,2.07.7,1.33-.02,2.08-1.29.7-2,0,.1-.99.1-1.97-.1-.98-.1-1.96.06-.98.06-1.96c0-.76-.2-1.28-.46-1.59s-.65-.45-1.17-.45c-.35,0-.67.05-.96.18s-.51.33-.72.55-.43.42-.55.71c-.12.28-.16.59-.16.9,0,.93.08.93.08,1.86s-.14.93-.14,1.87.77,1.27.09,1.92c-.71.68-1.33.66-2.04-.02s0-.97,0-1.91.1-.94.1-1.87-.02-.94-.02-1.88-.02-.94-.02-1.88-.38-1.01.02-1.86c.42-.9,1.08-.56,1.86,0Z"/>
          <path class="cls-1" d="M231.63,79.55c-.37.53-.81.97-1.28,1.23-.47.26-1.03.36-1.66.36s-1.16-.2-1.64-.44c-.48-.24-.84-.54-1.15-.98-.31-.44-.7-.89-.86-1.5-.16-.61-.12-1.3-.12-2.03,0-.69.01-1.34.17-1.93s.41-1.12.72-1.56c.31-.44.72-.78,1.18-1.04.46-.26.99-.42,1.59-.45.12-.01.23.13.34.14.12,0,.24-.12.37-.11.41.05.76.24,1.14.43.38.19.76.43,1.1.86.21-1.12,0-1.14,0-2.27s-.73-1.42.02-2.28c.64-.74,1.31-.72,2.03-.05.67.63-.07.98-.07,1.9s.03.92.03,1.84.11.92.11,1.84-.19.92-.19,1.84.15.92.15,1.84-.03.92-.03,1.85.64,1.24-.03,1.88-1.05.28-1.93-.11c-.62-.28.28-.65,0-1.24ZM231.62,75.97c0-.59-.13-1.08-.25-1.48-.12-.4-.25-.74-.47-.97-.21-.23-.44-.49-.72-.6-.28-.1-.62-.15-.93-.15-.73,0-1.24.41-1.64.96s-.7,1.32-.7,2.43c0,.6.12,1.11.23,1.53.11.42.26.76.46,1.02.2.27.42.47.68.59.27.12.56.17.87.17.72,0,1.4-.14,1.85-.63.45-.49.57-1.34.57-2.37,0-.24.04-.24.04-.49Z"/>
          <path class="cls-1" d="M29.33,99.72c.72.72.77,1.32.05,2.04s-1.34.69-2.07-.03-.35-1.07.09-1.99c.46-.98,1.2-.74,1.93-.02ZM29.3,103.23c.68.65.05.91.05,1.85s-.04.94-.04,1.87-.09.94-.09,1.88,0,.94,0,1.88.83,1.29.15,1.94c-.72.68-1.29.6-2.01-.08-.68-.65-.06-.91-.06-1.85s0-.94,0-1.87.03-.94.03-1.88-.01-.94-.01-1.88-.28-.98.13-1.83c.46-.94,1.13-.71,1.85-.03Z"/>
          <path class="cls-1" d="M34.13,103.22c.56.4-.28.73.03,1.34.41-.58.85-.98,1.35-1.25.5-.26,1.04-.33,1.62-.33.68,0,1.21.12,1.66.38.5.29.94.66,1.16,1.26.17.48.18,1.08.18,1.75,0,1.03.05,1.03.05,2.07s0,1.04,0,2.07.7,1.33-.02,2.08-1.29.7-2,0,.1-.99.1-1.97-.1-.98-.1-1.96.06-.98.06-1.96c0-.76-.2-1.28-.46-1.59-.27-.31-.65-.45-1.17-.45-.35,0-.67.05-.96.18-.3.13-.51.33-.72.55s-.43.42-.55.7c-.12.28-.16.59-.16.9,0,.93.08.93.08,1.86s-.14.93-.14,1.87.77,1.27.09,1.92c-.71.68-1.33.66-2.04-.02s0-.97,0-1.91.1-.94.1-1.87-.02-.94-.02-1.88-.02-.94-.02-1.88-.38-1.01.02-1.86c.42-.9,1.08-.56,1.86,0Z"/>
          <path class="cls-1" d="M43.56,104.81c-.41-.57-1,.57-1.46.04-.53-.61-.5-1.02.03-1.64.46-.53.78.34,1.44.09.25-.1.06-.37.06-.64,0-.99.11-1.8.63-2.35s1.3-.73,2.23-.73c.61,0,1.22.05,1.74.21.1.78.02.84-.3,1.55-.35-.11-.72-.17-1.07-.17-.43,0-.75.13-.98.37-.23.24-.49.58-.49,1.05,0,.3-.16.51.13.59,1.06.29,1.27-.59,2.15.06.65.48.71,1.1.05,1.58-.88.65-1.36-.72-2.19,0-.73.64,0,.95,0,1.92s.07.97.07,1.94-.09.97-.09,1.94.72,1.27.02,1.95-1.37.77-2.08.08.15-1.06.15-2.03-.15-.97-.15-1.94-.15-1,.03-1.96c.19-1.01.66-1.17.09-1.95Z"/>
          <path class="cls-1" d="M53.69,112.86c-.67,0-1.27-.05-1.8-.24-.59-.22-1.07-.58-1.48-1.04s-.66-1.06-.85-1.74c-.16-.58-.25-1.21-.25-1.94s-.03-1.44.18-2.06c.2-.61.57-1.1.95-1.54s.82-.81,1.38-1.05c.56-.24,1.2-.36,1.91-.36s1.36.14,1.92.39c.56.25,1.03.58,1.41,1.02s.56.99.75,1.6.39,1.24.39,1.97c0,.82-.17,1.52-.39,2.14-.22.62-.47,1.17-.87,1.6-.4.43-.87.76-1.42.98s-1.16.28-1.82.28ZM53.71,111.25c.84,0,1.43-.34,1.82-.93.39-.6.61-1.4.61-2.43s-.14-1.87-.52-2.46-1.07-.92-1.9-.92-1.4.4-1.79,1c-.39.6-.66,1.37-.66,2.38s.24,1.82.61,2.42.97.94,1.83.94Z"/>
          <path class="cls-1" d="M62.68,103.22c.56.41-.19.71.04,1.36.31-.49.67-.86,1.11-1.12.44-.26.91-.33,1.41-.33.2,0,.36,0,.49.01.13.01.32-.04.45-.01-.05.94-.13.94-.31,1.87-.13-.04-.24-.03-.39-.04-.15-.01-.31-.02-.47-.02-.37,0-.69.04-.97.17-.28.13-.51.3-.7.5s-.43.39-.53.65-.06.55-.06.82c0,.92-.06.92-.06,1.83s.07.92.07,1.84.67,1.22,0,1.85c-.72.67-1.27.67-1.98,0s-.05-.94-.05-1.88.07-.94.07-1.87-.02-.94-.02-1.88-.08-.94-.08-1.88-.26-1.01.13-1.86c.42-.9,1.08-.56,1.86,0Z"/>
          <path class="cls-1" d="M70.15,103.23c.55.39-.51.91.04,1.3.63-.9,1.35-1.39,2.21-1.54.22-.04.45.04.69.04.61.02,1.06.16,1.44.45s.72.55.89,1.05c.38-.54.83-.84,1.29-1.13.51-.31,1.06-.53,1.67-.53.96,0,1.69.29,2.15.85.45.55.66,1.46.66,2.68,0,1.03.01,1.03.01,2.06s-.14,1.03-.14,2.07.85,1.33.13,2.07-1.22.62-1.94-.06c-.68-.64-.07-.89-.07-1.82s0-.94,0-1.88.01-.94.01-1.88c0-.46-.09-.82-.15-1.12s-.05-.56-.16-.74-.27-.28-.44-.34-.37.01-.59.01c-.35,0-.68-.11-.95.02-.27.13-.39.42-.57.64-.18.22-.33.42-.42.69-.09.27-.15.53-.15.82,0,.94-.13.94-.13,1.88s.03.94.03,1.89.72,1.21.03,1.86c-.72.68-1.21.67-1.92-.02s-.11-.93-.11-1.9-.03-.97-.03-1.95.2-.97.2-1.95c0-.81-.16-1.41-.4-1.71s-.63-.43-1.04-.43c-.17,0-.37.11-.61.19-.24.08-.47.19-.7.37s-.33.46-.49.76c-.16.3-.46.61-.46,1.04,0,.94.16.94.16,1.87s.08.94.08,1.87.51,1.18-.17,1.83c-.71.68-1.12.63-1.84-.05s-.16-.85-.16-1.79.05-.94.05-1.87,0-.94,0-1.88-.09-.94-.09-1.88-.37-1.07.02-1.92c.42-.9,1.2-.48,1.98.07Z"/>
          <path class="cls-1" d="M89.5,111.36c-.34.42-.76.8-1.25,1.08s-1.09.39-1.79.39c-.43,0-.81-.12-1.18-.24-.37-.11-.67-.27-.94-.49-.27-.23-.59-.44-.74-.8-.16-.35-.16-.8-.16-1.28,0-.65.09-1.19.37-1.6s.65-.73,1.1-.95c.45-.23.96-.37,1.51-.46.56-.09,1.11-.16,1.67-.18.67-.03.74.26,1.37.03.19-.07-.04-.29-.04-.49,0-.71-.13-1.25-.46-1.52-.33-.27-.8-.35-1.33-.35-.61,0-1.06.11-1.35.33-.3.22-.5.52-.59.93-.9.1-1.09.35-1.84-.16.16-.92.6-1.62,1.24-2.04s1.51-.65,2.62-.65c.72,0,1.35.02,1.82.21.47.19.77.58,1.05.91.28.34.58.69.69,1.15.11.46.15.99.15,1.54,0,.98,0,.98,0,1.95s-.1.98-.1,1.96.72,1.23.03,1.93-.98.37-1.86,0c-.59-.24.25-.65.02-1.22ZM88.17,108.18c-.59.04-1.06.15-1.43.25-.37.1-.66.19-.85.34-.2.15-.4.31-.46.51-.06.2-.09.44-.09.67,0,.41.24.69.49.91s.58.41,1.07.41c.87,0,1.5-.27,1.91-.73.42-.46.62-1.06.62-1.84,0-.27.23-.36.02-.54-.48-.41-.63,0-1.27.03Z"/>
          <path class="cls-1" d="M93.32,104.81c-.54-.61-.58-1.01-.05-1.62.47-.54,1.11.64,1.46.02.62-1.1-.71-1.48.07-2.47.6-.78,1.22-.78,1.82,0,.78,1-.72,1.48.12,2.43.75.84,1.26-.59,2.17.07.66.48.7,1.15.04,1.62-.91.66-1.34-.66-2.25,0-.66.48-.01.8-.01,1.61s.01.82.01,1.64-.14.82-.14,1.64c0,.48.22.83.41,1.04s.47.4.84.4c.2,0,.38-.09.56-.12.18-.02.38-.06.56-.12.24.74.4.77.28,1.54-.56.19-1.17.36-1.82.36-1,0-1.68-.35-2.08-.89s-.61-1.33-.61-2.4c0-1.18-.1-1.18-.1-2.37s.7-1.34.17-2.39c-.34-.68-.99.54-1.46,0Z"/>
          <path class="cls-1" d="M103.15,99.72c.72.72.77,1.32.05,2.04s-1.34.69-2.07-.03-.35-1.07.09-1.99c.46-.98,1.2-.74,1.93-.02ZM103.12,103.23c.68.65.05.91.05,1.85s-.04.94-.04,1.87-.09.94-.09,1.88,0,.94,0,1.88.83,1.29.15,1.94c-.72.68-1.29.6-2.01-.08-.68-.65-.06-.91-.06-1.85s0-.94,0-1.87.03-.94.03-1.88-.01-.94-.01-1.88-.28-.98.13-1.83c.46-.94,1.13-.71,1.85-.03Z"/>
          <path class="cls-1" d="M107.33,103.22c.79.49.33.85.62,1.74s.27.89.56,1.78.23.91.52,1.79-.28,1.81.66,1.82.25-.97.54-1.85.37-.86.67-1.74.25-.9.55-1.79-.18-1.28.61-1.78c.93-.59,1.53-.85,2.21.02.62.79-.35.95-.71,1.88s-.46.9-.82,1.84-.27.97-.63,1.91-.41.92-.77,1.86.17,1.34-.67,1.91-1.21.58-2.05,0-.36-.95-.71-1.89-.4-.92-.76-1.86-.3-.96-.65-1.9-.38-.93-.74-1.88-1.03-.93-.8-1.91c.27-1.15,1.39-.56,2.37.04Z"/>
          <path class="cls-1" d="M123.75,109.84c-.16.98-.54,1.73-1.17,2.26-.35.29-.8.48-1.32.61-.43.11-.91.09-1.45.09-.67,0-1.24-.08-1.77-.27-.59-.21-1.16-.44-1.56-.9-.41-.47-.63-1.08-.82-1.76-.16-.57-.29-1.2-.29-1.92,0-.81.11-1.53.33-2.16.21-.63.54-1.15.92-1.58.39-.43.85-.76,1.39-.99.54-.22,1.14-.22,1.79-.22.7,0,1.3,0,1.81.23.51.22.89.58,1.23.98.34.4.64.85.8,1.41.16.56.25,1.19.25,1.87,0,.45.4.74-.02.91-1,.42-1.08.05-2.17.05s-1.08-.07-2.17-.07-1.16-.38-2.16.02c.02.86.3,1.48.7,2.01.39.53.92.9,1.72.9.63,0,1.05-.23,1.37-.48.31-.25.54-.6.64-1.07.77-.6,1.09-.41,1.93.06ZM121.96,107c0-.77-.2-1.39-.55-1.84-.35-.45-.89-.69-1.65-.69s-1.35.18-1.73.63c-.38.45-.57,1.18-.62,1.94,1.07.37,1.17-.25,2.29-.13s1.19.45,2.26.08Z"/>
          <path class="cls-1" d="M130.68,103.23c.7-.67,1.12-.59,1.92-.05.54.36-.31.74-.03,1.33.37-.52.86-.83,1.34-1.1.48-.27.98-.4,1.61-.4s1.23-.05,1.7.19c.48.23.81.66,1.13,1.09.32.43.62.92.78,1.53s.23,1.29.23,2.04-.12,1.45-.3,2.07c-.19.62-.44,1.16-.78,1.6-.34.44-.83.65-1.31.88-.49.24-.98.48-1.6.48-.49,0-.94-.17-1.4-.36s-.91-.48-1.32-.99c-.26,1.11,0,1.14,0,2.28s.73,1.43-.02,2.29c-.65.75-1.32.72-2.05.05-.67-.62.07-.98.07-1.9s-.03-.92-.03-1.84-.11-.92-.11-1.84.19-.92.19-1.84-.15-.92-.15-1.84.22-.93.03-1.83c-.2-.95-.58-1.2.08-1.83ZM132.59,108.06c0,.61.13,1.11.26,1.52.13.4.26.74.48.98.21.24.44.5.72.6.28.1.62.14.93.14s.6-.23.87-.35c.28-.12.58-.22.79-.49.21-.27.31-.64.43-1.06.12-.42.18-.92.18-1.53s-.04-1.13-.16-1.54c-.12-.42-.29-.74-.5-1-.2-.26-.38-.57-.64-.68-.27-.11-.59-.04-.88-.04-.71,0-1.34.18-1.8.67-.46.48-.62,1.29-.62,2.33,0,.23-.05.23-.05.45Z"/>
          <path class="cls-1" d="M143.82,103.22c.56.41-.19.71.04,1.36.31-.49.67-.86,1.11-1.12.44-.26.91-.33,1.41-.33.2,0,.36,0,.49.01.13.01.32-.04.45-.01-.05.94-.13.94-.31,1.87-.13-.04-.24-.03-.39-.04-.15-.01-.31-.02-.47-.02-.37,0-.69.04-.97.17-.28.13-.51.3-.7.5s-.43.39-.53.65-.06.55-.06.82c0,.92-.06.92-.06,1.83s.07.92.07,1.84.67,1.22,0,1.85c-.72.67-1.27.67-1.98,0s-.05-.94-.05-1.88.07-.94.07-1.87-.02-.94-.02-1.88-.08-.94-.08-1.88-.26-1.01.13-1.86c.42-.9,1.08-.56,1.86,0Z"/>
          <path class="cls-1" d="M156.99,109.84c-.16.98-.54,1.73-1.17,2.26-.35.29-.8.48-1.32.61-.43.11-.91.09-1.45.09-.67,0-1.24-.08-1.77-.27-.59-.21-1.16-.44-1.56-.9-.41-.47-.63-1.08-.82-1.76-.16-.57-.29-1.2-.29-1.92,0-.81.11-1.53.33-2.16.21-.63.54-1.15.92-1.58.39-.43.85-.76,1.39-.99.54-.22,1.14-.22,1.79-.22.7,0,1.3,0,1.81.23.51.22.89.58,1.23.98.34.4.64.85.8,1.41.16.56.25,1.19.25,1.87,0,.45.4.74-.02.91-1,.42-1.08.05-2.17.05s-1.08-.07-2.17-.07-1.16-.38-2.16.02c.02.86.3,1.48.7,2.01.39.53.92.9,1.72.9.63,0,1.05-.23,1.37-.48.31-.25.54-.6.64-1.07.77-.6,1.09-.41,1.93.06ZM155.2,107c0-.77-.2-1.39-.55-1.84-.35-.45-.89-.69-1.65-.69s-1.35.18-1.73.63c-.38.45-.57,1.18-.62,1.94,1.07.37,1.17-.25,2.29-.13s1.19.45,2.26.08Z"/>
          <path class="cls-1" d="M161.72,113.35c.1.51.34.8.64,1,.31.2.79.33,1.49.33.53,0,1.02-.03,1.35-.25s.59-.61.74-1.05.05-1.09.05-1.87c0-.32.38-.53.09-.66-.32.48-.73.91-1.22,1.17s-1.05.38-1.67.38-1.11-.12-1.56-.31c-.49-.21-.92-.52-1.27-.95-.36-.45-.48-1.04-.64-1.68-.14-.54-.34-1.11-.34-1.78s.16-1.26.31-1.81c.18-.62.38-1.19.76-1.66.37-.44.8-.78,1.29-1s1.02-.3,1.61-.3,1.13.06,1.6.31.83.67,1.18,1.14c.26-.5-.51-.87-.02-1.16.83-.49,1.36-.77,2.03-.08s-.16,1.08-.16,2.08.16,1,.16,1.99-.03,1-.03,2-.01,1-.01,2c0,.78-.2,1.44-.32,2.03-.17.78-.4,1.38-.78,1.84s-.82.76-1.41.96c-.5.17-1.07.22-1.73.22-.58,0-1.1.09-1.55,0-.57-.12-1.09-.3-1.46-.56-.66-.48-.89-1.25-1.01-2.29.59-.81.93-.26,1.89-.03ZM166.11,107.56c0-.98-.26-1.69-.65-2.19-.39-.5-.95-.78-1.72-.78-.72,0-1.37.21-1.77.73-.41.52-.62,1.35-.62,2.33s.36,1.69.74,2.22.87.89,1.56.89c.77,0,1.33-.31,1.76-.81.42-.5.63-1.19.63-2.1,0-.15.07-.14.07-.29Z"/>
          <path class="cls-1" d="M172.82,103.22c.56.4-.28.73.03,1.34.41-.58.85-.98,1.35-1.25.5-.26,1.04-.33,1.62-.33.68,0,1.21.12,1.66.38.5.29.94.66,1.16,1.26.17.48.18,1.08.18,1.75,0,1.03.05,1.03.05,2.07s0,1.04,0,2.07.7,1.33-.02,2.08-1.29.7-2,0,.1-.99.1-1.97-.1-.98-.1-1.96.06-.98.06-1.96c0-.76-.2-1.28-.46-1.59-.27-.31-.65-.45-1.17-.45-.35,0-.67.05-.96.18-.3.13-.51.33-.72.55s-.43.42-.55.7c-.12.28-.16.59-.16.9,0,.93.08.93.08,1.86s-.14.93-.14,1.87.77,1.27.09,1.92c-.71.68-1.33.66-2.04-.02s0-.97,0-1.91.1-.94.1-1.87-.02-.94-.02-1.88-.02-.94-.02-1.88-.38-1.01.02-1.86c.42-.9,1.08-.56,1.86,0Z"/>
          <path class="cls-1" d="M187.18,111.36c-.34.42-.76.8-1.25,1.08s-1.09.39-1.79.39c-.43,0-.81-.12-1.18-.24-.37-.11-.67-.27-.94-.49-.27-.23-.59-.44-.74-.8-.16-.35-.16-.8-.16-1.28,0-.65.09-1.19.37-1.6s.65-.73,1.1-.95c.45-.23.96-.37,1.51-.46.56-.09,1.11-.16,1.67-.18.67-.03.74.26,1.37.03.19-.07-.04-.29-.04-.49,0-.71-.13-1.25-.46-1.52-.33-.27-.8-.35-1.33-.35-.61,0-1.06.11-1.35.33-.3.22-.5.52-.59.93-.9.1-1.09.35-1.84-.16.16-.92.6-1.62,1.24-2.04s1.51-.65,2.62-.65c.72,0,1.35.02,1.82.21.47.19.77.58,1.05.91.28.34.58.69.69,1.15.11.46.15.99.15,1.54,0,.98,0,.98,0,1.95s-.1.98-.1,1.96.72,1.23.03,1.93-.98.37-1.86,0c-.59-.24.25-.65.02-1.22ZM185.85,108.18c-.59.04-1.06.15-1.43.25-.37.1-.66.19-.85.34-.2.15-.4.31-.46.51-.06.2-.09.44-.09.67,0,.41.24.69.49.91s.58.41,1.07.41c.87,0,1.5-.27,1.91-.73.42-.46.62-1.06.62-1.84,0-.27.23-.36.02-.54-.48-.41-.63,0-1.27.03Z"/>
          <path class="cls-1" d="M193.76,103.22c.56.4-.28.73.03,1.34.41-.58.85-.98,1.35-1.25.5-.26,1.04-.33,1.62-.33.68,0,1.21.12,1.66.38.5.29.94.66,1.16,1.26.17.48.18,1.08.18,1.75,0,1.03.05,1.03.05,2.07s0,1.04,0,2.07.7,1.33-.02,2.08-1.29.7-2,0,.1-.99.1-1.97-.1-.98-.1-1.96.06-.98.06-1.96c0-.76-.2-1.28-.46-1.59-.27-.31-.65-.45-1.17-.45-.35,0-.67.05-.96.18-.3.13-.51.33-.72.55s-.43.42-.55.7c-.12.28-.16.59-.16.9,0,.93.08.93.08,1.86s-.14.93-.14,1.87.77,1.27.09,1.92c-.71.68-1.33.66-2.04-.02s0-.97,0-1.91.1-.94.1-1.87-.02-.94-.02-1.88-.02-.94-.02-1.88-.38-1.01.02-1.86c.42-.9,1.08-.56,1.86,0Z"/>
          <path class="cls-1" d="M210.57,109.33c-.05.53-.14.99-.32,1.4-.2.47-.49.86-.84,1.19-.35.34-.81.52-1.32.68-.44.13-.92.2-1.48.2-.73,0-1.39,0-1.93-.23-.54-.23-.94-.64-1.3-1.07-.36-.43-.67-.93-.85-1.54-.17-.61-.26-1.29-.26-2.04s.12-1.43.32-2.05c.2-.62.48-1.16.85-1.6.38-.44.89-.68,1.43-.92.54-.24,1.13-.46,1.82-.46.64,0,1.16.14,1.6.32.44.17.84.35,1.12.64.29.29.53.64.69,1.02.16.39.26.81.33,1.23-.93.36-.99.46-1.98.36-.09-.53-.25-1.04-.52-1.39-.26-.35-.71-.51-1.32-.51-.44,0-.76.17-1.05.36-.29.19-.62.34-.79.65-.17.31-.19.7-.27,1.09-.07.4-.13.79-.13,1.2,0,.47.03.9.11,1.31.08.41.12.8.29,1.1.17.3.44.53.73.71.29.17.67.25,1.08.25.6,0,1.09-.16,1.41-.49.31-.33.44-.88.52-1.49.8-.61,1.06-.19,2.03.07Z"/>
          <path class="cls-1" d="M213.02,114.27c.29.11.59.12.96.12.35,0,.63-.05.83-.22.2-.17.47-.48.65-.96.16-.45.4-.48.33-.95-.15-.97-.54-.86-.92-1.77s-.28-.95-.66-1.85-.44-.88-.83-1.79-.38-.91-.76-1.82-1.38-1.08-.74-1.83c.74-.88,1.31-.59,2.31-.01.78.45.18.9.49,1.75s.44.8.75,1.65.24.88.55,1.72-.21,1.65.69,1.66.26-.84.54-1.68.3-.84.58-1.69.22-.87.51-1.72-.11-1.19.65-1.66c.92-.57,1.51-.88,2.16-.02.61.81-.26,1-.62,1.94s-.53.88-.89,1.83-.22,1-.58,1.95-.39.94-.75,1.89-.37.95-.73,1.9c-.21.55-.53.99-.71,1.41s-.36.78-.59,1.07c-.23.29-.48.52-.8.67-.32.15-.7.19-1.16.19-.3,0-.59.11-.85.07-.26-.04-.61-.16-.9-.26-.19-.79.16-.85.49-1.58Z"/>
          <path class="cls-1" d="M225.81,108.35c0-.33-.02-.63.06-.9.09-.27.24-.5.39-.73.15-.22.38-.37.56-.57.18-.21.36-.41.56-.62.25-.26.12-.39.38-.65.23-.24.52-.43.68-.72s.18-.67.18-1.12c0-.58-.14-1.01-.45-1.32-.31-.32-.72-.5-1.27-.5-.68,0-1.19.17-1.54.49-.35.32-.65.7-.81,1.42-.9.21-.95.24-1.8-.11.08-.47.29-.89.49-1.32.2-.43.38-.85.71-1.17.33-.33.74-.59,1.22-.78s1.07-.27,1.74-.27c.56,0,1.08,0,1.52.13.52.15.92.48,1.28.81.66.61,1.01,1.39,1.01,2.38,0,.58.02,1.12-.15,1.51s-.54.64-.79.91c-.53.56-.41.66-.95,1.21-.3.31-.56.6-.76.93s-.3.67-.3,1.09c0,.14.07.16-.06.18-.97.13-.96.12-1.93.03-.18-.02.03-.12.03-.3ZM227.73,110.14c.79.96.84,1.52.05,2.47-.65.79-1.4.76-2.05-.03-.79-.96-.39-1.29.09-2.43.42-1,1.27-.8,1.91-.02Z"/>
        </g>
        <path class="cls-2" d="M129.69,2.87c.25.13.5.13.75,0,.12-.09.23-.09.35,0,.25.12.51.12.75-.02.46-.29,1.03.09,1.46-.33,2.29.02,4.58.04,6.87.05q2.1.01,2.21,2.33c-.18.33-.2.66,0,.98-.04.13-.02.25.07.35.12.17.25.34.28.57,0,.17,0,.34,0,.52-.04.22-.17.38-.29.55-.02.66-.04,1.32-.06,1.98-.07.18-.19.33-.28.49-.13.87-.33,1.76.34,2.49.09.14.2.26.33.36.75.22,1.08.74,1.05,1.64-.03,1.23.01,2.46.02,3.68-.07.18-.19.33-.28.49-.2.79-.1,1.6-.08,2.4-.08.2-.21.36-.36.49v-.02c-.09.14-.19.28-.29.43-.08.09-.11.2-.08.33-1.23,1.32-2.77,1.63-4.37,1.74h0c-1.73.46-3.49.11-5.24.2-11.7.59-23.42.37-35.13.47-1.21,0-2.35-.71-3.56-.29l-.09-.04-.08.05c-.51-.2-1.03-.37-1.52.05h-.02c-2.54-.53-5.13.1-7.67-.48l.03.02c-1.32-.52-2.74.18-4.05-.39h0c-1.82-.42-3.65-.18-5.48-.03l.03.02c-.16-.17-.32-.13-.48-.01l-.09-.05-.09.04c-.82-.29-1.64-.24-2.46,0l-.08-.08-.09.05c-.26.01-.48.32-.76.1h-.02c-1.53-.49-3.09-.11-4.63-.25-.64-.06-1.32.25-1.92-.24l.03.02c-.87-.27-1.74-.33-2.6.02h0c-2.66.6-5.26-.17-7.87-.45-.29-.03-.58-.19-.89-.17-3.39.24-6.75-.45-10.14-.48-5.08-.04-10.16-.49-15.24-.37-.96.02-1.9-.35-2.83-.6-.97-.25-1.89-.33-2.84,0h0c-2.29-.46-4.64.09-6.93-.46l.03.02c-1,0-1.92-.87-2.97-.39h0c-.49.29-.97.37-1.45-.06l.03.03c-.45-.39-1.07.06-1.5-.39h0c-1.96-.35-3.92-.31-5.88,0v-.02c-.1.14-.21.15-.33.02h0c-.87-.63-2.22-.02-2.81-1.38-.07-.45.18-.75.38-1.07.29-1.21-1.51-1.8-.73-3.16,0-.38.18-.66.37-.94.03-.17.11-.31.24-.41.24-.03.48-.05.72-.08-.19-.53,1.26.25.47-.76l-.08.04c.1-.23.24-.39.47-.45,2.27-.03,4.55.15,6.82-.11.15-.1.27-.24.43-.32.59.03,1.18.11,1.76-.07.15-.14.3-.29.51-.32.56-.03,1.11-.05,1.67-.08-.04-2.53-.13-2.62-2.36-2.66-.48,0-.97.02-1.45,0-1.6-.07-3.18-.21-4.03-2.12-.07-.39.1-.69.3-.98.06-.13.12-.27.16-.42.02-.14.03-.29.02-.43-.05-.21-.14-.4-.26-.58-.14-.19-.2-.41-.2-.65.03-.16.11-.29.24-.37.11.03.21.01.29-.07.14-.13.28-.26.46-.33.46.03.92.09,1.37-.1.15-.1.27-.24.43-.32.22-.03.44-.06.66-.09.13-.1.26-.22.38-.34h-.01c.12-.16.26-.3.43-.4.11.03.21,0,.3-.09.15-.1.27-.24.43-.32.2,0,.4,0,.6,0,.13.11.27.21.41.3.73.7,1.47.23,2.22.05.23-.2.55-.14.77-.35.19,0,.39.01.58.02.15.09.3.18.45.27.13,0,.27.02.4.03.24-.15.54-.11.76-.32.22,0,.43,0,.65,0,.14.13.28.26.4.42h0c.14.18.29.14.45.01.69,0,1.39,0,2.08,0,.46.34.58-.25.85-.41.31,0,.63,0,.94,0,.29.39.57.17.86,0,.58,0,1.16,0,1.73-.01.11.12.23.2.38.26.14,0,.27.02.41.03.14-.08.28-.18.41-.29,1.06,0,2.11.02,3.17.03.17.14.33.34.51.01.55-.62,1.11.04,1.67,0,.88-.06,1.77.12,2.64-.13.15-.1.27-.24.43-.32,1.07,0,2.15.16,3.22-.1.12-.08.23-.08.34,0,1.11.18,2.22.27,3.32-.07.14-.06.27-.15.38-.26.92.01,1.84.02,2.76.03.19.05.34.19.48.33.25.1.5.11.75-.02.15-.1.27-.24.43-.32.54,0,1.08.02,1.62.02.45.2.9.23,1.34,0h.14c.2.13.41.1.62,0,3.94,0,7.89-.01,11.83-.02.17.12.33.16.5-.02.68-.33,1.34.79,2.02.03.2.1.4.13.6,0h.15c.26.13.54.18.81.25.13.03.27.05.4.08.24-.18.48-.18.71,0,.3.14.44-.1.6-.32.2.03.34.18.5.3,1.68.26,3.36.1,5.05.09.16.08.29.22.43.32,1.56.25,3.13.11,4.7.09.23.2.54.16.77.33,1.59.2,3.18.18,4.77.01.14-.13.28-.26.46-.33,1.84.46,3.7.53,5.57.43.21.02.36.17.52.29.65.24,1.32.13,1.98.13,5.62,0,11.24.06,16.86-.02,1.99-.03,3.92.75,5.92.41.17.12.33.16.49-.02.45,0,.89,0,1.34,0,.16.08.29.22.43.32.71.23,1.44.09,2.17.13,1.26.06,2.52-.17,3.76.36.42.18.96.14,1.41-.14.25-.09.52-.07.73-.27,1.2.32,2.39.71,3.63.34.24-.16.47-.16.71,0Z"/>
      </g>
    </g>
  </g>
</svg>