<?xml version="1.0" encoding="UTF-8"?>
<svg id="Layer_2" data-name="Layer 2" xmlns="http://www.w3.org/2000/svg" viewBox="0 0 360.56 131.17">
  <defs>
    <style>
      .cls-1 {
        fill: #193538;
        stroke-width: 0px;
      }
    </style>
  </defs>
  <g id="Layer_7" data-name="Layer 7">
    <path class="cls-1" d="M40.32,0c11.18.49,21.42,3.04,29.79,10.68,8.62,7.87,11.73,17.83,10.35,29.28-1.05,8.7-4.63,16.38-9.78,23.36-1.19,1.61-1.41,2.62-.06,4.43,5.67,7.57,9.41,16.05,10.12,25.56.97,13.04-4.52,25.76-17.96,32.36-15.38,7.55-31.2,7.39-46.42-.84-8.02-4.34-13.04-11.34-15.25-20.28-2.96-12,.49-22.7,6.52-32.89.93-1.57,2.21-2.94,2.99-4.57.4-.84.45-2.33-.05-3.03-3.89-5.54-7.01-11.42-8.96-17.93C-4.02,27.37,5.42,8.18,25.17,2.6c4.9-1.39,10.09-1.76,15.15-2.6ZM40.29,116.66c3.36-.46,6.79-.65,10.07-1.43,12.59-3.02,18-12.94,15.23-25.07-2.09-9.15-7.49-16.35-14.31-22.54-1.71-1.55-1.87-2.38-.06-4.01,6.83-6.17,12.23-13.38,14.37-22.52,2.38-10.19-1.17-19.61-11.25-23.76-7.27-2.99-14.85-2.97-22.34-1.68-13.98,2.41-20.58,14.03-16.22,27.47,2.65,8.15,7.55,14.69,13.79,20.33,1.8,1.63,1.88,2.5.02,4.23-7.47,6.97-13.4,14.88-14.85,25.44-1.08,7.84,2.01,15.44,8.76,19.39,5.2,3.04,10.84,4.01,16.81,4.15Z"/>
    <path class="cls-1" d="M346.16,58.58c1.91,1.21,3.33,2.05,4.69,2.98,14.62,9.95,11.71,29.33-1.95,36.56-11.88,6.29-24.2,6.07-36.01-.33-9.86-5.35-13.25-17.07-8.05-25.77,2.42-4.04,5.96-6.84,10.38-9.25-.72-.74-1.24-1.41-1.88-1.92-6.47-5.17-9.85-11.78-8.25-20.06,1.67-8.67,7.58-13.9,15.83-16.18,9.64-2.67,19.27-2.53,28.18,2.69,11.5,6.74,11.78,21.63.68,28.95-1.08.71-2.17,1.4-3.61,2.34ZM331.4,93.56c2.25-.51,4.6-.77,6.74-1.59,3.86-1.49,6.61-4.11,6.99-8.53.37-4.3-1.23-7.81-4.99-9.81-4.44-2.36-9.13-4.25-13.77-6.2-.82-.34-2.11-.34-2.87.07-4.5,2.44-7.53,6.05-7.73,11.35-.31,8.35,6.32,14.4,15.63,14.71ZM345.2,42.99c-.06-4.9-2.34-8.35-7.04-9.66-2.66-.74-5.55-.97-8.33-.92-4.7.09-8.37,2.86-9.31,6.53-1.03,4,.5,7.81,4.71,10.29,3.2,1.89,6.69,3.28,10.08,4.83.48.22,1.22.27,1.68.06,4.5-2.12,8.14-5.41,8.22-11.12Z"/>
    <path class="cls-1" d="M223.29,73.49c-4.32,0-8.65.09-12.97-.04-2.24-.07-2.9.82-2.33,2.81,1.85,6.47,6.47,11.94,14.43,12.25,5.6.22,10.45-1.21,14.74-4.8,1.65-1.38,3.3-3.44,5.86-1.83,1.85,1.17,1.96,3.97.38,7.06-3.03,5.93-7.9,9.9-14.13,11.83-8.55,2.65-17.08,2.57-24.91-2.45-7.21-4.62-10.77-11.48-11.47-19.9-.81-9.88,1.74-18.56,9.16-25.48,9.61-8.96,25.71-9.75,35.24-1.65,4.68,3.98,7.28,8.95,6.6,15.3-.44,4.1-2.94,6.66-7.14,6.8-4.48.15-8.98.03-13.47.03,0,.02,0,.04,0,.07ZM217.4,66.4s0-.05,0-.07c2.74,0,5.49.09,8.23-.02,2.89-.12,4.54-1.68,4.69-4.16.21-3.56-2.23-7.44-5.53-8.7-8.19-3.13-15.64,2.49-17.01,10.94-.26,1.6.39,2.07,1.89,2.04,2.58-.06,5.16-.02,7.73-.02Z"/>
    <path class="cls-1" d="M273.9,56.86c1.1-1.51,2.12-3.09,3.3-4.53,2.53-3.09,5.56-5.41,9.62-6.2,8.81-1.7,13.04,5.92,11.4,12.36-1.43,5.62-5.02,8.1-9.93,6.71-1.59-.45-3.21-1.51-4.33-2.73-4.09-4.45-7.18-1.9-9.04,1.51-.93,1.7-1.69,3.74-1.71,5.64-.09,6.7.18,13.41.32,20.11.04,1.78,1.02,2.59,2.74,2.94,1.43.29,2.95.72,4.15,1.52,1.89,1.25,1.95,3.65,0,4.73-1.9,1.05-4.14,1.95-6.27,2.06-5.55.3-11.13.24-16.69.07-1.76-.05-3.66-.64-5.17-1.53-1.02-.6-2.11-2.23-2-3.27.11-1.07,1.46-2.42,2.59-2.91,3.48-1.49,3.93-1.82,3.94-5.55.03-7.97.03-15.93,0-23.9-.02-4.36-.58-4.92-4.63-6.66-1.05-.45-2.29-1.7-2.41-2.71-.13-1.02.75-2.76,1.66-3.21,3.11-1.51,6.37-2.75,9.68-3.77,2.12-.65,4.4-.93,6.62-1.05,3.45-.19,4.88,1.15,5.21,4.54.18,1.88.26,3.76.39,5.64.2.06.39.11.59.17Z"/>
    <path class="cls-1" d="M170.81,70.82c.23,4.88.14,9.8.78,14.63.55,4.16,3.65,5.75,7.69,4.4,2.02-.68,3.81-2.03,5.83-2.71,1.43-.48,3.42-.95,4.52-.32,1.74,1,1.22,3.01.34,4.68-2.04,3.87-5.36,6.25-9.24,7.97-5.24,2.33-10.62,3.11-16.26,1.63-5.35-1.4-9.28-6.56-9.39-12.97-.16-9.55-.16-19.1-.08-28.65.02-2.24-.36-3.27-2.94-3.2-3.33.08-4.87-2.71-3.39-5.65.48-.95.99-2.03,1.79-2.66,4.2-3.35,8.46-6.64,12.79-9.82.89-.65,2.14-.91,3.26-1.13,2.56-.52,4.24.77,4.46,3.34.08.99.06,1.99.07,2.99.05,5.11-.64,4.73,4.89,4.76,3.41.02,6.83-.07,10.23.13,2.74.16,3.81,1.59,3.68,4.29-.12,2.32-1.6,3.62-4.43,3.67-3.99.07-7.99.1-11.98,0-1.84-.05-2.48.55-2.42,2.43.13,4.06.04,8.14.04,12.21-.07,0-.15,0-.22,0Z"/>
    <path class="cls-1" d="M137.92,70.56c0,6.14.06,12.29-.03,18.43-.03,2.37.82,3.79,3.22,4.22,1.89.34,3.35,1.33,3.39,3.38.04,2.05-1.45,3.27-3.25,3.55-3.75.58-7.55,1.15-11.33,1.15-3.86,0-7.74-.55-11.57-1.14-1.85-.29-3.44-1.39-3.36-3.68.08-2.16,1.55-3.02,3.4-3.35,1.96-.35,2.9-1.41,2.89-3.38-.07-9.78-.08-19.55-.3-29.33-.02-.84-1.29-1.95-2.24-2.42-1.81-.9-4.38-1-4.47-3.64-.09-2.61,2.16-3.73,4.19-4.33,4.59-1.36,9.23-2.69,13.95-3.44,3.62-.57,5.4,1.31,5.46,5.06.11,6.31.03,12.62.03,18.92.01,0,.02,0,.03,0Z"/>
    <path class="cls-1" d="M128.15,39.55c-1.76-.47-3.6-.73-5.23-1.45-4.77-2.09-5.46-8.55-1.19-11.62,3.93-2.82,8.4-2.99,12.82-1.42,2.89,1.03,4.47,3.34,4.42,6.53-.05,3.36-2.06,5.36-4.94,6.48-1.83.72-3.83.97-5.89,1.47Z"/>
    <path class="cls-1" d="M40.34,101.56c-2.43-.43-4.92-.63-7.26-1.34-3.17-.96-4.24-3.23-3.24-6.44,1.76-5.64,5.84-9.73,9.72-13.92.29-.31,1.71-.17,2.01.22,2.96,3.86,6.18,7.59,8.55,11.8,2.71,4.82.31,8.62-5.24,9.18-1.48.15-2.99.02-4.48.02-.02.16-.04.31-.06.47Z"/>
    <path class="cls-1" d="M40.39,52.41c-4.2-4.52-8.45-8.63-10.33-14.39-1.31-4.01.35-6.91,4.51-7.38,3.92-.44,7.97-.46,11.9,0,4.19.48,5.92,4.04,4.22,8-2.25,5.25-5.94,9.49-10.3,13.78Z"/>
  </g>
</svg>