<?xml version="1.0" encoding="UTF-8"?>
<svg id="Layer_2" data-name="Layer 2" xmlns="http://www.w3.org/2000/svg" viewBox="0 0 510.46 355.22">
  <defs>
    <style>
      .cls-1 {
        fill: #cfdcff;
        stroke-width: 0px;
      }
    </style>
  </defs>
  <g id="Layer_1-2" data-name="Layer 1">
    <path class="cls-1" d="M160.6,248.1c24.71,0,38.24-19.57,38.24-39.15v-97.17c-41.88,24.19-78.83,25.25-78.83,83.95,0,25.39,10,52.37,40.6,52.37h0ZM261.21,285.66c-34.39,0-56.5-13.55-60.87-59.73-16.14,38.36-62.37,60.79-109.73,60.79-55.31,0-90.61-24.33-90.61-69.83,0-83.61,131.99-69.46,198.86-110.35v-31.94c0-33.33-6.47-70.36-47.07-70.36-30.59,0-45.3,16.4-45.3,42.32,0,12.17,8.23,28.04,20.59,32.8-1.76,30.15-25.3,44.44-51.78,44.44-31.77,0-55.89-16.93-55.89-47.08C19.41,13.23,113.54,0,151.79,0c82.37,0,156.5,20.63,156.5,82v128.02c0,17.46-21.27,52.93,5.79,52.93,7.65,0,10.64,23.23,21.82,16.35l18.18,35.97c-27.07,20.63-50.51-29.6-92.87-29.6"/>
    <path class="cls-1" d="M198.04,216.62c0-86.76,68.25-148.12,171.22-148.12,39.42,0,134.73,11.64,134.73,75.12,0,30.16-24.12,48.67-55.9,48.67-26.48,0-50.01-14.28-51.77-44.44,12.35-4.76,20.59-20.63,20.59-32.8,0-25.92-16.47-42.32-43.54-42.32-54.13,0-64.13,64.01-64.13,102.1,0,74.59,45.3,114.79,103.55,114.79,29.42,0,72.96-10.05,94.14-39.14l3.53,1.59c-25.89,56.6-79.43,103.15-161.21,103.15s-151.21-52.37-151.21-138.6"/>
  </g>
</svg>