<?xml version="1.0" encoding="UTF-8"?>
<svg id="Layer_2" data-name="Layer 2" xmlns="http://www.w3.org/2000/svg" xmlns:xlink="http://www.w3.org/1999/xlink" viewBox="0 0 3637.43 798.46">
  <defs>
    <style>
      .cls-1 {
        fill: none;
      }

      .cls-2 {
        clip-path: url(#clippath);
      }

      .cls-3 {
        fill: #01ade3;
      }

      .cls-4 {
        fill: #bfd253;
      }

      .cls-5 {
        fill: #35aa68;
      }

      .cls-6 {
        fill: #1a6380;
      }

      .cls-7 {
        clip-path: url(#clippath-1);
      }

      .cls-8 {
        clip-path: url(#clippath-2);
      }
    </style>
    <clipPath id="clippath">
      <rect class="cls-1" width="3637.43" height="798.46"/>
    </clipPath>
    <clipPath id="clippath-1">
      <rect class="cls-1" x="-17.74" width="3653.4" height="803.78"/>
    </clipPath>
    <clipPath id="clippath-2">
      <rect class="cls-1" width="798.46" height="798.46"/>
    </clipPath>
  </defs>
  <g id="Layer_3" data-name="Layer 3">
    <g class="cls-2">
      <g class="cls-7">
        <g>
          <path class="cls-3" d="m2343.92,596.18l-65.65-1.77-67.43-205.83-67.43,205.83h-67.43l-110.01-308.74h85.17l60.33,195.18,63.88-193.4h70.97l60.33,195.18,63.88-193.4h86.94l-113.56,306.96Z"/>
          <path class="cls-3" d="m988.32,363.74c0-49.68,53.23-90.49,113.56-90.49s117.11,26.62,118.88,97.59h-76.3c-1.77-23.07-23.07-31.94-40.81-31.94-19.52,0-39.04,7.1-39.04,30.16,0,12.42,14.19,21.29,31.94,26.62l51.46,12.42c70.97,19.52,79.85,67.43,79.85,92.27,0,62.1-62.1,94.04-125.98,94.04-60.33,0-122.43-37.26-122.43-104.69h74.52c1.77,21.29,26.62,40.81,56.78,39.04,23.07,0,40.81-12.42,40.81-30.16,0-15.97-10.65-23.07-33.71-28.39l-42.58-10.65c-79.85-24.84-86.94-60.33-86.94-95.82Z"/>
          <path class="cls-3" d="m1871.94,438.27c0-47.91-35.49-79.85-79.85-81.62-44.36,0-79.85,30.16-81.62,79.85,0,49.68,35.49,81.62,79.85,83.39,46.13,0,81.62-31.94,81.62-81.62Zm-239.54-1.77c0-95.82,72.75-157.92,161.47-157.92s159.69,63.88,157.92,159.69c0,95.82-74.52,159.69-161.47,159.69-86.94-1.77-157.92-65.65-157.92-161.47Z"/>
          <path class="cls-6" d="m2948.98,599.73l1.77-306.96h-79.85l-1.77,347.77,79.85-40.81Z"/>
          <path class="cls-6" d="m2633.14,360.19c-44.36,0-81.62,31.94-81.62,81.62s35.49,85.17,79.85,85.17,81.62-31.94,83.39-83.39-39.04-83.39-81.62-83.39Zm83.39,196.95c-17.74,30.16-56.78,47.91-97.59,47.91-79.85,0-150.82-63.88-149.05-161.47,0-97.59,70.97-159.69,152.59-159.69,40.81,0,79.85,17.74,95.82,47.91V124.2h79.85l-3.55,473.75h-79.85l1.77-40.81Z"/>
          <path class="cls-6" d="m2913.49,125.98c28.39,0,49.68,21.29,49.68,47.91,0,28.39-23.07,47.91-51.46,47.91s-51.46-21.29-51.46-49.68c0-24.84,24.84-46.13,53.23-46.13Z"/>
          <path class="cls-6" d="m3397.89,381.49c0-49.68,53.23-90.49,113.56-90.49s117.11,26.62,118.88,97.59h-76.3c-1.77-23.07-23.07-31.94-40.81-31.94-19.52,0-39.04,7.1-39.04,30.16,0,12.42,14.19,21.29,31.94,26.62l51.46,12.42c70.97,19.52,79.85,67.43,79.85,92.27,0,62.1-62.1,94.04-125.98,94.04-60.33,0-122.43-37.26-122.43-104.69h74.52c1.77,21.29,26.62,40.81,56.78,39.04,23.07,0,40.81-12.42,40.81-30.16,0-15.97-10.65-23.07-33.71-28.39l-42.58-10.65c-79.85-23.07-86.94-60.33-86.94-95.82Z"/>
          <path class="cls-3" d="m1458.52,275.02c-30.16,0-81.62,15.97-95.82,53.23l1.77-257.28-79.85,40.81-3.55,473.75h79.85l1.77-163.24c0-53.23,40.81-70.97,74.52-70.97s65.65,24.84,63.88,69.2l-1.77,166.79h79.85l1.77-170.34c1.77-88.72-42.58-140.17-122.43-141.95Z"/>
          <path class="cls-6" d="m3170.77,532.31c-44.36,0-83.39-33.71-81.62-85.17,0-49.68,39.04-83.4,83.39-81.62,44.36,0,83.39,30.16,83.39,83.39-1.77,51.46-44.36,83.39-85.17,83.39Zm86.94-235.99v40.81c-15.97-30.16-56.78-47.91-97.59-47.91-79.85,0-154.37,62.1-154.37,159.69s72.75,159.69,152.59,159.69c40.81,0,81.62-17.74,97.59-47.91,3.55,63.88-15.97,122.43-94.04,120.66-31.94,0-67.43-19.52-79.85-49.68l-63.88,33.71c26.62,55,81.62,88.72,145.5,88.72,106.46,0,172.11-58.55,173.89-195.18l1.77-262.6h-81.62Z"/>
          <g class="cls-8">
            <g>
              <path class="cls-4" d="m0,404.99c-.06,60.23,13.14,119.72,38.65,174.12l162.83-79.24,1.22-265.97,168.64,52.65L372.95.96c-101.09,6.75-195.87,52.25-265.13,127.28C38.57,203.26.02,302.2,0,404.99H0Z"/>
              <path class="cls-3" d="m371.32,286.54l-168.64-52.65-1.62,265.97-1.08,256.1,7.43,4.39,162.15-87.74,1.76-386.07Zm-31.89,205.65c-3.47-.18-6.73-1.7-9.12-4.25-2.39-2.55-3.72-5.94-3.72-9.46,0-2.74.82-5.42,2.33-7.68,1.52-2.27,3.67-4.02,6.18-5.04,2.51-1.01,5.26-1.24,7.9-.66s5.04,1.96,6.9,3.95c1.86,1.99,3.09,4.49,3.53,7.2.44,2.7.08,5.48-1.05,7.97-1.13,2.49-2.96,4.58-5.27,6-2.31,1.42-4.99,2.11-7.68,1.97Z"/>
              <path class="cls-5" d="m497.14,326.02l-.95,153.82v8.09l268.9,79.38c26.59-61.65,37.61-129.06,32.07-196.12-5.53-67.06-27.45-131.66-63.77-187.97-36.32-56.31-85.9-102.55-144.25-134.54C530.79,16.69,465.49-.04,399.17,0c-8.78,0-17.43,0-26.21.96l-1.62,285.58,125.8,39.48Z"/>
              <path class="cls-6" d="m494.29,798.46c59.5-14.96,114.82-43.6,161.68-83.7,46.86-40.1,84.01-90.6,108.57-147.58l-268.9-79.38-1.35,310.66Z"/>
              <path class="cls-6" d="m38.64,579.1c34.9,74.16,91.16,135.83,161.34,176.86l1.49-256.1-162.83,79.24Z"/>
            </g>
          </g>
        </g>
      </g>
    </g>
  </g>
</svg>